<svg id="Hassle-free_properties_icon1" data-name="Hassle-free properties_icon1" xmlns="http://www.w3.org/2000/svg" xmlns:xlink="http://www.w3.org/1999/xlink" width="290" height="200" viewBox="0 0 290 200">
  <defs>
    <clipPath id="clip-path">
      <rect id="Rectangle_11527" data-name="Rectangle 11527" width="290" height="200" fill="none"/>
    </clipPath>
  </defs>
  <g id="Group_21192" data-name="Group 21192" clip-path="url(#clip-path)">
    <path id="Path_70849" data-name="Path 70849" d="M396.05,79.022c16.911-37.891-21.627-84.005-71.606-66.683-53.75,18.629-43.251,9.343-55.328-.247C244.981-7.072,167.962-7.542,154.345,41.031c-15.979,57,32.98,67.321,7.8,76.07-35.967,12.5-33.04,40.322-5.871,72.393L387.3,192.229s41.6-24.542,21.64-61.7c-8.872-16.519-29.8-13.617-12.888-51.508" transform="translate(-124.355 -0.001)" fill="#ecedff"/>
    <path id="Path_70850" data-name="Path 70850" d="M452.818,2184.907c-62.016,0-112.29,4.45-112.29,9.938s50.274,9.938,112.29,9.938,112.29-4.449,112.29-9.938-50.274-9.938-112.29-9.938" transform="translate(-312.477 -2004.783)" fill="#f2d4ff"/>
    <path id="Path_70851" data-name="Path 70851" d="M1642.737,2064.969h33.386l.048-2.494-33.434.207Z" transform="translate(-1507.416 -1892.444)" fill="#d95436"/>
    <path id="Path_70852" data-name="Path 70852" d="M1665.97,2019.384c-11.941-1.522-18.881.706-21.923,3.239-3.8,3.167,1.106,5.92,9.154,6.645,11.7,1.054,19.634-.078,22.362-3.263,2.245-2.62-1.818-5.63-9.594-6.622" transform="translate(-1507.416 -1852.449)" fill="#c14218"/>
    <path id="Path_70853" data-name="Path 70853" d="M1665.97,1992.665c-11.941-1.522-18.881.706-21.923,3.239-3.8,3.167,1.106,5.92,9.154,6.645,11.7,1.054,19.634-.078,22.362-3.263,2.245-2.62-1.818-5.631-9.594-6.622" transform="translate(-1507.416 -1827.932)" fill="#ef7b28"/>
    <path id="Path_70854" data-name="Path 70854" d="M1690.641,1999.334c-12.105-1.541-17.21,1.456-18.843,2.814-1.26,1.048-1.31,1.958-1.13,2.537.544,1.747,4.014,3.114,9.057,3.569,2.394.216,4.6.321,6.616.321,6.432,0,10.825-1.088,12.621-3.185a2.024,2.024,0,0,0,.45-2.129c-.7-1.822-4.063-3.328-8.772-3.928m7.928,5.72c-2.245,2.62-8.922,3.576-18.8,2.685-4.757-.429-8.136-1.688-8.609-3.206-.193-.624.131-1.292.965-1.986,2.991-2.491,8.082-3.089,12.288-3.089a50.309,50.309,0,0,1,6.158.392c4.451.565,7.731,1.979,8.355,3.6a1.515,1.515,0,0,1-.361,1.6" transform="translate(-1532.977 -1834.114)" fill="#ffc352"/>
    <path id="Path_70855" data-name="Path 70855" d="M1647.54,2013.042h33.386l.048-2.494-33.434.207Z" transform="translate(-1511.824 -1844.798)" fill="#d95436"/>
    <path id="Path_70856" data-name="Path 70856" d="M1670.773,1967.456c-11.941-1.522-18.881.706-21.923,3.24-3.8,3.167,1.107,5.919,9.154,6.645,11.7,1.054,19.634-.077,22.362-3.263,2.245-2.62-1.818-5.63-9.594-6.622" transform="translate(-1511.824 -1804.802)" fill="#c14218"/>
    <path id="Path_70857" data-name="Path 70857" d="M1670.773,1940.736c-11.941-1.522-18.881.706-21.923,3.239-3.8,3.167,1.107,5.92,9.154,6.645,11.7,1.054,19.634-.078,22.362-3.263,2.245-2.62-1.818-5.63-9.594-6.622" transform="translate(-1511.824 -1780.286)" fill="#ef7b28"/>
    <path id="Path_70858" data-name="Path 70858" d="M1695.446,1947.376c-12.111-1.543-17.208,1.451-18.841,2.814-1.261,1.051-1.31,1.96-1.13,2.54.543,1.747,4.014,3.114,9.057,3.569,2.394.216,4.6.321,6.616.321,6.432,0,10.825-1.088,12.621-3.185a2.026,2.026,0,0,0,.45-2.129c-.7-1.822-4.063-3.328-8.773-3.93m7.93,5.722c-2.245,2.622-8.92,3.576-18.8,2.685-4.757-.429-8.136-1.689-8.609-3.206-.194-.624.131-1.292.965-1.989,2.99-2.491,8.081-3.089,12.287-3.089a50.331,50.331,0,0,1,6.158.392c4.452.567,7.732,1.982,8.356,3.6a1.519,1.519,0,0,1-.361,1.606" transform="translate(-1537.387 -1786.438)" fill="#ffc352"/>
    <path id="Path_70859" data-name="Path 70859" d="M1791.058,1968.128a13.833,13.833,0,0,0-1.7-.289c-.353-.04-.556-.161-.474-.281l.21-.3c.09-.13-.162-.26-.562-.289a1.231,1.231,0,0,0-.887.183l-.252.366a.905.905,0,0,1-.7.189c-2.772-.173-4.308.344-4.717.938-.469.681,1.64,1.214,3.808,1.7,1.568.361,1.959.625,1.662,1.056-.307.446-1.314.754-2.973.633a14.372,14.372,0,0,1-2.511-.4,1.856,1.856,0,0,0-1.095.061l-.134.071c-.194.1-.132.236.151.313a15.442,15.442,0,0,0,2.228.4c.361.041.576.161.492.283l-.23.334c-.09.13.162.26.562.289l.023,0a1.23,1.23,0,0,0,.887-.183l.268-.389a.955.955,0,0,1,.7-.188c3.027.067,4.719-.352,5.018-1.108.28-.708-.922-1.283-3.1-1.788-1.839-.431-3.072-.562-2.791-.969.216-.313,1.142-.624,2.941-.493a13.39,13.39,0,0,1,2.152.314,1.863,1.863,0,0,0,1.063-.061l.133-.067c.211-.106.137-.249-.175-.324" transform="translate(-1633.949 -1804.803)" fill="#ffc352"/>
    <path id="Path_70860" data-name="Path 70860" d="M1651.965,1964.965h33.386l.048-2.494-33.434.207Z" transform="translate(-1515.884 -1800.684)" fill="#d95436"/>
    <path id="Path_70861" data-name="Path 70861" d="M1675.2,1919.379c-11.941-1.522-18.881.706-21.923,3.239-3.8,3.167,1.106,5.92,9.154,6.645,11.7,1.054,19.634-.078,22.362-3.263,2.245-2.62-1.818-5.631-9.594-6.622" transform="translate(-1515.884 -1760.688)" fill="#c14218"/>
    <path id="Path_70862" data-name="Path 70862" d="M1675.2,1892.66c-11.941-1.522-18.881.706-21.923,3.24-3.8,3.167,1.106,5.92,9.154,6.645,11.7,1.054,19.634-.078,22.362-3.263,2.245-2.62-1.818-5.63-9.594-6.622" transform="translate(-1515.884 -1736.172)" fill="#ef7b28"/>
    <path id="Path_70863" data-name="Path 70863" d="M1699.871,1899.3c-12.1-1.543-17.211,1.454-18.843,2.814-1.26,1.051-1.31,1.96-1.129,2.54.545,1.747,4.015,3.114,9.057,3.569,2.394.216,4.6.321,6.614.321,6.434,0,10.828-1.091,12.623-3.187a2.021,2.021,0,0,0,.45-2.127c-.7-1.822-4.062-3.328-8.772-3.93m7.928,5.72c-2.244,2.622-8.917,3.583-18.8,2.688-4.757-.429-8.136-1.688-8.609-3.206-.194-.624.131-1.292.966-1.989,4.879-4.064,15.353-3.091,18.446-2.7,4.452.568,7.732,1.982,8.355,3.6a1.515,1.515,0,0,1-.361,1.6" transform="translate(-1541.446 -1742.328)" fill="#ffc352"/>
    <path id="Path_70865" data-name="Path 70865" d="M1746.048,1904.577h33.386l.048-2.494-33.434.207Z" transform="translate(-1602.217 -1745.274)" fill="#d95436"/>
    <path id="Path_70866" data-name="Path 70866" d="M1769.281,1858.99c-11.941-1.522-18.881.706-21.923,3.24-3.8,3.167,1.107,5.92,9.154,6.645,11.7,1.054,19.634-.077,22.362-3.263,2.245-2.62-1.818-5.63-9.594-6.622" transform="translate(-1602.217 -1705.279)" fill="#c14218"/>
    <path id="Path_70867" data-name="Path 70867" d="M1769.281,1832.271c-11.941-1.522-18.881.706-21.923,3.239-3.8,3.167,1.107,5.92,9.154,6.645,11.7,1.054,19.634-.078,22.362-3.263,2.245-2.62-1.818-5.63-9.594-6.622" transform="translate(-1602.217 -1680.762)" fill="#ef7b28"/>
    <path id="Path_70868" data-name="Path 70868" d="M1793.958,1838.942c-12.108-1.536-17.211,1.456-18.841,2.814-1.261,1.051-1.31,1.96-1.13,2.54.543,1.747,4.014,3.114,9.056,3.569,2.394.216,4.6.321,6.616.321,6.432,0,10.826-1.088,12.622-3.185a2.026,2.026,0,0,0,.45-2.129c-.7-1.822-4.063-3.328-8.773-3.93m7.93,5.722c-2.247,2.622-8.925,3.574-18.8,2.685-4.756-.429-8.135-1.689-8.608-3.206-.194-.624.131-1.292.965-1.989,4.88-4.064,15.352-3.093,18.445-2.7,4.452.567,7.732,1.982,8.356,3.6a1.519,1.519,0,0,1-.361,1.606" transform="translate(-1627.784 -1686.947)" fill="#ffc352"/>
    <path id="Path_70869" data-name="Path 70869" d="M1682.95,1864.743h33.386l.048-2.494-33.434.207Z" transform="translate(-1544.317 -1708.725)" fill="#d95436"/>
    <path id="Path_70870" data-name="Path 70870" d="M1706.183,1819.157c-11.941-1.522-18.881.706-21.923,3.24-3.8,3.167,1.106,5.92,9.154,6.645,11.7,1.054,19.634-.078,22.363-3.263,2.245-2.62-1.818-5.631-9.594-6.622" transform="translate(-1544.317 -1668.73)" fill="#c14218"/>
    <path id="Path_70871" data-name="Path 70871" d="M1706.183,1792.438c-11.941-1.522-18.881.706-21.923,3.24-3.8,3.167,1.106,5.92,9.154,6.645,11.7,1.054,19.634-.077,22.363-3.263,2.245-2.62-1.818-5.63-9.594-6.622" transform="translate(-1544.317 -1644.213)" fill="#ef7b28"/>
    <path id="Path_70872" data-name="Path 70872" d="M1730.863,1799.094c-12.113-1.541-17.209,1.454-18.841,2.814-1.261,1.048-1.31,1.961-1.13,2.54.544,1.747,4.014,3.115,9.056,3.569,2.392.216,4.6.321,6.613.321,6.434,0,10.827-1.09,12.625-3.187a2.024,2.024,0,0,0,.451-2.127c-.7-1.822-4.062-3.328-8.773-3.931m7.928,5.72c-2.246,2.622-8.923,3.574-18.8,2.688-4.757-.429-8.136-1.688-8.608-3.208-.194-.624.131-1.292.965-1.986,2.99-2.491,8.081-3.089,12.287-3.089a50.331,50.331,0,0,1,6.158.392c4.453.568,7.733,1.982,8.355,3.6a1.513,1.513,0,0,1-.361,1.6" transform="translate(-1569.886 -1650.383)" fill="#ffc352"/>
    <path id="Path_70874" data-name="Path 70874" d="M1823.928,2177.34h33.386l.048-2.494-33.434.207Z" transform="translate(-1673.681 -1995.551)" fill="#d95436"/>
    <path id="Path_70875" data-name="Path 70875" d="M1847.161,2131.754c-11.941-1.522-18.881.706-21.923,3.239-3.8,3.167,1.107,5.919,9.154,6.645,11.7,1.054,19.634-.078,22.362-3.263,2.245-2.62-1.818-5.63-9.594-6.622" transform="translate(-1673.682 -1955.555)" fill="#c14218"/>
    <path id="Path_70876" data-name="Path 70876" d="M1847.161,2105.036c-11.941-1.522-18.881.706-21.923,3.24-3.8,3.167,1.107,5.919,9.154,6.645,11.7,1.054,19.634-.078,22.362-3.263,2.245-2.62-1.818-5.63-9.594-6.622" transform="translate(-1673.682 -1931.04)" fill="#ef7b28"/>
    <path id="Path_70877" data-name="Path 70877" d="M1871.839,2111.691c-12.113-1.541-17.209,1.454-18.842,2.814-1.26,1.048-1.31,1.961-1.129,2.54.544,1.747,4.014,3.114,9.056,3.569,2.392.216,4.6.321,6.613.321,6.434,0,10.827-1.09,12.625-3.187a2.024,2.024,0,0,0,.451-2.127c-.7-1.822-4.062-3.328-8.773-3.931m7.929,5.72c-2.246,2.622-8.923,3.574-18.8,2.688-4.757-.429-8.136-1.688-8.608-3.208-.194-.624.131-1.292.966-1.986,2.99-2.491,8.081-3.089,12.287-3.089a50.213,50.213,0,0,1,6.158.392c4.453.567,7.733,1.981,8.355,3.6a1.513,1.513,0,0,1-.361,1.6" transform="translate(-1699.25 -1937.209)" fill="#ffc352"/>
    <path id="Path_70879" data-name="Path 70879" d="M2853.173,2025.5c-5.358,1.386-7.9-.515-11.986-.126s-7.086,3.242-10.086,7.069-4.945-.069-10.131,2.578-6.637,14.062-6.637,14.062c21.662,12.183,20.89-1,24.335-3.888s5.266.344,10.567-1.787,5.186-7.516,8.746-6.966,8.2-4.376,6.725-7.852-6.175-4.475-11.533-3.089" transform="translate(-2582.502 -1857.967)" fill="#008e68"/>
    <path id="Path_70880" data-name="Path 70880" d="M2877.307,2042.584a31.093,31.093,0,0,0-10.041.886,3.33,3.33,0,0,0-.378.075.153.153,0,0,0-.058.032,63.451,63.451,0,0,0-7.851,2.514c.724-1.038,2.348-3.859.661-6.324a.158.158,0,0,0-.261.179c1.964,2.871-.92,6.317-.949,6.351,0,0,0,.007-.006.01-2.657,1.053-5.291,2.255-7.822,3.515l-.1.024a.159.159,0,0,0-.1.077c-3.036,1.52-5.918,3.119-8.506,4.645a11.706,11.706,0,0,0,2.182-6.505.158.158,0,1,0-.316.006,11.792,11.792,0,0,1-2.551,6.892.164.164,0,0,0-.011.021c-2.419,1.443-4.555,2.8-6.292,3.947a.153.153,0,0,0-.089.059c-2.859,1.886-4.607,3.168-4.677,3.22a.158.158,0,1,0,.188.255c.055-.041,1.14-.837,2.981-2.086,0,0,.008.006.013.007a.157.157,0,0,0,.059,0c.09-.013,9.041-1.22,13.868,3.256a.158.158,0,0,0,.215-.232c-4.27-3.96-11.646-3.578-13.624-3.393q.556-.374,1.187-.79c.672-.126,8.039-1.359,12.741,3.555a.159.159,0,0,0,.078.045.158.158,0,0,0,.15-.264c-4.125-4.312-10.231-4.008-12.339-3.75a153.634,153.634,0,0,1,15.035-8.687,16.653,16.653,0,0,1,14.128,3.82.157.157,0,0,0,.069.036.159.159,0,0,0,.142-.272,16.919,16.919,0,0,0-13.359-4.067,77.081,77.081,0,0,1,15.562-5.843c.948-.146,4.418-.36,9,3.155a.15.15,0,0,0,.06.028.158.158,0,0,0,.133-.28,14.411,14.411,0,0,0-7.495-3.268,28.919,28.919,0,0,1,8.344-.535.159.159,0,0,0,.032-.316" transform="translate(-2596.948 -1871.544)" fill="#007055"/>
    <path id="Path_70881" data-name="Path 70881" d="M2636.344,1686.347c.7-5.674-4.068-8.177-1.865-11.03s.134-9.3-3.617-9.687-6.9,3.247-8.278,8.611-4.269,6.671-5.9,10.44-.589,7.776,1.308,12.253-2.451,4.3-2.643,10.122,9.092,12.612,9.092,12.612c21.128-13.089,9.223-18.785,8.363-23.2s2.846-4.448,3.544-10.121" transform="translate(-2399.903 -1528.288)" fill="#1fa47c"/>
    <path id="Path_70882" data-name="Path 70882" d="M2673.073,1703.67a.158.158,0,0,0-.1-.3,16.938,16.938,0,0,0-10.015,9.738,77.247,77.247,0,0,1,2.412-16.458c.33-.9,1.821-4.044,7.11-6.36a.155.155,0,0,0,.054-.039.158.158,0,0,0-.181-.251,14.417,14.417,0,0,0-6.481,4.986,28.962,28.962,0,0,1,3.564-7.568.158.158,0,0,0-.26-.18,31.154,31.154,0,0,0-4.079,9.226,3.4,3.4,0,0,0-.117.367.154.154,0,0,0,0,.067,63.618,63.618,0,0,0-1.6,8.093c-.558-1.135-2.24-3.923-5.212-3.636a.158.158,0,1,0,.03.315c3.46-.333,5.08,3.86,5.1,3.9a.11.11,0,0,0,.006.01c-.364,2.837-.586,5.726-.707,8.552-.018.063-.028.1-.029.1a.158.158,0,0,0,.02.123c-.138,3.395-.133,6.693-.049,9.7A11.7,11.7,0,0,0,2657.9,1719a.158.158,0,0,0-.148.28,11.791,11.791,0,0,1,4.8,5.566.148.148,0,0,0,.012.02c.093,2.817.25,5.346.411,7.42a.159.159,0,0,0,.008.107c.268,3.416.545,5.567.556,5.654a.158.158,0,1,0,.314-.042c-.009-.068-.181-1.4-.384-3.62,0,0,.009,0,.013-.008a.165.165,0,0,0,.031-.05c.032-.085,3.3-8.51,9.552-10.576a.158.158,0,0,0-.1-.3c-5.528,1.827-8.759,8.473-9.553,10.3-.039-.445-.078-.92-.118-1.421.215-.65,2.7-7.7,9.269-9.444a.158.158,0,1,0-.081-.306c-5.765,1.53-8.452,7.026-9.245,9a154.025,154.025,0,0,1-.33-17.371,16.67,16.67,0,0,1,10.171-10.53" transform="translate(-2438.741 -1548.08)" fill="#008e68"/>
    <path id="Path_70883" data-name="Path 70883" d="M2758.943,1669.108c-3.73-3.215-9.812-1.663-15.281,3.06s-9.541,3.968-14.1,6.789-6.418,7.9-7.717,14.109-5.826,2.782-10.365,8.88.359,20.3.359,20.3c32.387,1.719,23.865-13.261,26.229-18.634s6.361-2.646,11.332-8.207,1.725-11.8,6.209-13.213,7.062-9.865,3.332-13.08" transform="translate(-2486.354 -1529.952)" fill="#3ecaa1"/>
    <path id="Path_70884" data-name="Path 70884" d="M2798.408,1711.99c-5.126-1.013-8.6-.3-10.657.513a37.768,37.768,0,0,1,9.453-5.455.207.207,0,0,0-.145-.387,40.6,40.6,0,0,0-11.238,6.848,4.369,4.369,0,0,0-.4.306.2.2,0,0,0-.05.071,82.99,82.99,0,0,0-7.734,7.485c.248-1.633.518-5.874-2.88-7.783a.207.207,0,0,0-.2.361c3.958,2.223,2.574,7.924,2.559,7.981,0,.005,0,.01,0,.015-2.5,2.77-4.889,5.7-7.122,8.64l-.108.089a.207.207,0,0,0-.07.147c-2.675,3.535-5.123,7.076-7.269,10.359a15.285,15.285,0,0,0-1.206-8.876.207.207,0,1,0-.367.19c2.241,4.33,1.011,9.489,1,9.54a.157.157,0,0,0,0,.03c-2,3.088-3.71,5.916-5.081,8.26a.2.2,0,0,0-.07.12c-2.256,3.861-3.56,6.374-3.612,6.475a.208.208,0,0,0,.09.279.207.207,0,0,0,.279-.09c.041-.079.85-1.639,2.282-4.167.006,0,.013,0,.019,0a.2.2,0,0,0,.07-.031c.1-.067,9.874-6.66,18.109-4.216a.207.207,0,0,0,.118-.4c-7.285-2.163-15.694,2.554-17.9,3.915q.435-.759.932-1.611c.714-.536,8.622-6.243,16.964-3.214a.207.207,0,0,0,.141-.388c-7.318-2.658-14.288,1.231-16.605,2.753a200.691,200.691,0,0,1,12.573-18.866,21.735,21.735,0,0,1,18.738-3.706.207.207,0,0,0,.254-.144.207.207,0,0,0-.145-.254,22.084,22.084,0,0,0-17.981,2.973,100.714,100.714,0,0,1,14.833-15.843c1.025-.72,4.961-2.978,12.354-1.517a.2.2,0,0,0,.087,0,.207.207,0,0,0-.007-.4" transform="translate(-2526.389 -1565.952)" fill="#1e8584"/>
    <path id="Path_70885" data-name="Path 70885" d="M40.256,1960.59c-4.422-3.258-6.829.07-9.036-3.951s-4.562-7.136-8.306-8.124-6.4.392-11.175-1.719-9.306-1.9-11.207,1.109,1.661,8.305,5.059,8.339,2.468,5.028,7.076,7.823,6.8.067,9.562,3.282.03,15.368,22.056,7.346c0,0,.395-10.847-4.027-14.1" transform="translate(0 -1785.019)" fill="#008e68"/>
    <path id="Path_70886" data-name="Path 70886" d="M61.795,2005.692a.147.147,0,0,0-.074-.068c-1.441-1.331-3.222-2.924-5.253-4.637a.167.167,0,0,0-.007-.021,11.126,11.126,0,0,1-1.32-6.805.149.149,0,1,0-.294-.054,11.047,11.047,0,0,0,1.037,6.39c-2.175-1.817-4.614-3.747-7.207-5.627a.15.15,0,0,0-.08-.087l-.093-.039c-2.162-1.561-4.43-3.083-6.743-4.469,0,0,0-.007,0-.01-.022-.036-2.18-3.685.087-6.057a.149.149,0,0,0-.216-.207c-1.947,2.036-.867,4.911-.351,5.988a59.9,59.9,0,0,0-6.923-3.542.148.148,0,0,0-.05-.039,3.113,3.113,0,0,0-.34-.127,29.322,29.322,0,0,0-9.211-2.363.149.149,0,1,0-.019.3,27.281,27.281,0,0,1,7.684,1.776,13.591,13.591,0,0,0-7.475,1.894.149.149,0,0,0,.081.281.142.142,0,0,0,.06-.017c4.8-2.57,8-1.839,8.859-1.558a72.736,72.736,0,0,1,13.591,7.822,15.958,15.958,0,0,0-13.056,1.739.149.149,0,0,0,.16.252,15.7,15.7,0,0,1,13.734-1.392A144.934,144.934,0,0,1,61.038,2005.4c-1.922-.563-7.56-1.78-12.058,1.6a.149.149,0,0,0,.179.239c5.128-3.854,11.8-1.578,12.4-1.358q.523.483.983.917c-1.813-.475-8.619-1.961-13.2,1.071a.149.149,0,1,0,.165.249c5.178-3.427,13.324-.932,13.406-.907a.146.146,0,0,0,.055.007s.008,0,.013-.005c1.523,1.445,2.411,2.353,2.456,2.4a.149.149,0,1,0,.214-.208c-.057-.059-1.488-1.52-3.86-3.714" transform="translate(-22.569 -1820.362)" fill="#006368"/>
    <path id="Path_70887" data-name="Path 70887" d="M514.913,1682.413c-1.246-3.669-3.864-5.122-4.745-10.271s-3.56-8.812-7.117-8.735-6,5.975-4.148,8.828-2.823,4.837-2.6,10.225,3.7,5.705,2.551,9.789-12.78,8.519,6.072,22.456c0,0,9.251-5.666,9.52-11.154s-3.833-5.657-1.7-9.72,3.421-7.749,2.175-11.418" transform="translate(-453.538 -1526.275)" fill="#1fa47c"/>
    <path id="Path_70888" data-name="Path 70888" d="M541.537,1697.932c-2.772-.5-4.569,1.992-5.18,3.016a60.061,60.061,0,0,0-.876-7.731.15.15,0,0,0,0-.063,3.164,3.164,0,0,0-.082-.354,29.383,29.383,0,0,0-3.123-8.988.149.149,0,1,0-.259.149,27.334,27.334,0,0,1,2.767,7.391,13.6,13.6,0,0,0-5.708-5.188.149.149,0,0,0-.189.222.151.151,0,0,0,.048.041c4.794,2.585,5.952,5.655,6.193,6.528a72.873,72.873,0,0,1,1,15.658,15.979,15.979,0,0,0-8.664-9.928.149.149,0,0,0-.122.273,15.728,15.728,0,0,1,8.749,10.686,145.189,145.189,0,0,1-1.651,16.3c-.594-1.914-2.7-7.289-8-9.173a.149.149,0,0,0-.1.282c6.044,2.147,7.833,8.967,7.985,9.594-.076.469-.149.912-.22,1.327-.607-1.775-3.131-8.273-8.187-10.417a.149.149,0,0,0-.116.275c5.715,2.425,8.14,10.6,8.164,10.68a.149.149,0,0,0,.025.049s.008,0,.011.008c-.362,2.069-.627,3.311-.64,3.374a.149.149,0,1,0,.292.064c.018-.081.444-2.081.959-5.272a.148.148,0,0,0,.016-.1c.312-1.937.654-4.3.959-6.944a.144.144,0,0,0,.013-.018,11.116,11.116,0,0,1,4.937-4.862.149.149,0,0,0-.117-.275,11.038,11.038,0,0,0-4.748,4.4c.311-2.818.571-5.919.7-9.121a.149.149,0,0,0,.029-.114s-.007-.039-.02-.1c.1-2.666.119-5.4,0-8.094,0,0,0-.005.007-.009.018-.039,1.864-3.855,5.092-3.274a.149.149,0,0,0,.053-.294" transform="translate(-482.411 -1544.929)" fill="#008e68"/>
    <path id="Path_70889" data-name="Path 70889" d="M117.807,1639.623c-.258-5.982-1.215-10.99-5.025-14.314s-7.716-3.245-12.084-8.479-9.791-7.61-13.755-5.189-2.856,10.679,1.1,12.685-.018,7.312,3.759,13.249,7.913,4.011,9.292,9.374-8.844,18,21.563,21.361c0,0,6.73-12.464,3.438-18.835s-8.032-3.871-8.29-9.853" transform="translate(-77.509 -1477.905)" fill="#3ecaa1"/>
    <path id="Path_70890" data-name="Path 70890" d="M138.92,1689.961a.194.194,0,0,0-.047-.123c-.918-2.391-2.08-5.286-3.467-8.466a.183.183,0,0,0,0-.028c0-.05-.36-5.04,2.388-8.727a.195.195,0,1,0-.312-.233,14.417,14.417,0,0,0-2.479,8.076c-1.5-3.385-3.233-7.055-5.182-10.755a.2.2,0,0,0-.043-.148s-.033-.039-.087-.1c-1.628-3.078-3.4-6.171-5.308-9.132,0-.005,0-.009,0-.014,0-.055-.421-5.574,3.6-7.036a.195.195,0,0,0-.133-.366c-3.455,1.256-3.852,5.245-3.871,6.8a78.326,78.326,0,0,0-6.054-8.151.19.19,0,0,0-.036-.074,4.089,4.089,0,0,0-.324-.346,38.314,38.314,0,0,0-9.412-8.1.2.2,0,0,0-.195.339,35.629,35.629,0,0,1,7.965,6.526c-1.79-1.072-4.915-2.268-9.841-2.11a.2.2,0,1,0,.012.39c7.1-.228,10.422,2.478,11.266,3.3a95.034,95.034,0,0,1,11.383,17.018,20.834,20.834,0,0,0-16.282-5.521.2.2,0,1,0,.041.388,20.507,20.507,0,0,1,16.874,6.32,189.445,189.445,0,0,1,8.818,19.486c-1.924-1.771-7.817-6.458-15.035-5.106a.195.195,0,1,0,.072.383c8.228-1.542,14.715,4.981,15.3,5.59.222.578.429,1.127.621,1.642-1.847-1.605-8.953-7.283-16.064-6.386a.2.2,0,0,0,.049.387c8.039-1.013,16.13,6.621,16.211,6.7a.193.193,0,0,0,.06.039c.006,0,.012,0,.018,0,.947,2.572,1.462,4.148,1.487,4.228a.2.2,0,1,0,.371-.12c-.033-.1-.863-2.64-2.371-6.58" transform="translate(-97.177 -1507.568)" fill="#429da0"/>
    <path id="Path_70891" data-name="Path 70891" d="M1471.238,224.628H1334.1a9.6,9.6,0,0,0-9.6,9.6V324.98a9.606,9.606,0,0,0,9.6,9.609h137.274a9.608,9.608,0,0,0,9.463-9.608V234.233a9.6,9.6,0,0,0-9.6-9.6" transform="translate(-1215.397 -206.11)" fill="#d1d2ff"/>
    <path id="Path_70894" data-name="Path 70894" d="M1471.237,224.622H1334.1a9.6,9.6,0,0,0-9.6,9.6v4.491h156.337v-4.491a9.6,9.6,0,0,0-9.6-9.6" transform="translate(-1215.395 -206.104)" fill="#2e3192"/>
    <path id="Path_70895" data-name="Path 70895" d="M1430.558,289.289a2.015,2.015,0,1,0,2.013,2.015,2.014,2.014,0,0,0-2.013-2.015" transform="translate(-1310.869 -265.44)" fill="#ea5052"/>
    <path id="Path_70896" data-name="Path 70896" d="M1536.466,289.289a2.015,2.015,0,1,0,2.013,2.015,2.014,2.014,0,0,0-2.013-2.015" transform="translate(-1408.052 -265.44)" fill="#ffc83e"/>
    <path id="Path_70897" data-name="Path 70897" d="M1642.374,289.289a2.015,2.015,0,1,0,2.013,2.015,2.014,2.014,0,0,0-2.013-2.015" transform="translate(-1505.236 -265.44)" fill="#3ecaa1"/>
    <path id="Path_70898" data-name="Path 70898" d="M1652.072,549.2h-35.165a7.288,7.288,0,0,0-7.285,7.291v35.193a7.288,7.288,0,0,0,7.285,7.291h35.165a7.288,7.288,0,0,0,7.285-7.291V556.495a7.288,7.288,0,0,0-7.285-7.291" transform="translate(-1477.029 -503.927)" fill="#8f53aa"/>
    <path id="Path_70899" data-name="Path 70899" d="M2422.368,549.2H2387.2a7.288,7.288,0,0,0-7.285,7.291v35.193a7.288,7.288,0,0,0,7.285,7.291h35.165a7.288,7.288,0,0,0,7.285-7.291V556.495a7.288,7.288,0,0,0-7.285-7.291" transform="translate(-2183.872 -503.927)" fill="#8f53aa"/>
    <path id="Path_70900" data-name="Path 70900" d="M1624.05,521.182h-35.165a7.288,7.288,0,0,0-7.285,7.291v35.193a7.288,7.288,0,0,0,7.285,7.291h35.165a7.288,7.288,0,0,0,7.285-7.291V528.473a7.288,7.288,0,0,0-7.285-7.291" transform="translate(-1451.315 -478.216)" fill="#fff"/>
    <path id="Path_70901" data-name="Path 70901" d="M2394.346,521.182h-35.165a7.288,7.288,0,0,0-7.285,7.291v35.193a7.288,7.288,0,0,0,7.285,7.291h35.165a7.288,7.288,0,0,0,7.285-7.291V528.473a7.288,7.288,0,0,0-7.285-7.291" transform="translate(-2158.158 -478.216)" fill="#fff"/>
    <path id="Path_70902" data-name="Path 70902" d="M954.385,2243.459a70.729,70.729,0,0,0,34.109.393l.395-3.4H954.277a9.709,9.709,0,0,0,.108,3.005" transform="translate(-875.607 -2055.75)" fill="#474747"/>
    <path id="Path_70903" data-name="Path 70903" d="M975.395,1899.484l.135-22.808.022-3.756-7.763.545-.219,26.019s-14.014,2.039-13.059,3.735c9.026,4.1,35.556,1.873,34.612,0s-13.728-3.735-13.728-3.735" transform="translate(-875.84 -1718.516)" fill="#7e7e7e"/>
    <path id="Path_70904" data-name="Path 70904" d="M1113.563,1899.484s3.019-19.42,3.385-21.265c.278-1.4,3.187-1.552,4.575-1.544l.022-3.756-7.763.545Z" transform="translate(-1021.833 -1718.516)" fill="#666"/>
    <path id="Path_70905" data-name="Path 70905" d="M1102.379,1742.761a1.732,1.732,0,0,0,1.731,1.732h7.151a1.732,1.732,0,0,0,1.731-1.732V1731.4h-10.613Z" transform="translate(-1011.57 -1588.667)" fill="#3b3348"/>
    <path id="Path_70906" data-name="Path 70906" d="M662.194,771.927s-40.4-3.81-52.7,12.277.7,61.807,21.429,65.617a129.023,129.023,0,0,0,37.089,1.543c19.321-5.927,28.266-19.68,26.509-49.313s-32.333-30.123-32.333-30.123" transform="translate(-554.911 -707.928)" fill="#003d82"/>
    <path id="Path_70907" data-name="Path 70907" d="M687.425,902.1c-18.93,10.47-9.68,35.39.215,44.813s54.9,12.274,63.674-3.979-12.477-42.509-12.477-42.509c-8.6-14.868-32.482-8.8-51.412,1.675" transform="translate(-620.724 -818.044)" fill="#003469"/>
    <path id="Path_70908" data-name="Path 70908" d="M772.895,2089.168l1.014,9.759,8.518-.867-1.014-9.759Z" transform="translate(-709.227 -1916.141)" fill="#fdb698"/>
    <path id="Path_70909" data-name="Path 70909" d="M782.949,2192.3c-.228-.085-9.786-.022-10.032.374a10.042,10.042,0,0,0,.079,2.789l1.716,2.7s6.627.565,7.081.177.968-2.964.968-2.964.416-2.991.188-3.077" transform="translate(-709.164 -2011.534)" fill="#a9e8ff" fill-rule="evenodd"/>
    <path id="Path_70910" data-name="Path 70910" d="M757.792,2229.993s-.891,1.272-1.37,1.413-7.3.1-7.477.04a7.913,7.913,0,0,1-.917-1.368c-.97,2.476-2.473,8.623-2.41,10.89a3.93,3.93,0,0,0,3.044,3.975c1.5.29,9.51-.077,11.072-.937s1.4-4.358,1.024-6.361-2.965-7.652-2.965-7.652" transform="translate(-684.195 -2046.152)" fill="#76c9ff" fill-rule="evenodd"/>
    <path id="Path_70911" data-name="Path 70911" d="M761.035,2319.674c-.067.023-.149.045-.243.067.569-6.146-12.484-7.79-11.911.709a3.739,3.739,0,0,1-1.954-.932,3.8,3.8,0,0,0,2.938,3.055c1.5.29,9.51-.077,11.072-.937.86-.473,1.2-1.747,1.266-3.13a2.313,2.313,0,0,1-1.168,1.167" transform="translate(-685.399 -2123.782)" fill="#5193ff" fill-rule="evenodd"/>
    <path id="Path_70912" data-name="Path 70912" d="M792.308,2292.928a.345.345,0,0,1-.15-.656,10.059,10.059,0,0,1,7.551-.193.345.345,0,0,1-.254.642,9.5,9.5,0,0,0-7,.173.342.342,0,0,1-.15.035" transform="translate(-726.724 -2102.52)" fill="#fff"/>
    <path id="Path_70913" data-name="Path 70913" d="M799.318,2272a.345.345,0,0,1-.184-.638,7.257,7.257,0,0,1,6.637-.155.345.345,0,0,1-.286.628,6.568,6.568,0,0,0-5.986.112.344.344,0,0,1-.182.052" transform="translate(-733.157 -2083.305)" fill="#fff"/>
    <path id="Path_70914" data-name="Path 70914" d="M1414.346,2091.406l8.518.916,1.014-10.307-8.518-.916Z" transform="translate(-1297.839 -1909.533)" fill="#fdb698"/>
    <path id="Path_70915" data-name="Path 70915" d="M1407.753,2179.951c-.228.09.188,3.25.188,3.25s.514,2.72.968,3.129,7.081-.187,7.081-.187l1.716-2.853a11.19,11.19,0,0,0,.079-2.945c-.245-.418-9.8-.485-10.031-.395" transform="translate(-1291.726 -2000.203)" fill="#a9e8ff" fill-rule="evenodd"/>
    <path id="Path_70916" data-name="Path 70916" d="M1383.771,2221.293c-.175.059-7,.105-7.477-.042s-1.37-1.492-1.37-1.492-2.584,5.966-2.965,8.081-.538,5.81,1.024,6.718,9.574,1.295,11.072.989a4.106,4.106,0,0,0,3.045-4.2c.062-2.395-1.44-8.886-2.41-11.5a8.4,8.4,0,0,1-.917,1.445" transform="translate(-1258.709 -2036.76)" fill="#76c9ff" fill-rule="evenodd"/>
    <path id="Path_70917" data-name="Path 70917" d="M1373.276,2314.538c-.095-.023-.177-.047-.243-.071a2.381,2.381,0,0,1-1.168-1.232c.068,1.461.406,2.806,1.266,3.305,1.561.908,9.574,1.3,11.072.989a3.919,3.919,0,0,0,2.938-3.226,3.666,3.666,0,0,1-1.953.984c.573-8.976-12.479-7.239-11.911-.749" transform="translate(-1258.857 -2118.744)" fill="#5193ff" fill-rule="evenodd"/>
    <path id="Path_70918" data-name="Path 70918" d="M1423.1,2286.322a.35.35,0,0,1-.161-.039,9.051,9.051,0,0,0-6.977-.182.355.355,0,0,1-.274-.655,9.605,9.605,0,0,1,7.572.2.355.355,0,0,1-.161.671" transform="translate(-1298.869 -2096.399)" fill="#fff"/>
    <path id="Path_70919" data-name="Path 70919" d="M1426.818,2264.213a.35.35,0,0,1-.195-.059,6.243,6.243,0,0,0-5.963-.118.355.355,0,0,1-.307-.64,6.948,6.948,0,0,1,6.66.166.355.355,0,0,1-.2.65" transform="translate(-1303.167 -2076.104)" fill="#fff"/>
    <path id="Path_70920" data-name="Path 70920" d="M702.571,984.4l6.014-.31,6.191-.62,2.557-10.577-11.078-3.706Z" transform="translate(-644.696 -889.288)" fill="#fdb698"/>
    <path id="Path_70921" data-name="Path 70921" d="M1380.47,907.1l.753,24.185,11.807.383c.583-18.275-2.2-24.819-2.2-24.819Z" transform="translate(-1266.754 -832.093)" fill="#fdb698"/>
    <path id="Path_70922" data-name="Path 70922" d="M783.792,660.244c-3.867-1.646-12.8-3.873-16.619-4.79-1.107-.265-1.784-.421-1.784-.421s-7.067,5.82-13.126.962c0,0-.812.278-1.982.671-2.15.721-5.512,1.832-7.28,2.322-2.733.757-9.17,2.638-11.624,5.977s-5.331,18.523-5.331,18.523,2.764,1.034,5.834,2.094c3.256,1.123,6.855,2.275,7.868,2.25,0,0,.587-4,1.02-3.282.189.313.349,1.52.418,4.34.04,1.561-1.984,25.423-1.984,25.423s3.714,7.394,6.49,8.017,14.8,3.735,23.008,1.811a19.033,19.033,0,0,0,11.8-8.664s-1.13-14.684-1.094-17.979c.018-1.725,1.262-11.436,1.262-11.436h0a48.223,48.223,0,0,0,7.332.7c2.566.02,5.178-.265,6.674-1.289,0,0-5.893-23.106-10.881-25.229" transform="translate(-666.238 -601.032)" fill="#dbdcff"/>
    <path id="Path_70923" data-name="Path 70923" d="M947.2,1130.142q-.49-.06-.991-.131s.346.071.991.131" transform="translate(-868.261 -1036.853)" fill="#c8176b"/>
    <path id="Path_70924" data-name="Path 70924" d="M958.236,1011.218c21.647,2.652,26.746-10.816,26.746-10.816-12.414,11.141-23.458,11.122-26.746,10.816" transform="translate(-879.301 -917.929)" fill="#7e81e7"/>
    <path id="Path_70925" data-name="Path 70925" d="M1035.179,655.033s-7.067,5.82-13.126.962c0,0-.812.278-1.982.671-.546,7.768,12.851,6.7,15.466,4.044,1.479-1.505,1.484-3.937,1.426-5.256-1.107-.265-1.784-.421-1.784-.421" transform="translate(-936.028 -601.032)" fill="#fff"/>
    <path id="Path_70926" data-name="Path 70926" d="M670.03,1116.045c.016-.047-.02-.093-.081-.1a.143.143,0,0,0-.121.035.09.09,0,0,0-.02.032c-.364,1.036.711,2.572.756,2.637a.132.132,0,0,0,.155.031.081.081,0,0,0,.049-.119c-.011-.015-1.08-1.543-.739-2.512" transform="translate(-614.564 -1023.942)" fill="#bb5151"/>
    <path id="Path_70927" data-name="Path 70927" d="M979.993,1387.6c-.087.054-8.8,5.357-16.386,4.971-6.891-.345-14.366-3.087-15.811-3.64.294-.187,1.091-.458,3.021.029,2.612.659,10.559,2.668,16.811.511a.166.166,0,0,0,.111-.223.207.207,0,0,0-.255-.1c-6.127,2.113-13.979.13-16.558-.522-2.986-.754-3.581.181-3.639.29a.153.153,0,0,0-.006.133.185.185,0,0,0,.1.1c.084.034,8.5,3.383,16.2,3.768.408.02.819.025,1.231.015,7.408-.179,15.32-5,15.4-5.048a.159.159,0,0,0,.048-.24.216.216,0,0,0-.274-.042" transform="translate(-869.237 -1273.175)" fill="#e7e7f2"/>
    <path id="Path_70928" data-name="Path 70928" d="M699.984,1365.828c-4.334-2.484-7.916-4.293-10.461-5.5-2.713-1.286-4.245-1.886-4.245-1.886l-34.807.73-6.051-1.35s-9.546,5.313-13.349,7.5c-.11,0-.17,0-.17,0-3.384,1.062-5.458,2.458-6.683,4.342-1.556,2.391-1.746,5.565-1.514,9.83.414,7.625,8.006,42.964,8.006,42.964,10.077,2.541,17.117-1.816,17.117-1.816l-2.761-35.7s.045-.07.117-.209c4.516-1.64,12.085-5.706,17.665-6.167,6.9-.57,24.351,6.464,24.351,6.464l-1.459,36a22.029,22.029,0,0,0,14.9.323s8.865-34.219,8.5-42.1-.571-10.438-9.15-13.423" transform="translate(-571.334 -1245.885)" fill="#7d393a"/>
    <path id="Path_70929" data-name="Path 70929" d="M877.224,1588.641l1.472,3.207s.045-.07.117-.209c4.516-1.64,12.085-5.706,17.665-6.167,6.9-.57,24.351,6.463,24.351,6.463l.893-4.713s-18.425-3.531-22.876-3.885-21.622,5.3-21.622,5.3" transform="translate(-804.962 -1452.792)" fill="#61302b"/>
    <path id="Path_70930" data-name="Path 70930" d="M668.249,1359.173l-6.051-1.35s-9.546,5.313-13.349,7.5c-.11,0-.17,0-.17,0-3.384,1.062-5.458,2.458-6.683,4.342,8.838-1.808,22.86-1.487,34.885-1.258,14.959.285,22.6-.285,23.9-4.562.752-2.473,3.953-3.278,6.518-3.516-2.713-1.286-4.245-1.886-4.245-1.886Z" transform="translate(-589.112 -1245.884)" fill="#61302b"/>
    <path id="Path_70931" data-name="Path 70931" d="M962.759,1144.2l-23.371,8.232-16.7,1.322,1.432,7.193,7.954.311,7.97-2.87s28.26-2.375,31.095-4.977,2.472-6.609.735-14Z" transform="translate(-846.684 -1045.475)" fill="#fdb698"/>
    <path id="Path_70932" data-name="Path 70932" d="M685.536,1330.674c-1.229-.584-7-.545-7-.545l-2.012,1.538s2.887.373,2.532.659c-2.13,1.719-8.771,3.643-8.771,3.643l-.736,3.614c.641.1,3.258,1.523,5.138.863.885-.311,3.343.151,4.174-.259l9.359-4.617,5.385-.927-3.326-1.665Z" transform="translate(-614.391 -1220.473)" fill="#fdb698"/>
    <path id="Path_70933" data-name="Path 70933" d="M586.686,1140.407c-1.479-.061-14.185-.727-14.185-.727l-7.058-23.183a1.64,1.64,0,0,0-1.6-1.081H526.956a1.439,1.439,0,0,0-1.535,1.646l4.383,20.75.425,2.014a2.419,2.419,0,0,0,2.442,1.78h55.8a1.8,1.8,0,0,0-1.78-1.2" transform="translate(-482.111 -1023.461)" fill="#eedc49"/>
    <path id="Path_70934" data-name="Path 70934" d="M526.956,1115.416a1.439,1.439,0,0,0-1.535,1.646l4.383,20.75c2.6-.319,7.288-1.366,13.722-4.7,7.608-3.938,7.24-13.208,6.551-17.7Z" transform="translate(-482.111 -1023.461)" fill="#eee677"/>
    <path id="Path_70935" data-name="Path 70935" d="M980.353,1115.416h-1.058a7.884,7.884,0,0,1,1.006,2.024c.889,2.482,6.844,22.24,6.844,22.24h1.87l-7.058-23.183a1.64,1.64,0,0,0-1.6-1.081" transform="translate(-898.625 -1023.461)" fill="#de9130"/>
    <path id="Path_70936" data-name="Path 70936" d="M739.2,1231.93a5.028,5.028,0,0,1-3.8-7.818,3.943,3.943,0,0,1,2.663-1.625,4.989,4.989,0,0,1,4.355,7.78,3.935,3.935,0,0,1-3.215,1.663m-1.07-8.942a3.441,3.441,0,0,0-2.324,1.42,4.485,4.485,0,0,0,3.875,6.982,3.443,3.443,0,0,0,2.324-1.42,4.485,4.485,0,0,0-3.875-6.982" transform="translate(-674.028 -1121.67)" fill="#e69a29"/>
    <path id="Path_70937" data-name="Path 70937" d="M657.2,1378.283c-.793-.344-1.641,3.877-1.641,3.877s.034-3.683-.526-4.126c-.855-.677-1.891,4.239-1.891,4.239s-1.134-4.614-2.184-4.748-.3,4.627-.3,4.627-2.493-5.045-3.284-5.1.975,4.819.975,4.819c.667,1.732,2.138.517,2.138.517.924,1.233,2.94.577,2.94.577.646.469,1.533.021,1.84.213a1.925,1.925,0,0,0,1.861-.061s.87-4.49.077-4.834" transform="translate(-593.858 -1263.527)" fill="#fdb698"/>
    <path id="Path_70938" data-name="Path 70938" d="M802.175,864.152s-1.205,7.844-5.305,13.31c3.256,1.123,6.855,2.275,7.868,2.25,0,0,.587-4,1.02-3.282l0-.083Z" transform="translate(-731.228 -792.911)" fill="#7e81e7"/>
    <path id="Path_70939" data-name="Path 70939" d="M1389.743,858.949c-1.762,6.342-1.284,14.219-1.284,14.219h0a48.227,48.227,0,0,0,7.332.7c-4.16-3.781-6.049-14.918-6.049-14.918" transform="translate(-1274.03 -788.137)" fill="#7e81e7"/>
    <path id="Path_70940" data-name="Path 70940" d="M1042.453,536.706l-1.829,11.548s1.43,4.223,7.807,3.846a7.014,7.014,0,0,0,5.557-2.832l-1.422-8.8Z" transform="translate(-954.902 -492.46)" fill="#faba97"/>
    <path id="Path_70941" data-name="Path 70941" d="M1048.975,541.5a19.859,19.859,0,0,1-3.767-3.771l-2.755-1.026-1.829,11.549a4.941,4.941,0,0,0,1.923,2.393c-1.219-1.962-.855-6.293,4.939-7.855.625-.168,4.766,2.618,5.865,2.54l-.318-1.964a10.89,10.89,0,0,1-4.06-1.865" transform="translate(-954.903 -492.46)" fill="#f5927e"/>
    <path id="Path_70942" data-name="Path 70942" d="M1232.486,487.018a.921.921,0,0,0-.854,1.012l-.757,3.842a1.973,1.973,0,0,0,2.219-.457,3.379,3.379,0,0,0,.868-2.208,2.67,2.67,0,0,0-.262-1.455,1.354,1.354,0,0,0-1.214-.735" transform="translate(-1129.481 -446.866)" fill="#faba97"/>
    <path id="Path_70943" data-name="Path 70943" d="M1050.223,379.65c-1.974,2.108-1.49,7.747-.81,10.217a32.267,32.267,0,0,0,2.939,6.338c.854,1.325,10.048,1.853,12.181.476s-.411-18.063-.411-18.063c-1.7-2.637-11.925-1.076-13.9,1.032" transform="translate(-962.423 -346.13)" fill="#faba97"/>
    <path id="Path_70944" data-name="Path 70944" d="M1023.682,323.777c-4.613-1.423-9.521-.849-13.107,2.71a4.8,4.8,0,0,0-1.388,2.149,3.865,3.865,0,0,1-.4,1.336c-.25.356-.678.545-.969.867a2.815,2.815,0,0,0-.56,1.483,17.227,17.227,0,0,0,.412,7.856,27.046,27.046,0,0,0,1.119,2.809,2.441,2.441,0,0,0,.943,1.271c.476.251,1.223.01,1.247-.528a14.075,14.075,0,0,0,3.809,4.6c1.69,1.183,6.821,2.616,8.875,2.426,5.047-.465,5.505-5.229,5.165-6.99-.3-1.563-.827-3.682-2.046-4.784-.18.626.169,2.547-.917,2.8-1.3.308-3.847.03-5.172.18a9.031,9.031,0,0,1-4.671-.653,5.831,5.831,0,0,1-2.724-2.762,6.546,6.546,0,0,1-.515-1.826,10.054,10.054,0,0,1-.205-4.09.636.636,0,0,1,.1-.247.643.643,0,0,1,.2-.154c2.036-1.168,4.108-.513,6.244-.081a41.8,41.8,0,0,0,7.379.6c1.413.031,3.186-.173,3.649-1.51a2.743,2.743,0,0,0-.076-1.676c-.869-2.864-3.534-4.9-6.393-5.786" transform="translate(-924.045 -296.423)" fill="#00275c"/>
    <path id="Path_70945" data-name="Path 70945" d="M1088.5,423.05a2.579,2.579,0,0,1-1.058.844,6.44,6.44,0,0,1-1.341.511,9.165,9.165,0,0,1-2.843.239,21.618,21.618,0,0,1-2.979-.435c-1.048-.208-2.1-.43-3.16-.536a11.667,11.667,0,0,0-1.567-.062,4.216,4.216,0,0,0-1.445.275,3.16,3.16,0,0,0-.321.151c-.04.021,0,.079.035.06a3.868,3.868,0,0,1,1.471-.329,10.024,10.024,0,0,1,1.561.06c1.074.113,2.13.343,3.187.557a24.28,24.28,0,0,0,3.028.472,9.692,9.692,0,0,0,2.872-.178,6.882,6.882,0,0,0,1.384-.475,3.062,3.062,0,0,0,1.131-.792,1.739,1.739,0,0,0,.184-.281.081.081,0,0,0-.14-.082" transform="translate(-985.315 -388.137)" fill="#00275c"/>
    <path id="Path_70946" data-name="Path 70946" d="M1254.969,526.059a5.311,5.311,0,0,0-1.158-1.544c-.06-.054-.122-.107-.185-.158-.042-.034-.1.022-.061.061a5.87,5.87,0,0,1,1.152,1.487,6.177,6.177,0,0,1,.636,1.832,7.254,7.254,0,0,1,.051,2.185,5.915,5.915,0,0,1-.47,1.784,3.026,3.026,0,0,1-.429.684,2.271,2.271,0,0,1-.6.5,1.82,1.82,0,0,1-.18.091c-.1.046-.03.215.078.184a1.6,1.6,0,0,0,.394-.17,2.18,2.18,0,0,0,.338-.261,2.707,2.707,0,0,0,.51-.685,5.328,5.328,0,0,0,.539-1.783,7.715,7.715,0,0,0,.005-2.268,6.34,6.34,0,0,0-.619-1.934" transform="translate(-1150.291 -481.119)" fill="#00275c"/>
    <path id="Path_70947" data-name="Path 70947" d="M1176.693,568.25l-3.492.113a.143.143,0,0,0-.147.163,1.966,1.966,0,0,0,2.118,1.858c1.657.083,1.662-1.581,1.635-2.023a.117.117,0,0,0-.114-.11" transform="translate(-1076.422 -521.403)" fill="#fff"/>
    <path id="Path_70948" data-name="Path 70948" d="M1031.9,499.695a1.573,1.573,0,0,0-.614.714,3.512,3.512,0,0,0,1.242,4.378c.915.572,2.2.71,2.535-.563a2.057,2.057,0,0,0,.036-.66c-.563-1.874-1.6-4.74-3.2-3.868" transform="translate(-946.04 -458.352)" fill="#faba97"/>
    <path id="Path_70949" data-name="Path 70949" d="M1044.313,514.975c-.4-.33.275-.776.249-.948a1.258,1.258,0,0,0-.9-1.085c-.531-.115-.527,1-.527,1l1.613,2.731c.638.138.676-.656.442-1.018s-.481-.349-.877-.679" transform="translate(-957.206 -470.647)" fill="#faba97"/>
    <path id="Path_70950" data-name="Path 70950" d="M1006.953,442.008a1.27,1.27,0,0,1-.249.031,1.986,1.986,0,0,1-.245.005,1.453,1.453,0,0,1-.434-.094l-.052-.021h0l-.006,0-.026-.012q-.054-.025-.106-.053a2.271,2.271,0,0,1-.2-.128l-.078-.057,0,0,0,0-.017-.014-.023-.019-.05-.042c-.064-.056-.126-.115-.184-.176a4.032,4.032,0,0,1-.609-.85,7.476,7.476,0,0,1-.463-1.008,11.957,11.957,0,0,1-.547-1.92,13.28,13.28,0,0,1-.181-3.7,18.651,18.651,0,0,1,.716-3.676q.064-.217.133-.433c.026-.08-.1-.111-.125-.034a16.6,16.6,0,0,0-.906,3.714,13.866,13.866,0,0,0,.051,3.807,11.891,11.891,0,0,0,.536,2.124,6.408,6.408,0,0,0,1.081,2.029,2.406,2.406,0,0,0,.789.637,1.687,1.687,0,0,0,.992.153c.089-.015.172-.044.258-.067a.1.1,0,0,0-.052-.189" transform="translate(-920.553 -394.328)" fill="#00275c"/>
    <path id="Path_70951" data-name="Path 70951" d="M1036.9,577.392c-.019-.008.019.009,0,0" transform="translate(-951.476 -529.789)" fill="#00275c"/>
    <path id="Path_70952" data-name="Path 70952" d="M1031.824,574.333l0,0,0,0" transform="translate(-946.825 -526.983)" fill="#00275c"/>
    <path id="Path_70953" data-name="Path 70953" d="M1115.338,419.024h0" transform="translate(-1023.448 -384.48)" fill="#345885"/>
    <path id="Path_70954" data-name="Path 70954" d="M1118.473,417.991l-.005,0,.005,0" transform="translate(-1026.333 -383.53)" fill="#345885"/>
    <path id="Path_70955" data-name="Path 70955" d="M1117.651,418.471l-.009,0,.009,0" transform="translate(-1025.576 -383.972)" fill="#345885"/>
    <path id="Path_70956" data-name="Path 70956" d="M1055.021,398.2a.544.544,0,0,1-.043.141.27.27,0,0,1-.073.1c-.02.018-.039.037-.06.053l-.005,0,.005,0-.01.007-.037.022-.025.012.008,0-.008,0-.028.009-.062.016-.054.011-.044.007h0c-.038,0-.075.008-.113.009a1.774,1.774,0,0,1-.266-.013h-.009l-.014,0,.014,0-.023,0-.07-.012q-.073-.013-.144-.03c-.1-.023-.2-.052-.3-.083a4.823,4.823,0,0,1-.579-.236c-.4-.185-.777-.4-1.156-.617-.332-.19-.661-.383-1.008-.543a2.992,2.992,0,0,0-.918-.3,1.332,1.332,0,0,0-.855.181.033.033,0,0,0,.034.057,1.247,1.247,0,0,1,.811-.033,4.291,4.291,0,0,1,.8.288c.354.17.691.369,1.031.566.386.224.775.445,1.179.635a4.339,4.339,0,0,0,1.207.408,1.5,1.5,0,0,0,.622-.022.555.555,0,0,0,.349-.273.512.512,0,0,0,.058-.211.277.277,0,0,0-.092-.2.069.069,0,0,0-.117.049" transform="translate(-962.705 -364.036)" fill="#345885"/>
    <path id="Path_70957" data-name="Path 70957" d="M1110.483,418.957l-.014,0,.014,0" transform="translate(-1018.994 -384.416)" fill="#345885"/>
    <path id="Path_70958" data-name="Path 70958" d="M1054.6,390.361a2.265,2.265,0,0,1-.329-.037c-.111-.02-.223-.024-.334-.042a4.491,4.491,0,0,1-.664-.17,9.233,9.233,0,0,1-1.234-.545,6.026,6.026,0,0,0-1.237-.491,3.563,3.563,0,0,0-1.268-.083,3.737,3.737,0,0,0-1.367.436c-.071.039-.009.142.063.108a3.806,3.806,0,0,1,2.451-.286,15.941,15.941,0,0,1,2.44,1.055,3.191,3.191,0,0,0,.733.205,1.425,1.425,0,0,0,.379.025,2.234,2.234,0,0,0,.379-.085.046.046,0,0,0-.012-.09" transform="translate(-961.791 -356.902)" fill="#345885"/>
    <path id="Path_70959" data-name="Path 70959" d="M1067.426,368.007c-.087.065-.173.126-.254.2-.039.035-.079.072-.115.11s-.07.09-.113.128a2.153,2.153,0,0,1-.557.352c-.1.047-.206.1-.312.141a1.565,1.565,0,0,0-.142.078.756.756,0,0,1-.17.054q-.163.042-.328.069a2.076,2.076,0,0,1-.4.018c-.278-.007-.556.008-.835-.005s-.555-.067-.832-.105-.554-.084-.829-.131-.553-.085-.823-.152c-.546-.135-1.1-.229-1.655-.328s-1.1-.169-1.655-.224c-.274-.027-.549-.06-.824-.067q-.356-.01-.712.005a9.45,9.45,0,0,0-1.415.179,6.981,6.981,0,0,0-1.374.381c-.214.09-.422.191-.626.3a3.38,3.38,0,0,0-.581.366c-.09.075-.185.143-.275.218-.012.01,0,.032.018.023.192-.136.4-.25.6-.366a5.244,5.244,0,0,1,.651-.313,8.506,8.506,0,0,1,1.36-.416,6.773,6.773,0,0,1,.707-.11c.238-.025.474-.027.712-.036a14.883,14.883,0,0,1,1.514.031c.559.035,1.115.128,1.668.217q.413.067.823.147c.274.054.547.114.823.155.557.082,1.1.217,1.658.317a7.883,7.883,0,0,0,.835.1c.283.02.565.048.85.041a2.248,2.248,0,0,0,.41-.066c.117-.025.235-.044.353-.069s.218-.051.325-.083a.842.842,0,0,1,.159-.025.728.728,0,0,0,.169-.049,2.926,2.926,0,0,0,.6-.318c.092-.061.176-.132.266-.194a.989.989,0,0,0,.254-.23.966.966,0,0,0,.139-.287c.012-.039-.038-.083-.073-.056" transform="translate(-965.89 -337.661)" fill="#345885"/>
    <path id="Path_70960" data-name="Path 70960" d="M1073.623,378.763c-.125-.05-.245-.11-.369-.162-.251-.106-.511-.194-.768-.284a11.165,11.165,0,0,0-1.508-.414,8.231,8.231,0,0,0-1.57-.149c-.258,0-.517.008-.775.017s-.516.028-.773.061q-.43.056-.856.147-.217.047-.432.1a3.851,3.851,0,0,0-.421.145.023.023,0,0,0,.012.044c.13-.027.261-.048.39-.079s.246-.057.369-.082q.381-.077.768-.124a9.012,9.012,0,0,1,1.547-.075,11.38,11.38,0,0,1,3.023.555c.286.1.566.206.853.3.143.045.292.074.437.11a3.785,3.785,0,0,0,.431.078.019.019,0,0,0,.01-.035c-.123-.052-.245-.106-.369-.155" transform="translate(-978.312 -346.613)" fill="#345885"/>
    <path id="Path_70961" data-name="Path 70961" d="M1067.639,335.971c-.025-.051-.092-.019-.1.026s-.019.091-.021.137,0,.1-.005.154a1.088,1.088,0,0,1-.067.269,1.266,1.266,0,0,1-.131.251c-.054.082-.094.174-.156.251a1.206,1.206,0,0,1-.544.287,3.934,3.934,0,0,1-.614.181,8.394,8.394,0,0,1-1.366.148c-.477.02-.955.013-1.432,0s-.956-.034-1.434-.042-.959.008-1.436.04a8.838,8.838,0,0,0-2.755.705,8.556,8.556,0,0,0-1.114.521,2.337,2.337,0,0,0-.816.731,1.665,1.665,0,0,0-.122.241c-.025.061.077.1.106.045a3.164,3.164,0,0,1,1.837-1.291,12.264,12.264,0,0,1,1.359-.453,8.5,8.5,0,0,1,1.4-.238c.238-.021.476-.045.716-.049s.487,0,.731,0c.482,0,.964.017,1.445.027a13.748,13.748,0,0,0,2.848-.147,2.877,2.877,0,0,0,.625-.179,1.293,1.293,0,0,0,.28-.161,2.565,2.565,0,0,0,.223-.2c.071-.07.158-.125.233-.189a.848.848,0,0,0,.188-.232,1.313,1.313,0,0,0,.175-.555.467.467,0,0,0,0-.142.7.7,0,0,0-.054-.131" transform="translate(-968.575 -308.249)" fill="#345885"/>
    <path id="Path_70962" data-name="Path 70962" d="M1226.616,613.463l0,0,0,0" transform="translate(-1125.57 -562.886)" fill="#345885"/>
    <path id="Path_70963" data-name="Path 70963" d="M1225.882,612.688s0,0,0,0,0,0,0,0" transform="translate(-1124.898 -562.175)" fill="#345885"/>
    <path id="Path_70964" data-name="Path 70964" d="M1226.009,612.82v0c-.008-.007.017.016,0,0" transform="translate(-1125.013 -562.296)" fill="#345885"/>
    <path id="Path_70965" data-name="Path 70965" d="M1238.426,586.063l-.005.008.005-.008" transform="translate(-1136.406 -537.747)" fill="#345885"/>
    <path id="Path_70966" data-name="Path 70966" d="M1223.591,566.427c-.01-.035-.068-.03-.065.009a1.566,1.566,0,0,1-.028.36c-.011.075-.026.149-.042.222s-.026.159-.041.238a3.155,3.155,0,0,1-.12.452,1.189,1.189,0,0,1-.156.318l-.005.008.005-.008-.017.021-.029.03-.069.071-.154.159c-.117.122-.232.245-.343.373a4.172,4.172,0,0,0-.611.863,1.359,1.359,0,0,0-.154.521.383.383,0,0,0,.116.312.308.308,0,0,0,.158.085.2.2,0,0,0,.154-.054.07.07,0,0,0-.014-.108l-.014-.015,0,0,0,0a.38.38,0,0,0-.035-.04l-.014-.012v0c.015.014-.01-.009,0,0l-.009-.01s0,0,0,0,0,0,0,0l-.009-.014-.009-.016,0,.007c0-.009,0-.009,0-.007l-.009-.025c-.006-.018-.012-.035-.017-.053v0c0,.028,0-.008,0,0v0c0-.008,0-.017,0-.025,0-.032,0-.064.008-.1,0,.007,0,.009,0-.008,0,0,0,.005,0,.008s0-.022,0-.028.006-.032.01-.048c.008-.036.018-.073.029-.109s.023-.07.037-.1l.01-.024c0,.009.008-.019,0,0h0l0,0,.028-.062a3.631,3.631,0,0,1,.569-.813c.1-.12.213-.237.323-.352a2.844,2.844,0,0,0,.269-.294,1.949,1.949,0,0,0,.276-.792,2.77,2.77,0,0,0,.039-.276,1.973,1.973,0,0,0,0-.249,1.748,1.748,0,0,0-.067-.4" transform="translate(-1121.118 -519.709)" fill="#345885"/>
    <path id="Path_70967" data-name="Path 70967" d="M1225.687,612.355l0-.007s0,0,0,.007" transform="translate(-1124.718 -561.865)" fill="#345885"/>
    <path id="Path_70968" data-name="Path 70968" d="M1226.542,605.985h0c.008-.019,0,.009,0,0" transform="translate(-1125.504 -556.021)" fill="#345885"/>
    <path id="Path_70969" data-name="Path 70969" d="M1225.446,609.756s0-.005,0-.008c0,.016,0,.015,0,.008" transform="translate(-1124.498 -559.48)" fill="#345885"/>
    <path id="Path_70970" data-name="Path 70970" d="M1225.349,611.342c0-.008,0,.028,0,0" transform="translate(-1124.409 -560.942)" fill="#345885"/>
    <path id="Path_70971" data-name="Path 70971" d="M1231.208,574.371a2.409,2.409,0,0,1-.318,1.533,3.747,3.747,0,0,1-.528.645c-.187.194-.385.378-.555.588a1.819,1.819,0,0,0-.243.386.743.743,0,0,0-.079.24,1.192,1.192,0,0,0,.007.221c0,.04.064.069.085.023a1.427,1.427,0,0,1,.1-.168,1.678,1.678,0,0,0,.089-.179,3.089,3.089,0,0,1,.206-.342,4.474,4.474,0,0,1,.531-.629,4.1,4.1,0,0,0,.542-.654,2.171,2.171,0,0,0,.3-.76,2.34,2.34,0,0,0-.014-.919c-.015-.067-.131-.054-.122.017" transform="translate(-1128.204 -526.964)" fill="#345885"/>
    <path id="Path_70972" data-name="Path 70972" d="M1113.345,599.991c-.053-.043-.1-.1-.145-.148s-.1-.091-.149-.135a1.07,1.07,0,0,0-.174-.125c-.029-.017-.059-.033-.09-.048a.741.741,0,0,0-.113-.025c-.065-.022-.129-.063-.193-.09s-.131-.048-.194-.079a1.732,1.732,0,0,0-.231-.1,1.489,1.489,0,0,0-.266-.043c-.168-.021-.338-.038-.507-.053a4.605,4.605,0,0,0-.511-.008c-.179,0-.358.01-.537.016-.089,0-.175,0-.264,0s-.182-.01-.274-.008c-.179,0-.358.01-.538.009-.357,0-.716-.012-1.072-.032a5.009,5.009,0,0,1-.522-.063c-.147-.024-.294-.041-.44-.067q-.106-.02-.212-.043c-.074-.016-.148-.024-.222-.038a3.4,3.4,0,0,1-.423-.12,5.023,5.023,0,0,1-.788-.368,3.384,3.384,0,0,1-.37-.224c-.117-.083-.221-.184-.339-.266a1.359,1.359,0,0,1-.167-.147c-.014-.013-.032.006-.021.021a2.621,2.621,0,0,0,.289.326c.107.1.219.186.333.272a3.5,3.5,0,0,0,.752.421c.271.115.55.208.827.307a3.012,3.012,0,0,0,.428.1,4.566,4.566,0,0,0,.473.069c.355.032.713.065,1.069.069.179,0,.358,0,.537,0s.353.01.527,0c.091-.006.183-.021.274-.026s.176,0,.264,0q.266,0,.532.012l.51.016a2.637,2.637,0,0,1,.493.069,2.076,2.076,0,0,0,.254.036.9.9,0,0,1,.219.047c.066.024.13.05.193.08a.192.192,0,0,1,.074.049.389.389,0,0,0,.087.078c.056.038.109.08.166.118a1.053,1.053,0,0,1,.155.123.811.811,0,0,1,.13.144.875.875,0,0,0,.052.1c.02.026.041.059.065.085a.871.871,0,0,0,.148.122c.033.024.073-.009.075-.043a.429.429,0,0,0-.03-.209.441.441,0,0,0-.134-.175" transform="translate(-1013.59 -548.493)" fill="#345885"/>
    <path id="Path_70973" data-name="Path 70973" d="M1117.245,601.864a1.6,1.6,0,0,0-.244-.019c-.085,0-.172,0-.257,0a5.144,5.144,0,0,0-.522.077,6.322,6.322,0,0,1-.946.075c-.316,0-.631-.01-.946-.038a3.467,3.467,0,0,1-.466-.072c-.154-.036-.307-.078-.459-.121q-.254-.072-.5-.166-.126-.047-.249-.1c-.081-.035-.166-.06-.25-.089-.026-.009-.038.028-.018.042a1.551,1.551,0,0,0,.2.127q.106.052.215.1.22.1.447.177a8.066,8.066,0,0,0,.927.24,5.183,5.183,0,0,0,.956.121,5.745,5.745,0,0,0,.971-.061c.191-.026.384-.052.572-.094.1-.022.19-.056.287-.08s.19-.052.285-.082c.016-.005.019-.033,0-.036" transform="translate(-1020.744 -551.829)" fill="#345885"/>
    <path id="Path_70974" data-name="Path 70974" d="M1112.781,603.154c-.011-.032-.024-.063-.038-.093a.3.3,0,0,0-.069-.089.924.924,0,0,1-.119-.123c-.034-.05-.06-.106-.1-.156a.864.864,0,0,0-.335-.254,4.256,4.256,0,0,0-.8-.274c-.279-.071-.563-.125-.847-.174s-.57-.092-.855-.14c-.145-.024-.29-.049-.435-.077s-.285-.044-.424-.08a8.4,8.4,0,0,1-.83-.252,5.615,5.615,0,0,1-.8-.377,6.137,6.137,0,0,1-.774-.489,1.378,1.378,0,0,1-.487-.64.058.058,0,0,0-.112.031c.1.5.585.823.982,1.087a5.913,5.913,0,0,0,1.571.779c.135.04.272.068.409.1s.273.067.411.091c.285.05.571.09.857.131a10.047,10.047,0,0,1,1.674.347,2.622,2.622,0,0,1,.406.164q.1.052.2.107c.063.036.132.062.194.1a.26.26,0,0,1,.108.179c.016.066.045.127.063.194a.68.68,0,0,1,.023.192.785.785,0,0,1-.012.1.4.4,0,0,0,.008.113.053.053,0,0,0,.089.037.338.338,0,0,0,.06-.068.265.265,0,0,0,.025-.1.781.781,0,0,0,0-.192.85.85,0,0,0-.04-.167" transform="translate(-1014.673 -550.439)" fill="#345885"/>
    <path id="Path_70975" data-name="Path 70975" d="M1184.708,477.35a.2.2,0,0,1-.12-.363c.737-.549,1.355-1.212,1.3-1.392-.047-.148-.84-.25-1.753-.155a.2.2,0,0,1-.2-.115,11.39,11.39,0,0,1-.653-3.826.2.2,0,0,1,.2-.2h0a.2.2,0,0,1,.2.2,11.734,11.734,0,0,0,.559,3.528c.65-.056,1.861-.086,2.032.446.093.288-.123.668-.679,1.2a9.383,9.383,0,0,1-.761.643.2.2,0,0,1-.12.04" transform="translate(-1085.803 -432.442)" fill="#de7360"/>
    <path id="Path_70976" data-name="Path 70976" d="M1148.566,490.24a.664.664,0,1,0,.72.472.613.613,0,0,0-.72-.472" transform="translate(-1053.601 -449.807)" fill="#0f1231"/>
    <path id="Path_70977" data-name="Path 70977" d="M1214.844,486.33a.664.664,0,1,0,.72.472.613.613,0,0,0-.72-.472" transform="translate(-1114.42 -446.219)" fill="#0f1231"/>
    <path id="Path_70978" data-name="Path 70978" d="M1136.574,450.162a2.52,2.52,0,0,0-1.7,2.543,6.661,6.661,0,0,1,2.235-1.422c1.24-.422.315-1.2-.535-1.122" transform="translate(-1041.348 -413.046)" fill="#0e0d0b"/>
    <path id="Path_70979" data-name="Path 70979" d="M1197.114,446.829c-.929-.161-2.143,1.044-.842,1.011a4.272,4.272,0,0,1,2.359.739s-.315-1.542-1.517-1.75" transform="translate(-1097.207 -409.978)" fill="#0e0d0b"/>
    <path id="Path_70980" data-name="Path 70980" d="M1114.065,508.019c-1.109-.248-2.136.127-2.295.838s.611,1.489,1.719,1.737,2.136-.127,2.295-.838-.611-1.489-1.719-1.737" transform="translate(-1020.169 -466.068)" fill="#f08372"/>
    <path id="Path_70981" data-name="Path 70981" d="M1234.567,493.427a1.213,1.213,0,0,0,.746,1.19c.088-.37.294-1.223.294-1.223s-.106-1.383-.205-2.048a2.226,2.226,0,0,0-.835,2.081" transform="translate(-1132.867 -450.839)" fill="#f08372"/>
    <path id="Path_70982" data-name="Path 70982" d="M1687.928,653.548h.046l-.1,13.052,22.972.175.1-13.051L1699.5,645.45Z" transform="translate(-1548.836 -592.239)" fill="#84bce2"/>
    <rect id="Rectangle_11503" data-name="Rectangle 11503" width="13.052" height="10.812" transform="translate(162.012 74.536) rotate(-89.564)" fill="#598dcc"/>
    <path id="Path_70983" data-name="Path 70983" d="M1829.13,627.967l11.436,9.715,11.618.089-11.95-9.719Z" transform="translate(-1678.455 -576.198)" fill="#3f59a1"/>
    <path id="Path_70984" data-name="Path 70984" d="M1671.3,637.5l1.419.011,11.571-8.1,11.447,8.274,1.365.01-12.8-9.725Z" transform="translate(-1533.631 -576.197)" fill="#2b3972"/>
    <path id="Path_70985" data-name="Path 70985" d="M1786.1,690.775s-1.443-.8-1.567-.841-1.169-.189-1.169-.189l-1.565.334-1.581,1.065-.757,1.486-.134,1.283,8.073.062-.461-2.026Z" transform="translate(-1632.754 -632.882)" fill="#fff"/>
    <path id="Path_70986" data-name="Path 70986" d="M1779.722,686.352a4.338,4.338,0,0,0-4.365,4.3l0,.28,8.663.066,0-.28a4.338,4.338,0,0,0-4.3-4.368m-3.793,4.026a3.773,3.773,0,0,1,7.525.057Z" transform="translate(-1629.11 -629.768)" fill="#3f6a99"/>
    <rect id="Rectangle_11504" data-name="Rectangle 11504" width="4.2" height="0.559" transform="translate(150.112 61.059) rotate(-89.561)" fill="#3f6a99"/>
    <rect id="Rectangle_11505" data-name="Rectangle 11505" width="0.559" height="7.184" transform="translate(146.999 59.292) rotate(-89.564)" fill="#3f6a99"/>
    <rect id="Rectangle_11506" data-name="Rectangle 11506" width="6.174" height="4.389" transform="translate(154.356 71.577) rotate(-89.563)" fill="#fff"/>
    <path id="Path_70987" data-name="Path 70987" d="M1870.4,796.661l4.948.038.051-6.733-4.948-.038Zm.606-6.169,3.83.029-.043,5.614-3.829-.029Z" transform="translate(-1716.326 -724.806)" fill="#3f6a99"/>
    <rect id="Rectangle_11507" data-name="Rectangle 11507" width="6.174" height="0.559" transform="translate(156.271 71.592) rotate(-89.561)" fill="#3f6a99"/>
    <rect id="Rectangle_11508" data-name="Rectangle 11508" width="0.559" height="4.203" transform="matrix(0.008, -1, 1, 0.008, 154.378, 68.658)" fill="#3f6a99"/>
    <rect id="Rectangle_11509" data-name="Rectangle 11509" width="6.174" height="4.389" transform="translate(141.584 71.48) rotate(-89.563)" fill="#fff"/>
    <path id="Path_70988" data-name="Path 70988" d="M1715.347,795.481l4.948.038.051-6.733-4.948-.038Zm.606-6.17,3.83.029-.043,5.614-3.83-.029Z" transform="translate(-1574.045 -723.723)" fill="#3f6a99"/>
    <rect id="Rectangle_11510" data-name="Rectangle 11510" width="6.174" height="0.559" transform="translate(143.498 71.495) rotate(-89.561)" fill="#3f6a99"/>
    <rect id="Rectangle_11511" data-name="Rectangle 11511" width="0.559" height="4.203" transform="matrix(0.008, -1, 1, 0.008, 141.606, 68.56)" fill="#3f6a99"/>
    <rect id="Rectangle_11512" data-name="Rectangle 11512" width="0.326" height="4.948" transform="matrix(0.008, -1, 1, 0.008, 154.067, 72.878)" fill="#3f6a99"/>
    <rect id="Rectangle_11513" data-name="Rectangle 11513" width="0.326" height="4.948" transform="matrix(0.008, -1, 1, 0.008, 141.294, 72.781)" fill="#3f6a99"/>
    <path id="Path_70989" data-name="Path 70989" d="M1798.069,784.306h-1.707a1.4,1.4,0,0,0-1.4,1.4v8.385h4.507v-8.385a1.4,1.4,0,0,0-1.4-1.4" transform="translate(-1647.102 -719.648)" fill="#3f59a1"/>
    <path id="Path_70990" data-name="Path 70990" d="M1990.627,797.583l4.887.037.054-7.168-4.869-2.458Z" transform="translate(-1826.649 -723.032)" fill="#84bce2"/>
    <path id="Path_70991" data-name="Path 70991" d="M1990.02,787.983l4.992,2.459,4.764.036-4.869-2.458Z" transform="translate(-1826.092 -723.021)" fill="#3f59a1"/>
    <rect id="Rectangle_11514" data-name="Rectangle 11514" width="7.168" height="4.273" transform="translate(168.866 74.588) rotate(-89.564)" fill="#598dcc"/>
    <rect id="Rectangle_11515" data-name="Rectangle 11515" width="0.338" height="4.765" transform="translate(168.917 67.759) rotate(-89.564)" fill="#2b3972"/>
    <path id="Path_70992" data-name="Path 70992" d="M1989.981,788.4l4.993,2.376,0-.338-4.992-2.459Z" transform="translate(-1826.056 -723.021)" fill="#2b3972"/>
    <rect id="Rectangle_11516" data-name="Rectangle 11516" width="6.03" height="2.617" transform="matrix(0.008, -1, 1, 0.008, 169.676, 74.595)" fill="#3f6a99"/>
    <rect id="Rectangle_11517" data-name="Rectangle 11517" width="2.341" height="37.049" transform="matrix(0.008, -1, 1, 0.008, 137.553, 76.7)" fill="#3f5988"/>
    <path id="Path_70993" data-name="Path 70993" d="M2701.279,640.42h12.66l-6.33-12.835Z" transform="translate(-2478.76 -575.846)" fill="#275a8e"/>
    <path id="Path_70994" data-name="Path 70994" d="M2715.263,648.968v11.811h9.392V648.968l-4.7-9.522Z" transform="translate(-2491.593 -586.73)" fill="#84bce2"/>
    <path id="Path_70995" data-name="Path 70995" d="M2747.676,824.959H2746.3v.174h1.905v-4.488h-.528Z" transform="translate(-2520.072 -752.991)" fill="#5192c8"/>
    <rect id="Rectangle_11518" data-name="Rectangle 11518" width="1.378" height="4.314" transform="translate(226.227 67.654)" fill="#fff"/>
    <path id="Path_70996" data-name="Path 70996" d="M2789.161,824.959h-1.377v.174h1.905v-4.488h-.528Z" transform="translate(-2558.14 -752.991)" fill="#86aae7"/>
    <rect id="Rectangle_11519" data-name="Rectangle 11519" width="1.378" height="4.314" transform="translate(229.644 67.654)" fill="#c8e0ff"/>
    <rect id="Rectangle_11520" data-name="Rectangle 11520" width="19.29" height="11.811" transform="translate(204.38 62.238)" fill="#bbd9f5"/>
    <path id="Path_70997" data-name="Path 70997" d="M2507.437,821.7h-.766v4.488h2.768v-.174h-2Z" transform="translate(-2300.184 -753.962)" fill="#5192c8"/>
    <rect id="Rectangle_11521" data-name="Rectangle 11521" width="2.002" height="4.314" transform="translate(207.254 67.741)" fill="#fff"/>
    <path id="Path_70998" data-name="Path 70998" d="M2637.229,821.7h-.766v4.488h2.768v-.174h-2Z" transform="translate(-2419.283 -753.962)" fill="#5192c8"/>
    <rect id="Rectangle_11522" data-name="Rectangle 11522" width="2.002" height="4.314" transform="translate(217.946 67.741)" fill="#fff"/>
    <rect id="Rectangle_11523" data-name="Rectangle 11523" width="3.91" height="6.307" transform="translate(211.262 67.741)" fill="#3f6bb6"/>
    <rect id="Rectangle_11524" data-name="Rectangle 11524" width="2.972" height="5.838" transform="translate(211.731 68.211)" fill="#5192c8"/>
    <rect id="Rectangle_11525" data-name="Rectangle 11525" width="11.997" height="2.933" transform="translate(222.123 74.049)" fill="#275a8e"/>
    <rect id="Rectangle_11526" data-name="Rectangle 11526" width="21.09" height="2.933" transform="translate(201.033 74.049)" fill="#3f6bb6"/>
    <path id="Path_70999" data-name="Path 70999" d="M2829.27,783.967h1.491l.625-.689h-2.116Z" transform="translate(-2596.208 -718.704)" fill="#2d45b2"/>
    <path id="Path_71000" data-name="Path 71000" d="M2467.1,640.42h19.29l6.33-12.835h-19.29Z" transform="translate(-2263.876 -575.846)" fill="#3f6bb6"/>
    <path id="Path_71001" data-name="Path 71001" d="M2467.1,783.277l.688.689h19.29l-.688-.689Z" transform="translate(-2263.876 -718.704)" fill="#275a8e"/>
    <path id="Path_71002" data-name="Path 71002" d="M2701.279,640.42l.688.689,5.642-11.568,5.7,11.568.625-.689-6.33-12.835Z" transform="translate(-2478.76 -575.846)" fill="#275a8e"/>
    <path id="Path_71003" data-name="Path 71003" d="M2531.563,647.449h19.291l.231-.469h-19.291Z" transform="translate(-2323.025 -593.643)" fill="#275a8e"/>
    <path id="Path_71004" data-name="Path 71004" d="M2520.586,669.691h19.29l.232-.469h-19.29Z" transform="translate(-2312.952 -614.051)" fill="#275a8e"/>
    <path id="Path_71005" data-name="Path 71005" d="M2509.608,691.933H2528.9l.231-.469h-19.29Z" transform="translate(-2302.879 -634.459)" fill="#275a8e"/>
    <path id="Path_71006" data-name="Path 71006" d="M2498.631,714.175h19.29l.232-.469h-19.29Z" transform="translate(-2292.806 -654.867)" fill="#275a8e"/>
    <path id="Path_71007" data-name="Path 71007" d="M2487.654,736.417h19.291l.231-.469h-19.29Z" transform="translate(-2282.733 -675.276)" fill="#275a8e"/>
    <path id="Path_71008" data-name="Path 71008" d="M2476.676,758.658h19.29l.231-.469h-19.29Z" transform="translate(-2272.659 -695.684)" fill="#275a8e"/>
    <path id="Path_71009" data-name="Path 71009" d="M2528.448,898.944h-.616v.733h-.674v.733h-.674v.733h6.584V898.21h-4.62Z" transform="translate(-2318.365 -824.161)" fill="#bbd9f5"/>
    <path id="Path_71010" data-name="Path 71010" d="M2579.687,898.944h-.616v.733h-.674v.733h-.674v.733h2.7V898.21h-.733Z" transform="translate(-2365.383 -824.161)" fill="#84bce2"/>
    <path id="Path_71011" data-name="Path 71011" d="M1694.476,990.65l-.96-.14a.407.407,0,0,1-.307-.223l-.43-.871a.407.407,0,0,0-.73,0l-.43.871a.407.407,0,0,1-.307.223l-.961.14a.408.408,0,0,0-.226.7l.7.678a.407.407,0,0,1,.117.361l-.164.957a.407.407,0,0,0,.591.43l.859-.452a.407.407,0,0,1,.379,0l.859.452a.407.407,0,0,0,.591-.43l-.164-.957a.408.408,0,0,1,.117-.361l.7-.678a.408.408,0,0,0-.226-.7" transform="translate(-1550.789 -907.64)" fill="#ffd124"/>
    <path id="Path_71012" data-name="Path 71012" d="M1776.58,990.65l-.961-.14a.407.407,0,0,1-.306-.223l-.43-.871a.407.407,0,0,0-.731,0l-.43.871a.407.407,0,0,1-.307.223l-.96.14a.408.408,0,0,0-.226.7l.7.678a.408.408,0,0,1,.117.361l-.164.957a.407.407,0,0,0,.591.43l.859-.452a.407.407,0,0,1,.379,0l.859.452a.407.407,0,0,0,.591-.43l-.164-.957a.407.407,0,0,1,.117-.361l.7-.678a.408.408,0,0,0-.226-.7" transform="translate(-1626.13 -907.64)" fill="#ffd124"/>
    <path id="Path_71013" data-name="Path 71013" d="M1858.684,990.65l-.96-.14a.407.407,0,0,1-.307-.223l-.43-.871a.407.407,0,0,0-.731,0l-.429.871a.408.408,0,0,1-.307.223l-.961.14a.408.408,0,0,0-.226.7l.7.678a.407.407,0,0,1,.117.361l-.164.957a.407.407,0,0,0,.591.43l.859-.452a.407.407,0,0,1,.379,0l.859.452a.407.407,0,0,0,.591-.43l-.164-.957a.407.407,0,0,1,.117-.361l.7-.678a.408.408,0,0,0-.226-.7" transform="translate(-1701.47 -907.64)" fill="#ffd124"/>
    <path id="Path_71014" data-name="Path 71014" d="M1940.788,990.65l-.961-.14a.408.408,0,0,1-.307-.223l-.429-.871a.407.407,0,0,0-.731,0l-.43.871a.407.407,0,0,1-.306.223l-.961.14a.408.408,0,0,0-.226.7l.7.678a.408.408,0,0,1,.117.361l-.164.957a.407.407,0,0,0,.591.43l.859-.452a.407.407,0,0,1,.379,0l.859.452a.407.407,0,0,0,.591-.43l-.164-.957a.408.408,0,0,1,.117-.361l.7-.678a.408.408,0,0,0-.226-.7" transform="translate(-1776.811 -907.64)" fill="#ffd124"/>
    <path id="Path_71015" data-name="Path 71015" d="M2022.893,990.65l-.96-.14a.407.407,0,0,1-.307-.223l-.43-.871a.407.407,0,0,0-.73,0l-.43.871a.407.407,0,0,1-.307.223l-.961.14a.408.408,0,0,0-.226.7l.7.678a.407.407,0,0,1,.117.361l-.164.957a.407.407,0,0,0,.591.43l.859-.452a.407.407,0,0,1,.379,0l.859.452a.407.407,0,0,0,.591-.43l-.164-.957a.407.407,0,0,1,.117-.361l.7-.678a.408.408,0,0,0-.226-.7" transform="translate(-1852.152 -907.64)" fill="#ffd124"/>
    <path id="Path_71016" data-name="Path 71016" d="M2451.244,990.65l-.961-.14a.406.406,0,0,1-.306-.223l-.43-.871a.407.407,0,0,0-.73,0l-.429.871a.408.408,0,0,1-.307.223l-.961.14a.408.408,0,0,0-.225.7l.695.678a.407.407,0,0,1,.117.361l-.164.957a.407.407,0,0,0,.591.43l.859-.452a.407.407,0,0,1,.379,0l.859.452a.407.407,0,0,0,.591-.43l-.164-.957a.407.407,0,0,1,.117-.361l.7-.678a.408.408,0,0,0-.226-.7" transform="translate(-2245.218 -907.64)" fill="#ffd124"/>
    <path id="Path_71017" data-name="Path 71017" d="M2533.348,990.65l-.961-.14a.408.408,0,0,1-.306-.223l-.43-.871a.407.407,0,0,0-.73,0l-.429.871a.408.408,0,0,1-.306.223l-.961.14a.408.408,0,0,0-.226.7l.7.678a.409.409,0,0,1,.117.361l-.165.957a.408.408,0,0,0,.591.43l.859-.452a.406.406,0,0,1,.378,0l.859.452a.407.407,0,0,0,.591-.43l-.164-.957a.408.408,0,0,1,.117-.361l.7-.678a.408.408,0,0,0-.226-.7" transform="translate(-2320.558 -907.64)" fill="#ffd124"/>
    <path id="Path_71018" data-name="Path 71018" d="M2615.452,990.65l-.96-.14a.408.408,0,0,1-.307-.223l-.429-.871a.407.407,0,0,0-.73,0l-.43.871a.406.406,0,0,1-.306.223l-.961.14a.408.408,0,0,0-.226.7l.7.678a.407.407,0,0,1,.117.361l-.164.957a.407.407,0,0,0,.591.43l.859-.452a.407.407,0,0,1,.379,0l.859.452a.407.407,0,0,0,.591-.43l-.164-.957a.41.41,0,0,1,.117-.361l.7-.678a.408.408,0,0,0-.226-.7" transform="translate(-2395.899 -907.64)" fill="#ffd124"/>
    <path id="Path_71019" data-name="Path 71019" d="M2697.556,990.65l-.961-.14a.408.408,0,0,1-.307-.223l-.429-.871a.407.407,0,0,0-.73,0l-.43.871a.407.407,0,0,1-.306.223l-.961.14a.408.408,0,0,0-.226.7l.695.678a.406.406,0,0,1,.117.361l-.164.957a.407.407,0,0,0,.591.43l.859-.452a.407.407,0,0,1,.379,0l.859.452a.407.407,0,0,0,.591-.43l-.164-.957a.406.406,0,0,1,.117-.361l.695-.678a.408.408,0,0,0-.226-.7" transform="translate(-2471.239 -907.64)" fill="#ffd124"/>
    <path id="Path_71020" data-name="Path 71020" d="M2779.661,990.65l-.96-.139a.408.408,0,0,1-.306-.223l-.429-.871a.407.407,0,0,0-.731,0l-.43.871a.409.409,0,0,1-.306.223l-.961.139a.408.408,0,0,0-.225.7l.7.678a.407.407,0,0,1,.116.36l-.164.958a.407.407,0,0,0,.591.43l.859-.452a.406.406,0,0,1,.379,0l.859.452a.408.408,0,0,0,.591-.43l-.165-.958a.408.408,0,0,1,.118-.36l.694-.678a.407.407,0,0,0-.226-.7" transform="translate(-2546.583 -907.64)" fill="#ffd124"/>
    <path id="Path_71021" data-name="Path 71021" d="M2806.516,990.65l-.96-.139a.408.408,0,0,1-.306-.223l-.429-.871a.4.4,0,0,0-.366-.228v4.083a.407.407,0,0,1,.19.047l.859.452a.408.408,0,0,0,.591-.43l-.165-.958a.407.407,0,0,1,.118-.36l.694-.678a.407.407,0,0,0-.226-.7" transform="translate(-2573.437 -907.64)" fill="#e17524"/>
    <path id="Path_71022" data-name="Path 71022" d="M2087.421,1213.127h-32.111a3.275,3.275,0,0,0-3.273,3.276v8.156a3.275,3.275,0,0,0,3.273,3.276h32.111a3.274,3.274,0,0,0,3.273-3.276V1216.4a3.274,3.274,0,0,0-3.273-3.276" transform="translate(-1883 -1113.116)" fill="#2e3192"/>
    <path id="Path_71023" data-name="Path 71023" d="M2085.327,1263.464l-.958,5.993h.864l.163-1.087h1.155l.162,1.087h.949l-.958-5.993Zm.188,4.093.454-3.031.453,3.031Z" transform="translate(-1912.669 -1159.304)" fill="#fff"/>
    <path id="Path_71024" data-name="Path 71024" d="M2131.136,1263.464h-1.489v5.993h1.489c.941,0,1.4-.522,1.4-1.481v-3.031c0-.959-.462-1.481-1.4-1.481m.462,4.555c0,.428-.18.582-.479.582h-.531v-4.281h.531c.3,0,.479.154.479.582Z" transform="translate(-1954.217 -1159.304)" fill="#fff"/>
    <path id="Path_71025" data-name="Path 71025" d="M2173.506,1263.464h-1.489v5.993h1.489c.941,0,1.4-.522,1.4-1.481v-3.031c0-.959-.462-1.481-1.4-1.481m.462,4.555c0,.428-.179.582-.479.582h-.531v-4.281h.531c.3,0,.479.154.479.582Z" transform="translate(-1993.097 -1159.304)" fill="#fff"/>
    <path id="Path_71026" data-name="Path 71026" d="M2227.161,1264.32h.984v5.137h.941v-5.137h.984v-.856h-2.909Z" transform="translate(-2043.698 -1159.304)" fill="#fff"/>
    <path id="Path_71027" data-name="Path 71027" d="M2267.948,1262.633a1.329,1.329,0,0,0-1.428,1.507v3.116a1.431,1.431,0,1,0,2.857,0v-3.116a1.33,1.33,0,0,0-1.429-1.507m.488,4.683c0,.428-.188.591-.488.591s-.488-.163-.488-.591v-3.236c0-.428.188-.591.488-.591s.488.163.488.591Z" transform="translate(-2079.814 -1158.541)" fill="#fff"/>
    <path id="Path_71028" data-name="Path 71028" d="M2325.143,1262.633c-.924,0-1.4.548-1.4,1.507v3.116c0,.959.479,1.507,1.4,1.507s1.4-.548,1.4-1.507v-.8h-.89v.856c0,.428-.188.582-.488.582s-.488-.154-.488-.582v-3.236c0-.428.188-.591.488-.591s.488.163.488.591v.642h.89v-.582c0-.959-.479-1.507-1.4-1.507" transform="translate(-2132.321 -1158.541)" fill="#fff"/>
    <path id="Path_71029" data-name="Path 71029" d="M2362.706,1263.464l-.958,5.993h.864l.163-1.087h1.155l.163,1.087h.949l-.958-5.993Zm.188,4.093.454-3.031.453,3.031Z" transform="translate(-2167.199 -1159.304)" fill="#fff"/>
    <path id="Path_71030" data-name="Path 71030" d="M2409.849,1267.8c0-.625-.154-1.079-.624-1.276a1.2,1.2,0,0,0,.616-1.216v-.471c0-.925-.419-1.378-1.395-1.378h-1.42v5.993h.941v-2.44h.325c.427,0,.616.205.616.762v.942a1.853,1.853,0,0,0,.085.736h.958a1.768,1.768,0,0,1-.1-.728Zm-.949-2.277c0,.479-.214.634-.565.634h-.368v-1.841h.454c.333,0,.479.188.479.616Z" transform="translate(-2208.747 -1159.304)" fill="#fff"/>
    <path id="Path_71031" data-name="Path 71031" d="M2445.45,1264.32h.984v5.137h.941v-5.137h.984v-.856h-2.908Z" transform="translate(-2244.006 -1159.304)" fill="#fff"/>
    <path id="Path_71032" data-name="Path 71032" d="M388.052,306.36H358.777a4.591,4.591,0,0,0-4.589,4.592v25.981a4.591,4.591,0,0,0,4.589,4.592h20.47c1.6,2.659,5.028,6.006,12.356,8.03a24.24,24.24,0,0,1-5.479-8.03h1.929a4.591,4.591,0,0,0,4.589-4.592V310.952a4.591,4.591,0,0,0-4.589-4.592" transform="translate(-325.012 -281.104)" fill="#38c0c6"/>
    <path id="Path_71033" data-name="Path 71033" d="M456.023,387.865a5.392,5.392,0,1,0-5.408,5.682,5.417,5.417,0,0,0,5.408-5.682m-7.444.011c0-1.522.693-2.791,2.023-2.792,1.267,0,2.092,1.3,2.095,2.787s-.693,2.791-2.023,2.793c-1.267,0-2.092-1.3-2.095-2.787" transform="translate(-408.576 -350.69)" fill="#1c68a5"/>
    <path id="Path_71034" data-name="Path 71034" d="M616.2,519.617a5.682,5.682,0,1,0,5.361,5.666,5.4,5.4,0,0,0-5.361-5.666m.012,8.464c-1.267,0-2.092-1.3-2.094-2.787,0-1.522.693-2.791,2.023-2.792,1.267,0,2.092,1.3,2.094,2.787s-.693,2.791-2.023,2.792" transform="translate(-560.481 -476.78)" fill="#1c68a5"/>
    <path id="Path_71035" data-name="Path 71035" d="M488.618,384.986,472.465,407.2l3.769-.005,16.154-22.213Z" transform="translate(-433.545 -353.243)" fill="#1c68a5"/>
    <path id="Path_71036" data-name="Path 71036" d="M444.423,382.085a5.392,5.392,0,1,0-5.408,5.682,5.417,5.417,0,0,0,5.408-5.682m-7.444.011c0-1.521.693-2.791,2.023-2.792,1.267,0,2.092,1.3,2.095,2.787s-.693,2.791-2.023,2.792c-1.267,0-2.092-1.3-2.095-2.787" transform="translate(-397.932 -345.387)" fill="#fff"/>
    <path id="Path_71037" data-name="Path 71037" d="M604.6,513.838a5.682,5.682,0,1,0,5.361,5.666,5.4,5.4,0,0,0-5.361-5.666m.012,8.464c-1.267,0-2.092-1.3-2.095-2.787,0-1.521.693-2.791,2.023-2.792,1.267,0,2.092,1.3,2.095,2.787s-.693,2.791-2.023,2.792" transform="translate(-549.836 -471.477)" fill="#fff"/>
    <path id="Path_71038" data-name="Path 71038" d="M477.018,379.207,460.865,401.42l3.769-.005L480.788,379.2Z" transform="translate(-422.901 -347.94)" fill="#fff"/>
    <path id="Path_71039" data-name="Path 71039" d="M3029.931,721.835a9.738,9.738,0,0,0,2.006,11.472l-9.291,18.378a3.285,3.285,0,0,0,1.446,4.414,3.37,3.37,0,0,0,.6.234,3.29,3.29,0,0,1-.9-4.069l9.423-18.641a9.568,9.568,0,0,1,10.68-15.568,9.985,9.985,0,0,0-.89-.512,9.724,9.724,0,0,0-13.072,4.293" transform="translate(-2773.331 -657.424)" fill="#ff5a20"/>
    <path id="Path_71040" data-name="Path 71040" d="M3056.9,725.5c-.09-.046-.182-.08-.272-.121a9.568,9.568,0,0,0-10.68,15.568l-9.423,18.641a3.28,3.28,0,0,0,3.22,4.752,1.25,1.25,0,0,0,.159.1l2.429,1.23a1.2,1.2,0,1,0,1.084-2.145l-1.238-.628.015-.025-.13-.066a.721.721,0,0,1,.65-1.286l1.6.81a1.2,1.2,0,0,0,.839-2.236l-1.216-.615-.152-.077a.721.721,0,0,1,.651-1.287l.152.077,1.215.614a1.2,1.2,0,0,0,1.084-2.144l-1.214-.615,6.293-12.449a9.576,9.576,0,0,0,4.934-18.1m3.164,12.2a8.288,8.288,0,1,1-3.653-11.144,8.283,8.283,0,0,1,3.653,11.144" transform="translate(-2786.065 -664.748)" fill="#ffbd16"/>
    <path id="Path_71041" data-name="Path 71041" d="M3147.866,739.738a8.292,8.292,0,1,0,3.654,11.144,8.284,8.284,0,0,0-3.654-11.144m.619,5.253a3.043,3.043,0,1,1-1.34-4.091,3.04,3.04,0,0,1,1.34,4.091" transform="translate(-2877.523 -677.933)" fill="#ff9a22"/>
    <path id="Path_71042" data-name="Path 71042" d="M3076.659,956.892a.753.753,0,0,0-1.012.332l-8.735,17.28a.753.753,0,1,0,1.344.681l8.736-17.281a.754.754,0,0,0-.333-1.012" transform="translate(-2814.2 -877.931)" fill="#ff9a22"/>
    <path id="Path_71043" data-name="Path 71043" d="M3225.367,753.86a9.735,9.735,0,0,0,6.1,9.922l-1.856,20.512a3.284,3.284,0,0,0,2.974,3.568,3.342,3.342,0,0,0,.643,0,3.287,3.287,0,0,1-2.341-3.448l1.883-20.806a9.57,9.57,0,0,1,4.182-18.414,9.849,9.849,0,0,0-1.016-.147,9.729,9.729,0,0,0-10.564,8.818" transform="translate(-2959.64 -683.584)" fill="#ff5a20"/>
    <path id="Path_71044" data-name="Path 71044" d="M3253.807,747.1c-.1-.009-.2-.005-.3-.011a9.57,9.57,0,0,0-4.182,18.414l-1.883,20.806a3.278,3.278,0,0,0,2.973,3.567,3.253,3.253,0,0,0,1.772-.34,1.219,1.219,0,0,0,.185.036l2.71.246a1.2,1.2,0,0,0,.217-2.394l-1.383-.125c0-.01,0-.02.006-.03l-.146-.013a.721.721,0,0,1,.13-1.436l1.784.161a1.2,1.2,0,0,0-.045-2.388l-1.356-.122-.169-.015a.721.721,0,0,1,.13-1.436l.17.015,1.355.122a1.2,1.2,0,0,0,.217-2.394l-1.356-.122,1.258-13.9a9.577,9.577,0,0,0-2.091-18.644m7.44,10.169a8.286,8.286,0,1,1-7.505-9.008,8.287,8.287,0,0,1,7.505,9.008" transform="translate(-2976.203 -685.478)" fill="#ffbd16"/>
    <path id="Path_71045" data-name="Path 71045" d="M3268.573,761.112a8.293,8.293,0,1,0,7.505,9.008,8.288,8.288,0,0,0-7.505-9.008m2.513,4.653a3.042,3.042,0,1,1-2.756-3.307,3.043,3.043,0,0,1,2.756,3.307" transform="translate(-2991.033 -698.335)" fill="#ff9a22"/>
    <path id="Path_71046" data-name="Path 71046" d="M3328.478,990.191a.753.753,0,0,0-.818.683l-1.746,19.287a.753.753,0,0,0,1.5.136l1.746-19.288a.754.754,0,0,0-.682-.818" transform="translate(-3051.938 -908.557)" fill="#ff9a22"/>
    <path id="Path_71047" data-name="Path 71047" d="M3226.427,761.667a9.464,9.464,0,0,0,1.486,1.931,9.748,9.748,0,0,1,1.47-1.754,7.275,7.275,0,0,1-1.026-1.4,3.037,3.037,0,0,0-1.93,1.223" transform="translate(-2960.65 -697.753)" fill="#ff5a20"/>
    <path id="Path_71048" data-name="Path 71048" d="M3225.15,602.452a9.535,9.535,0,0,0-14.371,8.239,9.663,9.663,0,0,1,2.281.075,7.261,7.261,0,1,1,13.751,3.173c-.073.146-.142.292-.226.434-.115.2-.24.383-.37.564a7.278,7.278,0,0,1-4.357,2.854,7.4,7.4,0,0,1-1.183.161c-.1.005-.2,0-.3,0a2.985,2.985,0,0,0-.092.5,3.024,3.024,0,0,0,.384,1.774c.162-.006.323-.016.485-.03a9.519,9.519,0,0,0,7.033-4.116c.125-.182.253-.364.367-.558.085-.144.153-.292.23-.44a9.552,9.552,0,0,0-3.632-12.637" transform="translate(-2946.291 -551.578)" fill="#ff5a20"/>
  </g>
</svg>
