<svg id="Hassle-free_properties_icon3" data-name="Hassle-free properties_icon3" xmlns="http://www.w3.org/2000/svg" xmlns:xlink="http://www.w3.org/1999/xlink" width="239" height="200" viewBox="0 0 239 200">
  <defs>
    <clipPath id="clip-path">
      <rect id="Rectangle_11547" data-name="Rectangle 11547" width="239" height="200" fill="#eef8f8"/>
    </clipPath>
    <clipPath id="clip-path-2">
      <rect id="Rectangle_11546" data-name="Rectangle 11546" width="239" height="200" fill="none"/>
    </clipPath>
    <clipPath id="clip-path-3">
      <rect id="Rectangle_11534" data-name="Rectangle 11534" width="5.049" height="5.692" fill="none"/>
    </clipPath>
    <clipPath id="clip-path-4">
      <rect id="Rectangle_11535" data-name="Rectangle 11535" width="5.665" height="3.335" fill="none"/>
    </clipPath>
    <clipPath id="clip-path-5">
      <rect id="Rectangle_11536" data-name="Rectangle 11536" width="1.126" height="2.294" fill="none"/>
    </clipPath>
    <clipPath id="clip-path-6">
      <rect id="Rectangle_11537" data-name="Rectangle 11537" width="3.189" height="2.333" fill="none"/>
    </clipPath>
    <clipPath id="clip-path-7">
      <rect id="Rectangle_11538" data-name="Rectangle 11538" width="2.761" height="1.097" fill="none"/>
    </clipPath>
    <clipPath id="clip-path-8">
      <rect id="Rectangle_11543" data-name="Rectangle 11543" width="15.004" height="21.755" fill="none"/>
    </clipPath>
    <clipPath id="clip-path-9">
      <rect id="Rectangle_11544" data-name="Rectangle 11544" width="16.856" height="29.644" fill="none"/>
    </clipPath>
  </defs>
  <g id="Group_21217" data-name="Group 21217" clip-path="url(#clip-path)">
    <g id="Group_21216" data-name="Group 21216" transform="translate(0 0)">
      <g id="Group_21215" data-name="Group 21215" clip-path="url(#clip-path-2)">
        <path id="Path_71049" data-name="Path 71049" d="M302.465,62.7c-2.237-13.618-8.726-26.911-18.822-35.964-15.732-14.106-37.952-16.165-56.861-11.057-7.92,2.14-15.681,5.416-23.982,5.266-12.107-.22-23.36-7.608-34.789-12.762C152.454,1.171,134.514-3.28,119.5,3.016c-29.367,12.317-34,34.358-34.091,54.868-.04,9.294,9.37,24.889,7.535,33.844-1.861,9.082-15.585,25.53-13.429,46.158q.151,1.444.376,2.921c2.06,13.576,7.928,25.253,15.992,33.659,10.262,10.7,24.08,16.1,38.132,13.38l26.029-5.042a197.5,197.5,0,0,1,64.551-1.675c38.4,5.268,66.428,3.619,74.655-11.377,7.237-13.19-2.976-39.237-5.345-44.953-4.49-10.83,4.488-20.79,7.4-31.453,2.6-9.49,2.791-20.663,1.153-30.639" transform="translate(-73.37 0.001)" fill="#ecedff"/>
        <path id="Path_71050" data-name="Path 71050" d="M2072.6,1377.571c-3.158-12.284-12.017-21.352-20.29-27.044-3.7-2.544-8.422-4.609-12.26-1.173a8.828,8.828,0,0,0-1.24,1.382c-2.353,3.23-3.12,8.347-2.425,12.515,2.24,13.441,10.761,18.165,17.462,26.5,7.556,9.4,13.182,21.381,17.141,34.392.339,1.113.785,3.213,1.375,5.068a32.079,32.079,0,0,1,4.325.884c.594-2.794.085-7,.038-9.02-.334-14.626-.652-30-4.125-43.507" transform="translate(-1884.151 -1246.863)" fill="#1fa47c"/>
        <path id="Path_71051" data-name="Path 71051" d="M2622.137,1937.164c-3.637,1.854-6.816,5.428-9.4,9.509a86.9,86.9,0,0,0-6.467,13.035c-1.186,2.84-2.423,5.65-3.5,8.554-.5,1.332-.9,2.672-1.3,4.035-.225.764-.5,1.424-.706,2.126-.009.031-.014.064-.023.1l1.614.3a24.942,24.942,0,0,1,4.746-7.366c2.266-2.71,4.816-5.243,7.684-6.325a8.578,8.578,0,0,1,1.608-.439c5.344-.9,10.564,2.172,15.2,4.222a9.845,9.845,0,0,0,6.08.605,8.743,8.743,0,0,0,4.4-2.324c2.725-2.7,3.916-7.657,3.43-11.834-1.473-12.663-14.623-18.648-23.356-14.2" transform="translate(-2406.599 -1791.076)" fill="#008e68"/>
        <path id="Path_71052" data-name="Path 71052" d="M2617.074,1315.991c-4.581-6.482-12.733-7.127-19.412-2.981s-11.915,12.344-15.228,21.256c-5.731,15.416-5.117,33.35-5.836,49.469-.185,4.152-1.288,8.148-.527,11.992l1.343.362.17.032c.624-3.945,3.671-11.718,4.344-13.934,1.357-4.471,2.784-8.926,4.458-13.236a100.72,100.72,0,0,1,5.731-12.6,37.6,37.6,0,0,1,7.9-10.207c2.627-2.27,5.52-3.8,8.21-5.906a35.066,35.066,0,0,0,7.017-7.519c2.412-3.451,4.5-8.109,3.753-12.335a10.864,10.864,0,0,0-1.918-4.389" transform="translate(-2383.534 -1212.493)" fill="#3ecaa1"/>
        <path id="Path_71053" data-name="Path 71053" d="M2214.9,1592.609q-.305-1.869-.61-3.759c-1.55-9.591-3.152-19.509-5.648-28.709-2.818-10.387-6.415-18.381-11-24.438a126.877,126.877,0,0,0-9.637-10.934l.333-.318a127.2,127.2,0,0,1,9.672,10.974c4.618,6.106,8.241,14.151,11.075,24.6,2.5,9.224,4.107,19.153,5.658,28.756q.305,1.888.609,3.759Z" transform="translate(-2024.68 -1410.552)" fill="#1c1c1b"/>
        <path id="Path_71054" data-name="Path 71054" d="M2609.363,2160.768l-.407-.216a100.77,100.77,0,0,1,8.336-13.8c3.3-4.306,6.618-7.053,10.455-8.644,5.5-2.178,10.732-.458,14.939.925l-.144.438c-4.137-1.359-9.286-3.05-14.623-.936-8.055,3.34-12.969,11.679-18.557,22.234" transform="translate(-2414.209 -1977.401)" fill="#1c1c1b"/>
        <path id="Path_71055" data-name="Path 71055" d="M2586.965,1644.876l-.452-.09c.784-3.939,1.467-7.947,2.19-12.191,1.691-9.917,3.439-20.173,6.533-29.342a61.859,61.859,0,0,1,5.824-12.789,38.077,38.077,0,0,1,8.837-10.128l.286.362a37.629,37.629,0,0,0-8.731,10.008,61.426,61.426,0,0,0-5.779,12.695c-3.083,9.135-4.828,19.372-6.515,29.272-.724,4.247-1.408,8.259-2.193,12.2" transform="translate(-2393.441 -1462.261)" fill="#1c1c1b"/>
        <path id="Path_71056" data-name="Path 71056" d="M428.957,1876.179a4.246,4.246,0,0,0-.819-.56c-2.529-1.324-5.586.1-7.972,1.671-5.337,3.508-11.027,8.708-12.977,14.957-2.145,6.873-2.219,14.367-2.311,21.5a15.391,15.391,0,0,0,.1,4.377c.924-.309,1.858-.6,2.808-.818.368-.954.641-2.014.852-2.585a54.76,54.76,0,0,1,10.863-18.243c4.291-4.651,9.8-7.711,11.14-14.44a6.293,6.293,0,0,0-1.687-5.86" transform="translate(-374.55 -1735)" fill="#1fa47c"/>
        <path id="Path_71057" data-name="Path 71057" d="M28.9,2249.087c-.273-.626-.548-1.24-.883-1.843-.729-1.313-1.559-2.567-2.355-3.84a33.163,33.163,0,0,0-4.322-5.75,13.271,13.271,0,0,0-6.2-3.774C9.413,2232.5.9,2236.592.053,2242.874a5.5,5.5,0,0,0,2.335,5.439,5.884,5.884,0,0,0,2.884.734,8.884,8.884,0,0,0,3.953-.84c3-1.412,6.373-3.371,9.86-3.416a6.843,6.843,0,0,1,1.05.069,11.432,11.432,0,0,1,5.057,2.382,10.4,10.4,0,0,1,3.153,3.151l1.048-.292c-.006-.014-.009-.03-.016-.044-.139-.323-.325-.618-.478-.969" transform="translate(0 -2066.731)" fill="#008e68"/>
        <path id="Path_71058" data-name="Path 71058" d="M47.517,1940.69c-2.234-4.031-5.713-7.542-10.1-8.956s-9.686-.368-12.612,3.192a5.515,5.515,0,0,0-1.211,2.3c-.45,2.119.949,4.194,2.549,5.654a17.236,17.236,0,0,0,4.633,3.021c1.769.783,3.666,1.264,5.4,2.131a16.931,16.931,0,0,1,5.228,4.248,37.606,37.606,0,0,1,3.839,5.606,65.772,65.772,0,0,1,3.016,6.028c.457,1.016,2.508,4.518,2.948,6.377l.11-.031.871-.3c.462-1.936-.29-3.777-.446-5.777-.607-7.764-.361-16.529-4.225-23.5" transform="translate(-21.757 -1786.843)" fill="#3ecaa1"/>
        <path id="Path_71059" data-name="Path 71059" d="M424.332,2000.685l-.255-.05q.183-.935.365-1.88c1.886-9.769,3.837-19.871,10.437-27.422a86.457,86.457,0,0,1,6.2-6.2l.177.19a86.318,86.318,0,0,0-6.182,6.178c-6.554,7.5-8.5,17.565-10.377,27.3q-.182.945-.365,1.881" transform="translate(-392.422 -1818.312)" fill="#1c1c1b"/>
        <path id="Path_71060" data-name="Path 71060" d="M113.666,2337.3c-3.726-4.621-6.995-8.227-12.271-9.126-3.508-.55-6.856.738-9.546,1.773l-.093-.242c2.719-1.046,6.1-2.347,9.681-1.787,5.368.915,8.671,4.555,12.431,9.219Z" transform="translate(-84.907 -2153.861)" fill="#1c1c1b"/>
        <path id="Path_71061" data-name="Path 71061" d="M205.267,2085.252c-.545-1.846-1.025-3.734-1.533-5.732-1.183-4.654-2.407-9.467-4.49-13.622a19.68,19.68,0,0,0-9.629-9.708l.106-.237a19.928,19.928,0,0,1,9.755,9.828c2.1,4.18,3.323,9.007,4.509,13.674.507,2,.987,3.881,1.53,5.722Z" transform="translate(-175.461 -1902.345)" fill="#1c1c1b"/>
        <path id="Path_71062" data-name="Path 71062" d="M649.565,2482.8c-39.353,0-71.255,3.246-71.255,7.25s31.9,7.25,71.255,7.25,71.255-3.246,71.255-7.25-31.9-7.25-71.255-7.25" transform="translate(-535.142 -2297.3)" fill="#f2d4ff"/>
        <path id="Path_71063" data-name="Path 71063" d="M205.906,2391.33c-59.118,0-107.043,2.734-107.043,6.106s47.925,6.105,107.043,6.105,107.043-2.734,107.043-6.105-47.925-6.106-107.043-6.106" transform="translate(-91.483 -2212.663)" fill="#f2d4ff"/>
        <path id="Path_71065" data-name="Path 71065" d="M972.9,99H895.729a8.115,8.115,0,0,0-8.112,8.119V266.165a8.115,8.115,0,0,0,8.112,8.119H972.9a8.115,8.115,0,0,0,8.112-8.119V107.122A8.115,8.115,0,0,0,972.9,99" transform="translate(-821.36 -91.606)" fill="#2e3192"/>
        <rect id="Rectangle_11531" data-name="Rectangle 11531" width="76.027" height="151.29" transform="translate(74.774 19.391)" fill="#0f2940"/>
        <rect id="Rectangle_11532" data-name="Rectangle 11532" width="76.027" height="149.728" transform="translate(74.774 20.952)" fill="#fff"/>
        <path id="Path_71066" data-name="Path 71066" d="M1317.443,163.739h-25.883a1.554,1.554,0,0,0-1.549,1.55h0a1.554,1.554,0,0,0,1.549,1.55h25.883a1.554,1.554,0,0,0,1.548-1.55h0a1.554,1.554,0,0,0-1.548-1.55" transform="translate(-1193.718 -151.505)" fill="#fefefe"/>
        <path id="Path_71067" data-name="Path 71067" d="M1354.282,2349.722h-26.6a1.19,1.19,0,0,0,0,2.379h26.6a1.19,1.19,0,0,0,0-2.379" transform="translate(-1227.474 -2174.164)" fill="#002749"/>
        <path id="Path_71068" data-name="Path 71068" d="M1728.05,159.187a1.89,1.89,0,1,0,1.888,1.89,1.889,1.889,0,0,0-1.888-1.89" transform="translate(-1597.312 -147.293)" fill="#fefefe"/>
        <path id="Path_71069" data-name="Path 71069" d="M1741.938,174.193a.769.769,0,1,0,.768.769.768.768,0,0,0-.768-.769" transform="translate(-1611.2 -161.178)" fill="#144a76"/>
        <path id="Path_71070" data-name="Path 71070" d="M1753.872,171.56a.408.408,0,1,0,.408.408.408.408,0,0,0-.408-.408" transform="translate(-1622.576 -158.742)" fill="#fff"/>
        <rect id="Rectangle_11533" data-name="Rectangle 11533" width="76.027" height="8.046" transform="translate(74.774 162.635)" fill="#002749"/>
        <path id="Path_71071" data-name="Path 71071" d="M1305.5,2210.781l-3.146-1.818,3.146-1.818Zm-2.312-1.818,1.9,1.1v-2.191Z" transform="translate(-1205.136 -2042.239)" fill="#fff"/>
        <path id="Path_71072" data-name="Path 71072" d="M1492.768,2212.518a1.665,1.665,0,1,1,1.663-1.665,1.666,1.666,0,0,1-1.663,1.665m0-2.913a1.248,1.248,0,1,0,1.247,1.248,1.249,1.249,0,0,0-1.247-1.248" transform="translate(-1379.8 -2044.13)" fill="#fff"/>
        <path id="Path_71073" data-name="Path 71073" d="M1698.969,2214.456h-2.987v-2.99h2.987Zm-2.57-.417h2.154v-2.156H1696.4Z" transform="translate(-1569.385 -2046.238)" fill="#fff"/>
        <path id="Path_71074" data-name="Path 71074" d="M1391.509,1489.476c-5.542,6.141-6.327,30.487-5.844,51.371l46.521-.042s-2.636-39.431-13.712-51.329Z" transform="translate(-1282.12 -1378.191)" fill="#7d393a"/>
        <path id="Path_71075" data-name="Path 71075" d="M2505.793,661.049c.434-1.424-.3-2.321-3.17-1.447-.489.064,1.632-2.7.119-2.874s-8.4,5.081-9.527,4.981-.388-1.067-.231-2.7-.311-3.314-1.775-3.122c0,0-.653,5.429-2.234,6.631s-1.69,3.2-1.758,4.581a19.908,19.908,0,0,1-2.25,6.509l5.4,5.174s2.248-5.333,4.763-6.036,9.77-5.238,10.5-6.328-.4-1.19-1.731-.891c0,0,2.625-2.706,1.9-4.474" transform="translate(-2299.477 -606.865)" fill="#faba97"/>
        <g id="Group_21196" data-name="Group 21196" transform="translate(192.444 55.688)" style="mix-blend-mode: multiply;isolation: isolate">
          <g id="Group_21195" data-name="Group 21195">
            <g id="Group_21194" data-name="Group 21194" clip-path="url(#clip-path-3)">
              <path id="Path_71076" data-name="Path 71076" d="M2583.081,750.815c-.052-.024-1.277-.563-4.555-.106a9.647,9.647,0,0,0-.2-5.284.118.118,0,1,0-.222.081,9.445,9.445,0,0,1,.146,5.312.117.117,0,0,0,.024.111.133.133,0,0,0,.106.04c3.317-.5,4.586.055,4.6.061a.119.119,0,0,0,.064.009.118.118,0,0,0,.034-.224" transform="translate(-2578.1 -745.349)" fill="#e0b3a8"/>
            </g>
          </g>
        </g>
        <g id="Group_21199" data-name="Group 21199" transform="translate(199.848 54.373)" style="mix-blend-mode: multiply;isolation: isolate">
          <g id="Group_21198" data-name="Group 21198">
            <g id="Group_21197" data-name="Group 21197" clip-path="url(#clip-path-4)">
              <path id="Path_71077" data-name="Path 71077" d="M2682.775,727.762l-5.489,3.114.116.206,5.489-3.114a.118.118,0,0,0-.116-.205" transform="translate(-2677.286 -727.746)" fill="#e0b3a8"/>
            </g>
          </g>
        </g>
        <g id="Group_21202" data-name="Group 21202" transform="translate(199.003 56.472)" style="mix-blend-mode: multiply;isolation: isolate">
          <g id="Group_21201" data-name="Group 21201">
            <g id="Group_21200" data-name="Group 21200" clip-path="url(#clip-path-5)">
              <path id="Path_71078" data-name="Path 71078" d="M2666.189,755.9a.118.118,0,1,0-.2.119,9.058,9.058,0,0,1,.878,2.028.118.118,0,0,0,.13.087l.014,0a.118.118,0,0,0,.084-.144,9.117,9.117,0,0,0-.9-2.088" transform="translate(-2665.969 -755.844)" fill="#e0b3a8"/>
            </g>
          </g>
        </g>
        <g id="Group_21205" data-name="Group 21205" transform="translate(199.334 53.12)" style="mix-blend-mode: multiply;isolation: isolate">
          <g id="Group_21204" data-name="Group 21204">
            <g id="Group_21203" data-name="Group 21203" clip-path="url(#clip-path-6)">
              <path id="Path_71079" data-name="Path 71079" d="M2673.41,711a30.5,30.5,0,0,1-2.939,2.087.118.118,0,1,0,.124.2,30.642,30.642,0,0,0,2.966-2.107.118.118,0,0,0-.151-.182" transform="translate(-2670.415 -710.97)" fill="#e0b3a8"/>
            </g>
          </g>
        </g>
        <g id="Group_21208" data-name="Group 21208" transform="translate(201.071 58.602)" style="mix-blend-mode: multiply;isolation: isolate">
          <g id="Group_21207" data-name="Group 21207">
            <g id="Group_21206" data-name="Group 21206" clip-path="url(#clip-path-7)">
              <path id="Path_71080" data-name="Path 71080" d="M2696.294,784.346a19.731,19.731,0,0,0-2.544.866.118.118,0,0,0,.061.226.112.112,0,0,0,.031-.008,19.523,19.523,0,0,1,2.507-.854.118.118,0,0,0-.055-.23" transform="translate(-2693.678 -784.342)" fill="#e0b3a8"/>
            </g>
          </g>
        </g>
        <path id="Path_71081" data-name="Path 71081" d="M1263.524,870.9s-12.524-3.322-16.216-5.236c-7.389-3.83-8.576-6.735-15.009-7.069-4.651,2.571-14.744-.392-14.744-.392a17.447,17.447,0,0,0-5.937.792c-2.969.991-7.719,6.141-13.062,11.093-.792.2-5.542,1.585-9.005,9.112s-3.068,27.734,5.443,27.337,10.291-9.311,11.677-13.074c0,0,2.177,6.933,1.583,8.716h24.937s2.9.666,2.309-.919,3.756-10.512,4.325-18.265a50.912,50.912,0,0,0,30.253,4.952s21.738-20.357,23.321-25.392c0,0-8.135-6.61-10.115-7.8-8.052,9.381-19.759,16.143-19.759,16.143" transform="translate(-1098.864 -790.89)" fill="#dbdcff"/>
        <path id="Path_71082" data-name="Path 71082" d="M1193.837,949.282a20.019,20.019,0,0,1-3.962-.422c-.495-.2-3.671,7.171-1.692,9.9s1.7,4.988,1.4,7.514a9.055,9.055,0,0,0,8.51-.693,11.2,11.2,0,0,1,.891-6.537c1.624-3.437.31-5.473.063-8.246s-5.011-1.609-5.208-1.51" transform="translate(-1098.896 -877.962)" fill="#faba97"/>
        <path id="Path_71083" data-name="Path 71083" d="M1826.032,924.891a.253.253,0,0,0-.324.152c-2.237,6.191-1.277,15.211-1.267,15.3a.253.253,0,0,0,.251.226l.028,0a.253.253,0,0,0,.224-.279c-.01-.089-.957-8.995,1.24-15.074a.253.253,0,0,0-.152-.324" transform="translate(-1688.058 -855.775)" fill="#aa1d34"/>
        <path id="Path_71084" data-name="Path 71084" d="M1408.146,937.251a.253.253,0,0,0-.235.269c.343,5.154-2.206,10.938-4.707,14.632-2.437,3.6-2.8,6.788-1.137,10.03a26.087,26.087,0,0,1,1.888,6.59.253.253,0,0,0,.25.217l.036,0a.253.253,0,0,0,.214-.287,26.058,26.058,0,0,0-1.938-6.748c-1.568-3.06-1.216-6.084,1.106-9.515,2.548-3.764,5.145-9.669,4.793-14.95a.253.253,0,0,0-.269-.236" transform="translate(-1296.465 -867.225)" fill="#aa1d34"/>
        <path id="Path_71085" data-name="Path 71085" d="M1329.093,1172.5a.253.253,0,1,0-.474.177c.372,1,.829,2.068,1.313,3.2,1.864,4.367,4.184,9.8,2.837,14.469a.253.253,0,1,0,.486.141c1.4-4.839-.963-10.367-2.858-14.808-.481-1.128-.936-2.193-1.3-3.179" transform="translate(-1229.429 -1084.749)" fill="#aa1d34"/>
        <path id="Path_71086" data-name="Path 71086" d="M1502.108,1520.331a.253.253,0,0,0-.206-.221,12.135,12.135,0,0,1-3.376-1.155c-.724-.659-.021-11.136,1.01-20.656a.253.253,0,1,0-.5-.055c-.005.05-.549,5.09-.928,10.161-.778,10.405-.123,10.809.157,10.981a11.854,11.854,0,0,0,3.366,1.186l1.76,15.564a.253.253,0,0,0,.251.225l.029,0a.253.253,0,0,0,.223-.28Z" transform="translate(-1385.937 -1386.095)" fill="rgba(232,240,249,0.65)"/>
        <path id="Path_71087" data-name="Path 71087" d="M1621.549,1541.567c-10.345,1.743-15.554-6.089-16.531-11.778a.253.253,0,1,0-.5.086,15.716,15.716,0,0,0,5.156,9.15,13.679,13.679,0,0,0,9.076,3.29,17.328,17.328,0,0,0,2.882-.249.253.253,0,0,0-.084-.5" transform="translate(-1484.746 -1415.297)" fill="rgba(232,240,249,0.65)"/>
        <path id="Path_71088" data-name="Path 71088" d="M2250.592,233.777v23.634l8.644.894,7.707.8,11.972,1.238V233.777l-14.884-15.47Z" transform="translate(-2082.596 -201.996)" fill="#d1d2ff"/>
        <path id="Path_71089" data-name="Path 71089" d="M2630.028,468.326l19.545-2.454V443.087h-19.545Z" transform="translate(-2433.708 -409.982)" fill="#d1d2ff"/>
        <path id="Path_71091" data-name="Path 71091" d="M2379.192,574.2l-5.035-.413a.823.823,0,0,0-.89.82v12.669l6.68.691V575.017a.823.823,0,0,0-.755-.82" transform="translate(-2196.114 -530.911)" fill="#8e53a9"/>
        <path id="Path_71092" data-name="Path 71092" d="M2239.669,233.434l.815,2.905,13.439-14.258,14.884,16.667V235.1l-14.884-16.794Z" transform="translate(-2072.488 -201.997)" fill="#8f53aa"/>
        <path id="Path_71093" data-name="Path 71093" d="M2430.634,190.07l14.395,17.58h21.078l-15.228-17.58Z" transform="translate(-2249.198 -175.869)" fill="#2e3192"/>
        <path id="Path_71094" data-name="Path 71094" d="M2243.817,190.07l-1.494,1.623-13.576,15.332v3.187h1.631v-1.829l13.411-15.045,14.912,16.729h21.381V206.88H2258.7Z" transform="translate(-2062.382 -175.869)" fill="#8f53aa"/>
        <rect id="Rectangle_11539" data-name="Rectangle 11539" width="3.729" height="3.774" transform="translate(194.649 10.427)" fill="#2e3192"/>
        <path id="Path_71095" data-name="Path 71095" d="M2514.488,565.542l-4.307-.307a1.049,1.049,0,0,0-1.112,1.078l-.036,4.736a1.223,1.223,0,0,0,1.094,1.235l4.307.307a1.048,1.048,0,0,0,1.112-1.078l.036-4.736a1.223,1.223,0,0,0-1.094-1.235" transform="translate(-2321.744 -523.002)" fill="#fff"/>
        <path id="Path_71096" data-name="Path 71096" d="M2519.884,571.379l-3.645-.26a.9.9,0,0,0-.958.929l-.031,4.158a1.054,1.054,0,0,0,.943,1.065l3.645.26a.9.9,0,0,0,.958-.929l.031-4.158a1.054,1.054,0,0,0-.944-1.065" transform="translate(-2327.498 -528.446)" fill="#8e53a9"/>
        <path id="Path_71097" data-name="Path 71097" d="M2514.813,569.456l-.476-.034-.024,3.117-2.844-.2,0,.5,2.844.2-.022,2.955.476.034.022-2.955,2.947.21,0-.5-2.947-.21Z" transform="translate(-2323.995 -526.878)" fill="#fff"/>
        <path id="Path_71098" data-name="Path 71098" d="M2265.01,544.224l-4.307-.307a1.048,1.048,0,0,0-1.112,1.078l-.036,4.736a1.223,1.223,0,0,0,1.094,1.235l4.307.307a1.049,1.049,0,0,0,1.112-1.078l.036-4.736a1.222,1.222,0,0,0-1.094-1.235" transform="translate(-2090.89 -503.276)" fill="#fff"/>
        <path id="Path_71099" data-name="Path 71099" d="M2270.407,550.062l-3.645-.26a.9.9,0,0,0-.958.929l-.031,4.158a1.054,1.054,0,0,0,.943,1.065l3.645.26a.9.9,0,0,0,.958-.929l.031-4.158a1.054,1.054,0,0,0-.943-1.065" transform="translate(-2096.643 -508.722)" fill="#8e53a9"/>
        <path id="Path_71100" data-name="Path 71100" d="M2265.336,548.138l-.477-.034-.023,3.117-2.844-.2,0,.5,2.844.2-.022,2.955.476.034.022-2.955,2.947.21,0-.5-2.947-.21Z" transform="translate(-2093.141 -507.153)" fill="#fff"/>
        <path id="Path_71101" data-name="Path 71101" d="M2378.65,377.664c-1.945,0-3.528,1.861-3.528,4.148s1.583,4.147,3.528,4.147,3.527-1.861,3.527-4.147-1.583-4.148-3.527-4.148" transform="translate(-2197.83 -349.447)" fill="#fff"/>
        <path id="Path_71102" data-name="Path 71102" d="M2384.069,384.544a3.681,3.681,0,1,0,3.091,3.633,3.4,3.4,0,0,0-3.091-3.633" transform="translate(-2203.25 -355.813)" fill="#8e53a9"/>
        <path id="Path_71103" data-name="Path 71103" d="M2383.338,382.746h-.479v3.517H2380v.563h2.861v3.334h.479v-3.334h2.965v-.563h-2.965Z" transform="translate(-2202.342 -354.15)" fill="#fff"/>
        <path id="Path_71104" data-name="Path 71104" d="M2740.583,553.639l-6,.32a.557.557,0,0,0-.506.558l.053,8.644a.557.557,0,0,0,.607.551l6-.549a.557.557,0,0,0,.506-.558l-.053-8.415a.557.557,0,0,0-.607-.551" transform="translate(-2529.994 -512.272)" fill="#8e53a9"/>
        <path id="Path_71105" data-name="Path 71105" d="M2740.615,553.6l-6.059.326a.525.525,0,0,0-.477.526l.053,8.708a.525.525,0,0,0,.573.52l6.059-.555a.525.525,0,0,0,.477-.526l-.053-8.479a.525.525,0,0,0-.572-.52m-.306,9.134-5.154.472a.525.525,0,0,1-.572-.52l-.048-7.844a.525.525,0,0,1,.477-.526l5.154-.243a.525.525,0,0,1,.572.52l.048,7.615a.525.525,0,0,1-.477.526" transform="translate(-2529.993 -512.234)" fill="#fff"/>
        <path id="Path_71106" data-name="Path 71106" d="M2780.68,556.814l.03,9.407.453.043-.03-9.532Z" transform="translate(-2573.115 -515.135)" fill="#fff"/>
        <path id="Path_71107" data-name="Path 71107" d="M2734.389,615.425l.005.6,6.808-.485-.005-.554Z" transform="translate(-2530.279 -569.042)" fill="#fff"/>
        <path id="Path_71108" data-name="Path 71108" d="M2603.531,254.723l5.427,6.188,6.082.075-5.5-6.242Z" transform="translate(-2409.189 -235.692)" fill="#fff"/>
        <rect id="Rectangle_11541" data-name="Rectangle 11541" width="0.344" height="11.77" transform="translate(195.919 16.956) rotate(-37.932)" fill="#2e3192"/>
        <rect id="Rectangle_11542" data-name="Rectangle 11542" width="8.877" height="0.349" transform="translate(195.52 21.637)" fill="#2e3192"/>
        <path id="Path_71110" data-name="Path 71110" d="M2250.96,741.729l-.368-.038v1.852l28.323,3.191,19.545-2.75v-1.819l-19.545,2.454Z" transform="translate(-2082.595 -686.276)" fill="#8f53aa"/>
        <path id="Path_71111" data-name="Path 71111" d="M2630.027,752.611l19.546-2.75v-1.819l-19.546,2.454Z" transform="translate(-2433.708 -692.152)" fill="#8e53a9"/>
        <path id="Path_71112" data-name="Path 71112" d="M1963.063,887.385c-.048.042-.1.083-.147.124l.147.158Z" transform="translate(-1816.393 -821.084)" fill="#ad3d3d"/>
        <path id="Path_71113" data-name="Path 71113" d="M1799.869,638.5c-.295-.519-.553-1.057-.8-1.6-.3-.678-.611-1.363-.858-2.065a11.332,11.332,0,0,1-.522-2.131c-.09-.623-.127-1.252-.165-1.879s-.082-1.239-.18-1.853a11.083,11.083,0,0,0-.558-2.06c-.293-.8-.625-1.59-.98-2.367-.177-.388-.371-.764-.564-1.143s-.37-.771-.591-1.13c-.114-.184-.225-.369-.335-.555-.022-.036-.072,0-.056.033.09.206.172.416.261.623s.182.378.271.567c.184.385.349.779.53,1.165.366.779.711,1.568,1.019,2.372a13.163,13.163,0,0,1,.67,2.181,14.236,14.236,0,0,1,.213,1.861c.038.621.065,1.244.135,1.863a11.79,11.79,0,0,0,.42,2.087,22.168,22.168,0,0,0,.836,2.173c.241.574.491,1.145.776,1.7a14.314,14.314,0,0,0,2.172,3.064c.083.092.169.182.253.272.049-.041.1-.081.147-.124v.282l-.147-.158a9.528,9.528,0,0,1-1.911,1.19,16.219,16.219,0,0,1-2.624.989,18.975,18.975,0,0,1-5.66.763c-.472-.011-.941-.044-1.411-.093l-.149-.017-.073-.008-.1-.01-.167-.02h-.009l-.13-.016-.126-.017c-.071-.01-.1-.016-.167-.023a1.619,1.619,0,0,1-.279-.037.156.156,0,0,0-.083.3c.083.025.164.071.245.1s.172.061.26.087a4.7,4.7,0,0,0,.56.13,9.98,9.98,0,0,0,1.292.118,17,17,0,0,0,2.821-.17,20.286,20.286,0,0,0,5.711-1.569,9.3,9.3,0,0,0,2.425-1.54.2.2,0,0,0,0-.282,14.889,14.889,0,0,1-2.38-3.05" transform="translate(-1655.298 -575.254)" fill="#ad3d3d"/>
        <path id="Path_71114" data-name="Path 71114" d="M1439.31,535.129c-1.735-8.207-9.017-12.188-18.733-10.366-7,1.312-5.9,7.95-11.844,11.988-4.7,3.2-6.37,3.114-6.37,3.114s1.255,5.591,9.251,10.033q.737.409,1.552.8a36.268,36.268,0,0,0,4.488,1.8,46.827,46.827,0,0,0,10.789,2.306,30.375,30.375,0,0,0,5.345-.012c6.421-.613,9.178-3.289,9.178-3.289-5-7.853-1.982-8.457-3.656-16.377" transform="translate(-1297.683 -485.153)" fill="#ad3d3d"/>
        <path id="Path_71115" data-name="Path 71115" d="M1558.485,612.86c-7.179-3.01-6.575,3.14-7.419,7.531-.612,3.188-2.324,8.877-3.974,11.489a36.276,36.276,0,0,0,4.489,1.8,46.832,46.832,0,0,0,10.789,2.306,30.392,30.392,0,0,0,5.345-.012,19.291,19.291,0,0,0-1.491-3.7c-3.683-6.462-.56-16.4-7.739-19.409" transform="translate(-1431.609 -566.331)" fill="#8d312c"/>
        <path id="Path_71116" data-name="Path 71116" d="M1423.878,774.221h-.01c-.036.006.015,0,.01,0" transform="translate(-1317.571 -716.375)" fill="#d14e4e"/>
        <path id="Path_71117" data-name="Path 71117" d="M1434.217,770.917l-.014.006.014-.006" transform="translate(-1327.14 -713.318)" fill="#d14e4e"/>
        <path id="Path_71118" data-name="Path 71118" d="M1428.123,713.391c-.45.473-.892.953-1.352,1.416a11.7,11.7,0,0,1-1.466,1.274c-.172.123-.348.239-.527.352q-.142.09-.286.176c-.1.063-.215.116-.321.177-.436.255-.882.5-1.341.709-.108.05-.216.1-.325.148l-.077.033h0l.014-.006-.014.006h0l-.041.017-.152.06a3.06,3.06,0,0,1-.519.155l-.049.008h.009c.005,0-.046.007-.01,0h0l-.018,0a.177.177,0,0,0-.173.173.175.175,0,0,0,.173.173,3.928,3.928,0,0,0,1.172-.361,12.672,12.672,0,0,0,1.346-.705c.213-.125.417-.263.624-.4.174-.113.346-.229.514-.35a11.221,11.221,0,0,0,1.455-1.278,19.673,19.673,0,0,0,1.306-1.5l.151-.191c.05-.063-.032-.153-.091-.091" transform="translate(-1315.366 -660.071)" fill="#d14e4e"/>
        <path id="Path_71119" data-name="Path 71119" d="M1532.761,850.2c.007-.009.005-.007,0,0s-.009.012,0,0" transform="translate(-1418.343 -786.672)" fill="#d14e4e"/>
        <path id="Path_71120" data-name="Path 71120" d="M1526.159,764.912c-.177.645-.344,1.292-.537,1.932a11.482,11.482,0,0,1-.711,1.838c-.091.18-.188.357-.288.532q-.084.147-.172.293c-.062.1-.134.2-.2.3-.261.424-.537.841-.837,1.239l-.107.141-.028.037-.013.017h0l-.015.019-.028.036c-.067.084-.135.167-.205.248a3.048,3.048,0,0,1-.38.377l0,0,0,0-.013.01.007-.006,0,0-.042.03a.173.173,0,0,0,.175.3,3.77,3.77,0,0,0,.826-.83,12.949,12.949,0,0,0,.867-1.27c.128-.208.241-.422.359-.636.1-.183.2-.367.291-.554a11.124,11.124,0,0,0,.684-1.809,19.529,19.529,0,0,0,.453-1.976l.045-.247c.014-.08-.1-.115-.124-.034" transform="translate(-1408.849 -707.72)" fill="#d14e4e"/>
        <path id="Path_71121" data-name="Path 71121" d="M1524.259,859.4l-.01.008.006,0,0,0" transform="translate(-1410.471 -795.19)" fill="#d14e4e"/>
        <path id="Path_71122" data-name="Path 71122" d="M1466.671,795.374l-.008.006,0,0,.011-.009" transform="translate(-1357.177 -735.948)" fill="#d14e4e"/>
        <path id="Path_71123" data-name="Path 71123" d="M1451.111,776.43c-.191.22-.381.442-.583.652-.149.154-.29.314-.448.46-.069.064-.139.128-.21.189q-.054.046-.11.091l-.023.018.007-.006-.011.009,0,0-.008.006-.062.046a6.387,6.387,0,0,1-.541.349c-.115.067-.231.133-.347.2l-.2.112c-.089.049-.182.09-.208.2s.053.163.151.166a.567.567,0,0,0,.266-.115c.123-.071.246-.142.369-.214a5.508,5.508,0,0,0,1.034-.748,4.165,4.165,0,0,0,.407-.483c.16-.211.3-.438.447-.659l.137-.21c.027-.042-.037-.092-.07-.054" transform="translate(-1340.251 -718.407)" fill="#d14e4e"/>
        <path id="Path_71124" data-name="Path 71124" d="M1477.438,834.12c-.034.023-.069.045-.1.065a.377.377,0,0,0,.1-.065" transform="translate(-1367.057 -771.799)" fill="#d14e4e"/>
        <path id="Path_71125" data-name="Path 71125" d="M1477.307,835h0" transform="translate(-1367.033 -772.61)" fill="#d14e4e"/>
        <path id="Path_71126" data-name="Path 71126" d="M1476.564,830.46a.364.364,0,0,0,.033-.088c.014-.064-.072-.13-.12-.07a.219.219,0,0,1-.052.047.193.193,0,0,1,.031,0l-.05.013.019-.012a.256.256,0,0,0-.052.01.131.131,0,0,1-.052,0l.073.272h0c.035-.021.07-.043.1-.065a.185.185,0,0,0,.033-.041c.012-.02.019-.043.03-.064" transform="translate(-1366.12 -768.244)" fill="#d14e4e"/>
        <path id="Path_71127" data-name="Path 71127" d="M1476.258,806.132a2.619,2.619,0,0,1-.265.453c-.1.137-.2.277-.307.41a4.193,4.193,0,0,1-.738.714,4.977,4.977,0,0,1-.5.313.146.146,0,0,0-.06.182.144.144,0,0,0,.172.085l.035-.015-.073-.272a.13.13,0,0,0,.051,0,.266.266,0,0,1,.052-.01.217.217,0,0,0,.052-.047c.048-.06.134.006.12.07a.369.369,0,0,1-.033.088c-.011.021-.018.044-.03.064a.186.186,0,0,1-.033.041c.12-.08.235-.172.347-.261a4.2,4.2,0,0,0,.394-.359,4.289,4.289,0,0,0,.352-.415,2.6,2.6,0,0,0,.289-.457c.084-.182.165-.369.236-.557.014-.036-.047-.062-.063-.027" transform="translate(-1364.321 -745.887)" fill="#d14e4e"/>
        <path id="Path_71128" data-name="Path 71128" d="M1477.508,831.2a.2.2,0,0,0-.031,0l-.019.012.05-.013" transform="translate(-1367.172 -769.097)" fill="#d14e4e"/>
        <path id="Path_71129" data-name="Path 71129" d="M1561.987,611.32l0-.014,0,.014" transform="translate(-1445.39 -565.63)" fill="#ad3d3d"/>
        <path id="Path_71130" data-name="Path 71130" d="M1565.648,515.824a6.108,6.108,0,0,0-.72-.3,6.251,6.251,0,0,0-1.523-.309,6.564,6.564,0,0,0-1.562.051,6.412,6.412,0,0,0-1.485.429,5.914,5.914,0,0,0-2.4,1.875,6.547,6.547,0,0,0-1.2,2.723,7.028,7.028,0,0,0-.124,1.516,5.078,5.078,0,0,0,.091.771,2.954,2.954,0,0,0,.22.732c.025.052.048.105.073.161s.054.1.073.153a.092.092,0,0,0,.11.062.09.09,0,0,0,.062-.11,1.444,1.444,0,0,1-.045-.174c-.016-.069-.029-.125-.039-.191-.018-.119-.043-.236-.063-.355s-.049-.244-.068-.367q-.007-.044-.013-.089l0-.028,0,.014,0-.014,0-.03q-.011-.089-.019-.178a6.755,6.755,0,0,1,0-1.461c0-.015,0-.03.005-.045v-.009c0,.024,0-.023,0,0v-.009q.006-.044.013-.089.015-.1.032-.192.033-.177.075-.352a6.515,6.515,0,0,1,.211-.7,5.677,5.677,0,0,1,.281-.651,6.293,6.293,0,0,1,.366-.634,5.417,5.417,0,0,1,.425-.567,5.74,5.74,0,0,1,.509-.525,5.527,5.527,0,0,1,1.221-.835,6.038,6.038,0,0,1,1.4-.5,6.158,6.158,0,0,1,.728-.12c.12-.013.254-.028.386-.038s.247-.014.371-.013a6.419,6.419,0,0,1,1.486.191,6.976,6.976,0,0,1,1.4.533q.167.082.328.175c.059.034.105-.051.052-.09a4.329,4.329,0,0,0-.655-.41" transform="translate(-1440.433 -476.701)" fill="#ad3d3d"/>
        <path id="Path_71131" data-name="Path 71131" d="M1561.745,588.182c0-.023,0,.024,0,0" transform="translate(-1445.167 -544.23)" fill="#ad3d3d"/>
        <path id="Path_71132" data-name="Path 71132" d="M1878.169,679.981q-.079-.111-.156-.224-.133-.194-.262-.392c-.165-.254-.323-.513-.471-.777a10.053,10.053,0,0,1-.687-1.479,12.753,12.753,0,0,1-.653-3.166c-.061-.649-.1-1.3-.121-1.951-.025-.611-.038-1.217-.008-1.828.065-1.321.212-2.637.281-3.958a10.156,10.156,0,0,0-.356-3.978c-.051-.141-.106-.281-.164-.42a.069.069,0,0,0-.134.037c.076.305.112.614.158.924s.07.644.1.966a19.2,19.2,0,0,1,.051,2.055c-.031,1.341-.185,2.673-.268,4.011a26.855,26.855,0,0,0,.082,3.8,13.073,13.073,0,0,0,.621,3.268,12.336,12.336,0,0,0,1.628,3.053l.143.2a1.4,1.4,0,0,0,.184.193.1.1,0,0,0,.152-.117,1.515,1.515,0,0,0-.117-.22" transform="translate(-1735.443 -612.318)" fill="#d14e4e"/>
        <path id="Path_71133" data-name="Path 71133" d="M1844.811,721.327q-.177-.309-.354-.617a10.741,10.741,0,0,1-.537-1.024,7.85,7.85,0,0,1-.548-2.228,12.589,12.589,0,0,1-.124-1.709,10.78,10.78,0,0,1,.177-1.714c.213-1.2.543-2.374.808-3.562a15.822,15.822,0,0,0,.292-1.818,9.213,9.213,0,0,0,.017-1.823c-.014-.146-.036-.29-.06-.434-.01-.058-.1-.044-.1.014a13.853,13.853,0,0,1-.426,3.63c-.142.6-.278,1.2-.423,1.795s-.284,1.18-.391,1.777a12.954,12.954,0,0,0-.21,1.775,10.673,10.673,0,0,0,.1,1.753,9.362,9.362,0,0,0,.543,2.422,13.735,13.735,0,0,0,1.266,2.224,2.841,2.841,0,0,0,.264.358c.041.046.131,0,.108-.063a5.559,5.559,0,0,0-.4-.756" transform="translate(-1705.357 -653.584)" fill="#d14e4e"/>
        <path id="Path_71134" data-name="Path 71134" d="M1816.618,903.934v0" transform="translate(-1681.014 -836.39)" fill="#d14e4e"/>
        <path id="Path_71135" data-name="Path 71135" d="M1816.714,904.655v0s0,0,0,0" transform="translate(-1681.104 -837.062)" fill="#d14e4e"/>
        <path id="Path_71136" data-name="Path 71136" d="M1811.025,822.882a3.639,3.639,0,0,1-.26-.731c-.03-.126-.055-.253-.075-.38,0-.029-.008-.057-.012-.086,0,0,0,0,0,0v0l-.007-.049h0v0l0-.032q-.012-.1-.021-.192c-.026-.269-.039-.538-.052-.808-.013-.3-.026-.593-.049-.889-.026-.341-.07-.679-.091-1.02a7.4,7.4,0,0,1,0-.891,6.88,6.88,0,0,1,.092-.753c.044-.265.1-.528.159-.79.033-.146.07-.292.1-.439.031-.168.062-.336.1-.5q.031-.135.061-.27a.052.052,0,0,0-.1-.028c-.047.175-.091.351-.149.523-.051.152-.1.3-.148.459-.077.271-.152.542-.216.816a6.419,6.419,0,0,0-.151,1.653c.011.345.051.688.081,1.031.026.306.041.612.054.919a9.723,9.723,0,0,0,.151,1.631,4.057,4.057,0,0,0,.246.768,3.766,3.766,0,0,0,.19.377,3.1,3.1,0,0,0,.28.385c.05.063.1.124.155.184s.182-.023.128-.1a5.692,5.692,0,0,1-.454-.787" transform="translate(-1675.069 -754.093)" fill="#d14e4e"/>
        <path id="Path_71137" data-name="Path 71137" d="M1397.938,642.862a26.311,26.311,0,0,1-2.191,1.687q-1.131.782-2.328,1.461-.3.17-.6.334c-.2.106-.4.2-.6.3q-.583.3-1.178.576c-.739.343-1.489.662-2.252.945a18.965,18.965,0,0,1-2.055.644,1.519,1.519,0,0,0-.247.089c-.115.05-.057.244.064.235a1.3,1.3,0,0,0,.262-.04l.247-.069c.168-.049.335-.1.5-.153q.526-.164,1.044-.355,1.154-.424,2.267-.954.594-.283,1.176-.591c.395-.209.778-.436,1.164-.66q1.2-.693,2.328-1.489a27.079,27.079,0,0,0,2.177-1.7q.128-.112.255-.225c.024-.021-.011-.056-.035-.035" transform="translate(-1282.935 -594.825)" fill="#ad3d3d"/>
        <path id="Path_71138" data-name="Path 71138" d="M1420.867,787.338l0,0,0,0" transform="translate(-1314.799 -728.504)" fill="#ad3d3d"/>
        <path id="Path_71139" data-name="Path 71139" d="M1398.184,734.6c.028.008-.014-.008-.021-.012l-.04-.02c-.027-.014-.053-.027-.081-.039-.062-.026-.126-.048-.187-.073-.113-.046-.217-.1-.34-.137q-.355-.121-.7-.262c-.467-.189-.951-.416-1.413-.656a22.23,22.23,0,0,1-2.752-1.7,19.44,19.44,0,0,1-2.245-1.87,11.789,11.789,0,0,1-.829-.885l-.081-.1-.036-.045-.021-.027-.015-.019,0,0,0,0q-.081-.106-.159-.216c-.169-.239-.331-.484-.487-.732a15.413,15.413,0,0,1-1.587-3.312q-.068-.205-.129-.413a.092.092,0,0,0-.176.049,14.946,14.946,0,0,0,1.439,3.417,12.47,12.47,0,0,0,.869,1.359,9.806,9.806,0,0,0,.777.9,17.982,17.982,0,0,0,2.2,1.905,22.662,22.662,0,0,0,2.741,1.766c.467.255.945.491,1.433.7.245.107.492.208.742.3q.182.068.365.13a3,3,0,0,0,.354.084c.056.012.112.025.168.035a1.008,1.008,0,0,0,.1.011l.045,0h.015q.039-.006.009,0a.077.077,0,0,0,.041-.148" transform="translate(-1283.355 -669.917)" fill="#ad3d3d"/>
        <path id="Path_71140" data-name="Path 71140" d="M1699.118,723.82a2.3,2.3,0,0,0-2.151-.05.566.566,0,0,0-.392.27l-1.772,3.2c-.121,1.673,2.123,1.712,3.163,1.1a3.743,3.743,0,0,0,1.638-3.487,1.512,1.512,0,0,0-.485-1.028" transform="translate(-1568.288 -669.468)" fill="#faba97"/>
        <path id="Path_71141" data-name="Path 71141" d="M1581.873,685.121c-.088,0-1.594-.015-2.114-.978-.261-.483.1-1.259,1.176-2.517.71-.832,1.462-1.549,1.494-1.579l.421.443c-.008.007-.763.728-1.453,1.537-1.263,1.48-1.1,1.823-1.1,1.826.291.539,1.237.658,1.577.658v.611Z" transform="translate(-1461.762 -629.238)" fill="#d34f9b"/>
        <path id="Path_71142" data-name="Path 71142" d="M1639.98,660.193a.3.3,0,0,1-.243-.121c-1.474-1.939-2.927-.991-2.989-.949a.305.305,0,0,1-.346-.5c.679-.47,2.352-.849,3.82,1.083a.306.306,0,0,1-.243.491" transform="translate(-1514.131 -609.06)" fill="#00276f"/>
        <path id="Path_71143" data-name="Path 71143" d="M1584.6,646.071a.3.3,0,0,1-.257-.141,1.185,1.185,0,0,0-1.724-.419.306.306,0,0,1-.288-.539,1.781,1.781,0,0,1,2.526.628.306.306,0,0,1-.257.471" transform="translate(-1464.07 -596.526)" fill="#00276f"/>
        <path id="Path_71144" data-name="Path 71144" d="M1589.32,764.81c1.934.577,3.327-1.577,3.327-1.577l-4.186-.222s-.085,1.517.858,1.8" transform="translate(-1469.888 -706.004)" fill="#fff"/>
        <path id="Path_71145" data-name="Path 71145" d="M1644.538,801.218l-.016-.611.008.306-.008-.306a6.744,6.744,0,0,0,4.345-1.881l.456.407a7.246,7.246,0,0,1-4.784,2.086" transform="translate(-1521.766 -739.05)" fill="#d34f9b"/>
        <path id="Path_71146" data-name="Path 71146" d="M1614.2,773.18l-.733,6.108s-.344,3.241,4.96,4.037a5.855,5.855,0,0,0,5.919-2.5l-1-11.245Z" transform="translate(-1493.023 -712.084)" fill="#faba97"/>
        <path id="Path_71147" data-name="Path 71147" d="M1560.492,567.931a30.178,30.178,0,0,0-2.289,9.271,13.7,13.7,0,0,0,.242,3.588,6.5,6.5,0,0,0,2.613,4.134,5.867,5.867,0,0,0,4.9.227c4.176-1.3,7.04-4.252,7.994-7.017,1.2-3.477-7-17.353-13.463-10.2" transform="translate(-1441.869 -523.631)" fill="#faba97"/>
        <path id="Path_71148" data-name="Path 71148" d="M1620.962,800.745a8.521,8.521,0,0,1-4.724.733l-.139-.017-.479,3.988c5.009.184,7.278-5.808,7.413-6.182a6.417,6.417,0,0,1-2.071,1.477" transform="translate(-1495.021 -739.551)" fill="#f5927e"/>
        <path id="Path_71149" data-name="Path 71149" d="M1717.495,717.734a1.748,1.748,0,0,0-2.786.815l-.767,2.229a1.366,1.366,0,0,0,1.608,1.6,2.224,2.224,0,0,0,1.03-.536,3.862,3.862,0,0,0,1.33-2.9,1.618,1.618,0,0,0-.416-1.2" transform="translate(-1585.998 -663.743)" fill="#faba97"/>
        <path id="Path_71150" data-name="Path 71150" d="M1596.553,765.921a2.284,2.284,0,0,0-.774-.153,6.277,6.277,0,0,1-2.329-.63,2.813,2.813,0,0,0-.412-.174.775.775,0,0,0-.238-.018.686.686,0,0,0-.519.7,2.164,2.164,0,0,0,.574,1.527,2.6,2.6,0,0,0,.9.652,2.82,2.82,0,0,0,2.463-.119,2.039,2.039,0,0,0,.3-.209,1.175,1.175,0,0,0,.462-1.136.663.663,0,0,0-.423-.44" transform="translate(-1473.421 -707.789)" fill="#383939"/>
        <path id="Path_71151" data-name="Path 71151" d="M1601.816,765.4a2.813,2.813,0,0,0-.412-.174.683.683,0,0,0-.051.529.84.84,0,0,0,.4.371,5.261,5.261,0,0,0,2.219.643.994.994,0,0,0,.622-.1.838.838,0,0,0,.325-.482,2.287,2.287,0,0,0-.774-.153,6.275,6.275,0,0,1-2.329-.63" transform="translate(-1481.787 -708.055)" fill="#fff"/>
        <path id="Path_71152" data-name="Path 71152" d="M1600.019,790.632a2.6,2.6,0,0,0,.9.652,2.82,2.82,0,0,0,2.463-.119,3.136,3.136,0,0,0-1.915-.855,2.094,2.094,0,0,0-1.447.323" transform="translate(-1480.585 -731.249)" fill="#f08372"/>
        <path id="Path_71153" data-name="Path 71153" d="M1593.154,685.708a.208.208,0,0,1-.152-.066c-.351-.373-1.484-1.636-1.3-2.21.1-.31.5-.468,1.27-.5a8.336,8.336,0,0,1,.836.016,12.2,12.2,0,0,0,.549-3.67.209.209,0,0,1,.208-.21h0a.209.209,0,0,1,.209.208,11.836,11.836,0,0,1-.644,3.979.208.208,0,0,1-.21.121c-.949-.09-1.771.023-1.819.177-.064.205.5,1.045,1.21,1.8a.209.209,0,0,1-.152.353" transform="translate(-1472.867 -628.336)" fill="#de7360"/>
        <path id="Path_71154" data-name="Path 71154" d="M1659.954,706.74a.689.689,0,1,0,.372.813.636.636,0,0,0-.372-.813" transform="translate(-1535.33 -653.919)" fill="#0f1231"/>
        <path id="Path_71155" data-name="Path 71155" d="M1582.558,696.64a.689.689,0,1,0,.372.813.636.636,0,0,0-.372-.813" transform="translate(-1463.711 -644.574)" fill="#0f1231"/>
        <path id="Path_71156" data-name="Path 71156" d="M1656.729,728.849a2,2,0,1,0,2.122,2.267,2.218,2.218,0,0,0-2.122-2.267" transform="translate(-1530.595 -674.368)" fill="#f08372"/>
        <path id="Path_71157" data-name="Path 71157" d="M1558.2,717.006a13.7,13.7,0,0,0,.242,3.588,1.876,1.876,0,0,0,1.29-1.469,2.076,2.076,0,0,0-1.532-2.12" transform="translate(-1441.868 -663.435)" fill="#f08372"/>
        <path id="Path_71158" data-name="Path 71158" d="M1658.106,671.09a.209.209,0,0,1-.189-.12,2.154,2.154,0,0,0-2.9-1.034.209.209,0,0,1-.169-.382,2.593,2.593,0,0,1,3.443,1.238.209.209,0,0,1-.189.3" transform="translate(-1531.21 -619.31)" fill="#59261b"/>
        <path id="Path_71159" data-name="Path 71159" d="M1568.5,662.387a.209.209,0,0,1-.163-.34,2.592,2.592,0,0,1,3.638-.386.209.209,0,0,1-.255.331,2.154,2.154,0,0,0-3.057.318.209.209,0,0,1-.163.078" transform="translate(-1451.225 -611.672)" fill="#59261b"/>
        <path id="Path_71160" data-name="Path 71160" d="M1727.041,708.688c-1.049-.16-2.083.919-2.31,2.41s.438,2.83,1.487,2.99,2.083-.919,2.31-2.41-.438-2.83-1.487-2.99" transform="translate(-1595.946 -655.724)" fill="#f5927e"/>
        <path id="Path_71161" data-name="Path 71161" d="M1725.431,719.172a3.455,3.455,0,0,0-.7,1.641c-.227,1.491.438,2.83,1.487,2.99.034.005.068,0,.1,0a4.074,4.074,0,0,0,.469-1.386c.231-1.513-.367-2.882-1.358-3.247" transform="translate(-1595.946 -665.439)" fill="#faba97"/>
        <path id="Path_71162" data-name="Path 71162" d="M1583.764,527.341a6.277,6.277,0,0,0-3.56-.613c-1.23,0-1.311-.814-2.4-1.314-1.605-.736-3.525.1-4.951,1.034a4.872,4.872,0,0,0-.857,7.159,14.2,14.2,0,0,1,5.769-2.738,22.885,22.885,0,0,0,7.777,9.342,15.1,15.1,0,0,0,1.476-3.326,9.893,9.893,0,0,0-1.647-7.857,5.679,5.679,0,0,0-1.607-1.687" transform="translate(-1453.559 -485.899)" fill="#ad3d3d"/>
        <path id="Path_71163" data-name="Path 71163" d="M1762.115,727.29l-.011,0,.011,0" transform="translate(-1630.57 -672.946)" fill="#ad3d3d"/>
        <path id="Path_71164" data-name="Path 71164" d="M1773.018,730.471l-.016,0,.016,0" transform="translate(-1640.655 -675.892)" fill="#ad3d3d"/>
        <path id="Path_71165" data-name="Path 71165" d="M1783.181,730.787l-.041,0-.019,0Z" transform="translate(-1650.019 -676.183)" fill="#ad3d3d"/>
        <path id="Path_71166" data-name="Path 71166" d="M1781.255,730.785h0" transform="translate(-1648.286 -676.185)" fill="#ad3d3d"/>
        <path id="Path_71167" data-name="Path 71167" d="M1737.132,712.032l-.005,0,.005,0" transform="translate(-1607.455 -658.827)" fill="#ad3d3d"/>
        <path id="Path_71168" data-name="Path 71168" d="M1673.126,605.758a2.521,2.521,0,0,1-.275.07l.041,0h-.06l.019,0-.053,0-.049,0c-.014,0-.035,0-.049,0h0a.09.09,0,0,0-.024,0h-.041c-.034,0-.066,0-.1,0a2.682,2.682,0,0,1-.338-.005l-.085-.009-.018,0-.016,0,.016,0-.034,0q-.086-.013-.172-.032a3.335,3.335,0,0,1-.349-.1q-.08-.027-.159-.058l-.083-.033-.032-.014.011,0-.011,0-.038-.017c-.107-.047-.213-.1-.317-.153-.2-.106-.4-.22-.595-.339s-.378-.241-.561-.37q-.138-.1-.274-.2l-.066-.05-.01-.008.005,0-.005,0-.027-.021-.136-.108a12.419,12.419,0,0,1-1-.9q-.484-.486-.919-1.018c-.287-.35-.548-.7-.812-1.07-.527-.748-1-1.531-1.455-2.326a10.371,10.371,0,0,1-.67-1.39,3.916,3.916,0,0,1-.289-1.463c0-.123.005-.246.014-.368,0-.03-.04-.031-.049-.007a2.676,2.676,0,0,0-.028,1.524,6.28,6.28,0,0,0,.587,1.484,24.694,24.694,0,0,0,1.451,2.432,18.256,18.256,0,0,0,1.736,2.211,12.008,12.008,0,0,0,2.089,1.808,7.539,7.539,0,0,0,1.226.691,3.812,3.812,0,0,0,.718.238,1.953,1.953,0,0,0,.777.032.93.93,0,0,0,.161-.056.684.684,0,0,0,.145-.083l-.03.013.05-.029-.02.016a1.252,1.252,0,0,0,.256-.157c.054-.042.027-.15-.051-.122" transform="translate(-1539.73 -551.228)" fill="#ad3d3d"/>
        <path id="Path_71169" data-name="Path 71169" d="M1783.922,733.385l.029-.013.02-.016-.049.029" transform="translate(-1650.76 -678.564)" fill="#ad3d3d"/>
        <path id="Path_71170" data-name="Path 71170" d="M1585.12,532.123a4.13,4.13,0,0,0-1.321.292,5.1,5.1,0,0,0-1.19.7,5.281,5.281,0,0,0-1.428,1.78,5.809,5.809,0,0,0-.6,2.218,5.359,5.359,0,0,0,.318,2.247,1.575,1.575,0,0,0,.123.26.069.069,0,0,0,.125-.053c-.048-.181-.116-.355-.167-.535a5.16,5.16,0,0,1-.119-.533,5.479,5.479,0,0,1-.072-1.09,5.818,5.818,0,0,1,.483-2.12,5.266,5.266,0,0,1,1.266-1.785,5,5,0,0,1,1.018-.721,4.437,4.437,0,0,1,1.226-.449,3.313,3.313,0,0,1,2.424.468,2.776,2.776,0,0,1,.25.188c.054.045.132-.031.078-.078a3.345,3.345,0,0,0-2.411-.79" transform="translate(-1462.583 -492.36)" fill="#d14e4e"/>
        <path id="Path_71171" data-name="Path 71171" d="M1677.167,590.339q-.039-.144-.09-.285a3.522,3.522,0,0,0-.25-.541,3.864,3.864,0,0,0-.7-.874,14.8,14.8,0,0,0-1.872-1.379,11.174,11.174,0,0,1-.991-.752c-.353-.306-.683-.641-1.016-.97-.174-.173-.346-.347-.514-.527s-.328-.365-.5-.542a9.912,9.912,0,0,1-.92-1.127,9.018,9.018,0,0,1-.744-1.227,6.994,6.994,0,0,1-.285-.651q-.062-.163-.114-.329c-.037-.116-.064-.236-.105-.351s-.075-.223-.108-.335c-.006-.022-.043-.019-.041.006q.016.18.042.359a2.438,2.438,0,0,0,.089.347,6.792,6.792,0,0,0,.243.67,8.382,8.382,0,0,0,.674,1.27,12.837,12.837,0,0,0,.86,1.177c.155.19.306.384.471.566s.334.36.5.538c.335.349.661.709,1.01,1.044a9.3,9.3,0,0,0,1,.818c.631.455,1.321.857,1.907,1.352a3.67,3.67,0,0,1,1.231,1.821c.013.048.024.1.037.144a1.3,1.3,0,0,0,.068.162c.036.085.161.035.163-.044a.806.806,0,0,0-.007-.18c-.011-.053-.025-.106-.039-.158" transform="translate(-1544.339 -537.067)" fill="#d14e4e"/>
        <path id="Path_71172" data-name="Path 71172" d="M1702.677,577.758c-.024-.1-.049-.2-.078-.3a4.692,4.692,0,0,0-.18-.516,3.721,3.721,0,0,0-.5-.849,8.677,8.677,0,0,0-1.378-1.284c-.308-.256-.6-.522-.9-.794l-.939-.869c-.137-.126-.269-.259-.411-.379s-.262-.223-.387-.343a6.438,6.438,0,0,1-.646-.7,4.321,4.321,0,0,1-.5-.818,4.79,4.79,0,0,1-.2-.5c-.064-.19-.108-.385-.163-.577-.031-.106-.073-.209-.106-.314-.007-.022-.043-.019-.041.006.007.11.011.223.028.333a3.03,3.03,0,0,0,.074.309,5.565,5.565,0,0,0,.172.538,4.5,4.5,0,0,0,.454.894,5.687,5.687,0,0,0,.6.743c.115.122.233.241.353.358.062.06.121.122.181.184s.129.123.195.184c.3.274.6.55.884.838.16.161.317.323.484.476q.22.2.447.394a14.3,14.3,0,0,1,1.463,1.292c.049.054.1.11.141.167l.025.032,0,0,0,0,.03.04q.037.049.072.1a3.3,3.3,0,0,1,.234.4,4.834,4.834,0,0,1,.368,1.03q.019.079.036.158a.732.732,0,0,0,.066.162c.041.085.158.035.163-.044a.628.628,0,0,0-.005-.18q-.017-.083-.036-.166" transform="translate(-1569.632 -526.946)" fill="#d14e4e"/>
        <path id="Path_71173" data-name="Path 71173" d="M1769.877,659.944l0,0,0,0" transform="translate(-1637.764 -610.637)" fill="#d14e4e"/>
        <path id="Path_71174" data-name="Path 71174" d="M1590.947,578.96a1.469,1.469,0,0,0-.121.12c-.037.047-.072.1-.11.143a3.376,3.376,0,0,1-.235.259,3.812,3.812,0,0,1-.533.439,5.518,5.518,0,0,1-.619.347c-.211.107-.426.2-.646.288-.448.175-.907.31-1.368.446a6.382,6.382,0,0,0-1.6.631,2.619,2.619,0,0,0-.635.545,1.947,1.947,0,0,0-.238.36,1.151,1.151,0,0,0-.137.423.117.117,0,0,0,.217.059c.053-.115.087-.222.145-.332a2.007,2.007,0,0,1,.19-.288,2.323,2.323,0,0,1,.531-.483,5.548,5.548,0,0,1,1.534-.625c.464-.137.925-.287,1.374-.469.229-.093.455-.193.674-.306a3.35,3.35,0,0,0,.306-.17c.1-.064.191-.131.284-.2a4.811,4.811,0,0,0,.6-.5,3.5,3.5,0,0,0,.259-.3c.041-.053.082-.108.12-.164a.745.745,0,0,0,.077-.181c.013-.037-.038-.063-.064-.037" transform="translate(-1466.41 -535.693)" fill="#d14e4e"/>
        <path id="Path_71175" data-name="Path 71175" d="M1592.239,568.022c-.116-.008-.233-.011-.35-.016a2.075,2.075,0,0,0-.34.02,6.133,6.133,0,0,0-1.977.577,5.648,5.648,0,0,0-2.125,1.768c-.091.126-.175.257-.255.389a2.994,2.994,0,0,0-.2.4c-.06.143-.138.278-.2.42a2.6,2.6,0,0,0-.16.427.032.032,0,0,0,.059.025c.133-.235.239-.484.371-.719.063-.113.151-.21.221-.318s.15-.227.23-.337a6.089,6.089,0,0,1,.932-1.025,6.26,6.26,0,0,1,2.306-1.291,5.746,5.746,0,0,1,.728-.167c.122-.02.248-.026.369-.05a3.741,3.741,0,0,1,.39-.052.025.025,0,0,0,0-.049" transform="translate(-1468.196 -525.566)" fill="#d14e4e"/>
        <path id="Path_71176" data-name="Path 71176" d="M1678.45,525.379c8.475,3.008,11.71,5.591,6.971,18.3,0,0,7.313-7.655,2.98-13.769a10.641,10.641,0,0,0-9.951-4.529" transform="translate(-1553.161 -486.058)" fill="#352029"/>
        <path id="Path_71177" data-name="Path 71177" d="M1741.867,475.555a4.285,4.285,0,0,0-.663,2.8,1.534,1.534,0,1,0,2.046-.594,2.96,2.96,0,0,0-1.383-2.209" transform="translate(-1611.212 -440.024)" fill="#352029"/>
        <path id="Path_71178" data-name="Path 71178" d="M1760.6,505.87c-2.219,1.048-2.454,2.556-2.454,2.556a3.877,3.877,0,0,0,3.025-.112,5.038,5.038,0,0,0,2.492-2.3,3.479,3.479,0,0,0-3.062-.146" transform="translate(-1626.911 -467.799)" fill="#352029"/>
        <path id="Path_71179" data-name="Path 71179" d="M1184.281,902.4c-3.436-3.04-7.9-.923-7.9-.923a1.934,1.934,0,0,0-.963,2.964,2.1,2.1,0,0,0-.787,3.219q.074.088.161.175a2.411,2.411,0,0,0,.454,3.2,2.235,2.235,0,0,0,.756,2.359c1.213.99,3.841.775,3.841.775s.525,1.943,3.413,3c0,0,3.168-6.805,3.419-9.261.084-.826.424-3.014-2.389-5.5" transform="translate(-1086.521 -833.464)" fill="#faba97"/>
        <path id="Path_71180" data-name="Path 71180" d="M1197.222,930.513a44.761,44.761,0,0,1,4.013,2.674,4.186,4.186,0,0,0,1.748,5.134l1.975-7.8-8.282-3.285s-1.481,2.111.546,3.28" transform="translate(-1106.867 -857.955)" fill="#faba97"/>
        <path id="Path_71181" data-name="Path 71181" d="M1185.961,994.433c-1.306,0-4.5-.086-5.641-.893a.166.166,0,0,1,.192-.272c1.327.94,5.955.828,6,.826a.166.166,0,0,1,.009.333c-.038,0-.244.006-.562.006" transform="translate(-1092.149 -919.029)" fill="#f7a18a"/>
        <path id="Path_71182" data-name="Path 71182" d="M1189.37,1036.851a7.8,7.8,0,0,1-2.929-.521.166.166,0,0,1,.126-.308,9.581,9.581,0,0,0,5.348.185.166.166,0,0,1,.088.321,10.831,10.831,0,0,1-2.633.323" transform="translate(-1097.783 -958.605)" fill="#f7a18a"/>
        <path id="Path_71183" data-name="Path 71183" d="M1248.091,1062.623a.166.166,0,0,1-.058-.322c.594-.223,1.55-.724,1.583-1.123a.166.166,0,1,1,.331.028c-.063.736-1.621,1.34-1.8,1.406a.164.164,0,0,1-.058.011" transform="translate(-1154.773 -981.752)" fill="#f7a18a"/>
        <path id="Path_71184" data-name="Path 71184" d="M1218.358,839.543a1.281,1.281,0,0,1-.054-1.416l.578-.947-7.492,1.047-.49,1.911a1.419,1.419,0,0,0,1.124,1.75l6.26,1.12a.586.586,0,0,0,.688-.559l.053-1.774a.587.587,0,0,0-.11-.361Z" transform="translate(-1120.47 -774.63)" fill="#232163"/>
        <path id="Path_71185" data-name="Path 71185" d="M1202.536,902.217a9.847,9.847,0,0,1-.219,2.3l-.234,1.085c-.178.826-.492,2.869-.9,4.863-.15.729-.36,1.67-.576,2.521a1.725,1.725,0,0,0,1.325,2.117l2.6.531a1.724,1.724,0,0,0,2.051-1.448c.153-1.081.3-2.17.331-2.345l1.837-10.521-6.26-1.12Z" transform="translate(-1110.937 -832.944)" fill="#232163"/>
        <path id="Path_71186" data-name="Path 71186" d="M1232.454,903.127l.315-1.8-6.26-1.12Z" transform="translate(-1134.956 -832.944)" fill="#171448"/>
        <path id="Path_71187" data-name="Path 71187" d="M1057.892,627.72l-2.393-.316a2.528,2.528,0,0,1,1.155.473,3.241,3.241,0,0,1,.378.317c1.729,1.672,2.593,5.74,1.991,10.31s-2.5,8.294-4.612,9.45a3.333,3.333,0,0,1-.429.2,2.54,2.54,0,0,1-1.238.156l2.393.316c2.707.357,5.519-4.031,6.279-9.8s-.817-10.742-3.524-11.1" transform="translate(-974.161 -580.528)" fill="#de4611"/>
        <path id="Path_71188" data-name="Path 71188" d="M1009.437,627.152c-1.315-.174-2.655.774-3.773,2.457a17.841,17.841,0,0,0-2.506,7.348,17.525,17.525,0,0,0,.6,7.991c.649,1.779,1.664,2.941,2.923,3.107,1.85.244,3.749-1.728,5.008-4.845a20.491,20.491,0,0,0,1.271-4.959,20.284,20.284,0,0,0,.02-5.406c-.448-3.188-1.748-5.457-3.544-5.694" transform="translate(-928.1 -580.276)" fill="#ffa022"/>
        <path id="Path_71189" data-name="Path 71189" d="M1044.389,734.9a4.906,4.906,0,0,1-.155.739c-.271.924-.778,1.549-1.269,1.485l6.429,1.41a22.212,22.212,0,0,0,.77-5.844l-6.574-.308c.614.081.972,1.208.8,2.519" transform="translate(-965.112 -677.665)" fill="#f8b10f"/>
        <path id="Path_71190" data-name="Path 71190" d="M1033.133,732.324c-.614-.081-1.252.915-1.425,2.225s.185,2.437.8,2.518,1.252-.915,1.425-2.225-.185-2.437-.8-2.518" transform="translate(-954.656 -677.604)" fill="#ffcf0d"/>
        <path id="Path_71191" data-name="Path 71191" d="M1378.779,736.01l-3.085-1.939c.038.026.075.052.111.082.019.016.038.032.057.049a2.173,2.173,0,0,1,.274.288c.018.021.034.044.051.067a2.927,2.927,0,0,1,.208.319c.031.054.061.11.09.168.043.086.085.176.124.27l.039.1c.013.032.026.064.037.1s.025.069.037.1.023.065.033.1c.034.1.066.21.1.32.015.054.029.11.043.166s.029.125.043.187c.007.034.013.068.02.1.025.118.045.239.064.362a11.58,11.58,0,0,1-.793,6.028h0c-.026.06-.053.118-.08.176l-.076.157-.01.021-.044.086c-.027.053-.055.1-.083.156s-.056.1-.084.149c-.038.067-.077.131-.117.194s-.077.122-.117.18a4.683,4.683,0,0,1-.374.481l-.064.071-.065.067a2.778,2.778,0,0,1-.539.432c-.023.014-.046.027-.068.039a1.788,1.788,0,0,1-.278.125l3.482-1.071h0c.959-.194,1.886-1.8,2.155-3.846a7.4,7.4,0,0,0-.112-2.742,2.278,2.278,0,0,0-.973-1.532" transform="translate(-1271.646 -679.225)" fill="#ff8222"/>
        <path id="Path_71192" data-name="Path 71192" d="M1344.973,728.028l-1.8-.237a1.49,1.49,0,0,1,.854.447,2.517,2.517,0,0,1,.366.465,8.3,8.3,0,0,1,.707,5.159c-.3,2.278-1.184,4.163-2.21,4.962a2.312,2.312,0,0,1-.283.19,1.488,1.488,0,0,1-.941.21l1.795.237c1.48.2,3.018-2.2,3.434-5.362s-.447-5.876-1.927-6.071" transform="translate(-1241.521 -673.414)" fill="#de4611"/>
        <path id="Path_71193" data-name="Path 71193" d="M1139.836,661.57a1.489,1.489,0,0,0-.854-.447,38.186,38.186,0,0,1-5.839-1.242l-.331-.1q-1.274-.39-2.52-.869-.654-.251-1.3-.526-.717-.307-1.425-.644l-1.288-.614-2.911-1.388h0c1.193,2.014,1.713,5.48,1.21,9.3-.073.554-.165,1.095-.274,1.62a14.134,14.134,0,0,1-3.3,7.045v0l3.172-.585,1.405-.259q.768-.142,1.539-.25.694-.1,1.388-.171,1.328-.141,2.66-.186a38.144,38.144,0,0,1,6.3.3h0a1.488,1.488,0,0,0,.941-.21,2.305,2.305,0,0,0,.283-.19c1.026-.8,1.91-2.684,2.21-4.962.046-.347.076-.688.092-1.021a7.492,7.492,0,0,0-.8-4.138,2.533,2.533,0,0,0-.366-.465" transform="translate(-1037.325 -606.747)" fill="#ffc322"/>
        <path id="Path_71194" data-name="Path 71194" d="M1135.686,798.267c-2.633.482-7.941-1.168-11.379-2.4a14.135,14.135,0,0,1-3.3,7.045v0l3.172-.585,1.405-.259q.768-.142,1.539-.25.694-.1,1.388-.171,1.328-.141,2.66-.186a38.144,38.144,0,0,1,6.3.3h0a1.488,1.488,0,0,0,.941-.21,2.33,2.33,0,0,0,.283-.19c1.026-.8,1.91-2.684,2.21-4.962.046-.347.076-.688.092-1.021a9.577,9.577,0,0,1-5.314,2.885" transform="translate(-1037.325 -735.955)" fill="#ffa022"/>
        <path id="Path_71195" data-name="Path 71195" d="M1197.435,701.282c-3.836-.72-7.36-3.96-7.194-1.911s6.348,4.941,9.059,5.057c2.195.094,2.562-1.18,2.562-1.18.339-1.294-1.214-1.363-4.427-1.966" transform="translate(-1101.39 -646.499)" fill="#ffdc22"/>
        <path id="Path_71196" data-name="Path 71196" d="M1042.876,627.152c-1.315-.174-2.655.774-3.773,2.457a7.23,7.23,0,0,1,5.253,1.081,7.1,7.1,0,0,1,2.064,2.156c-.448-3.188-1.748-5.457-3.544-5.694" transform="translate(-961.539 -580.276)" fill="#ff7c22"/>
        <path id="Path_71197" data-name="Path 71197" d="M1197.222,930.513a44.761,44.761,0,0,1,4.013,2.674,4.186,4.186,0,0,0,1.748,5.134l1.975-7.8-8.282-3.285s-1.481,2.111.546,3.28" transform="translate(-1106.867 -857.955)" fill="#faba97"/>
        <path id="Path_71198" data-name="Path 71198" d="M1181.426,953.311a44.721,44.721,0,0,0-4.013-2.674,1.877,1.877,0,0,1-1.067-1.728l-.139.052a2.111,2.111,0,0,0-1.042,3.319c.049.059.1.117.16.175a2.411,2.411,0,0,0,.455,3.2,2.234,2.234,0,0,0,.756,2.359c1.213.99,3.841.774,3.841.774s1.633-.611,1.691-1.263a4.328,4.328,0,0,1-.641-4.21" transform="translate(-1087.018 -878.011)" fill="#faba97"/>
        <path id="Path_71199" data-name="Path 71199" d="M1186.5,995.335c-1.307,0-4.5-.086-5.641-.893a.166.166,0,1,1,.192-.271c1.327.94,5.955.827,6,.826a.168.168,0,0,1,.171.162.166.166,0,0,1-.162.171c-.038,0-.244.006-.562.006" transform="translate(-1092.646 -919.863)" fill="#f7a18a"/>
        <path id="Path_71200" data-name="Path 71200" d="M1189.907,1037.755a7.8,7.8,0,0,1-2.929-.521.166.166,0,0,1,.126-.308,9.565,9.565,0,0,0,5.348.185.166.166,0,0,1,.088.321,10.833,10.833,0,0,1-2.633.323" transform="translate(-1098.28 -959.441)" fill="#f7a18a"/>
        <path id="Path_71201" data-name="Path 71201" d="M1177.578,956.97a5.685,5.685,0,0,1-3.3-.825,2.41,2.41,0,0,1-.843-2.431,2.554,2.554,0,0,1-.484-3.227c-.028-.03-.054-.061-.08-.091a2.148,2.148,0,0,1-.413-2.005,2.333,2.333,0,0,1,1.524-1.582l.132-.049a.166.166,0,0,1,.224.159,1.727,1.727,0,0,0,.988,1.578,45.236,45.236,0,0,1,4.037,2.676.167.167,0,0,1,.054.2,4.191,4.191,0,0,0,.622,4.037.166.166,0,0,1,.04.123c-.063.735-1.617,1.342-1.794,1.408a.164.164,0,0,1-.045.01c-.033,0-.289.023-.665.023m-3.561-9.82a2,2,0,0,0-1.237,1.333,1.82,1.82,0,0,0,.348,1.7c.047.055.1.11.151.164a.167.167,0,0,1,.02.212,2.23,2.23,0,0,0,.435,2.976.166.166,0,0,1,.048.177,2.052,2.052,0,0,0,.709,2.176c1.092.887,3.446.748,3.7.73.563-.216,1.429-.673,1.546-1.056a4.49,4.49,0,0,1-.67-4.2,44.574,44.574,0,0,0-3.9-2.581,2.092,2.092,0,0,1-1.146-1.636" transform="translate(-1084.858 -876.013)" fill="#f7a18a"/>
        <path id="Path_71202" data-name="Path 71202" d="M1200.92,936.428a.166.166,0,0,1-.086-.024,4.333,4.333,0,0,1-1.859-5.216,44.642,44.642,0,0,0-3.9-2.59,2.131,2.131,0,0,1-1.1-1.386,3.032,3.032,0,0,1,.505-2.134.166.166,0,0,1,.2-.059l7.32,2.922a.162.162,0,0,1,.029.015l2,1.289a.166.166,0,0,1-.18.279l-1.984-1.28-7.177-2.865a2.621,2.621,0,0,0-.383,1.762,1.815,1.815,0,0,0,.945,1.168,45.322,45.322,0,0,1,4.031,2.686.166.166,0,0,1,.053.2,3.986,3.986,0,0,0,1.681,4.929.166.166,0,0,1-.087.308" transform="translate(-1104.804 -855.896)" fill="#f7a18a"/>
        <path id="Path_71203" data-name="Path 71203" d="M952.587,657.527l5.611,2.959-3.8-4.746Z" transform="translate(-881.481 -606.747)" fill="#fff"/>
        <path id="Path_71204" data-name="Path 71204" d="M926.982,741.367l6.523.188-6.022-2.195Z" transform="translate(-857.787 -684.119)" fill="#fff"/>
        <path id="Path_71205" data-name="Path 71205" d="M950.282,816.061l3.754-5.222-5.479,3.356Z" transform="translate(-877.751 -750.257)" fill="#fff"/>
        <path id="Path_71209" data-name="Path 71209" d="M2044.114,1681.044c-.012-8.479-5.782-15.169-14.338-15.156-8.641.013-14.476,6.8-14.464,15.2.012,8.479,5.782,15.169,14.338,15.156,8.641-.012,14.475-6.889,14.463-15.2m-19.907.029c-.006-4.07,1.853-7.464,5.411-7.469,3.388,0,5.6,3.468,5.6,7.453s-1.853,7.464-5.411,7.469c-3.388,0-5.6-3.468-5.6-7.453" transform="translate(-1864.878 -1541.422)" fill="#8e53a9"/>
        <path id="Path_71210" data-name="Path 71210" d="M2518.343,2071.456c-8.64.012-14.476,6.8-14.463,15.2.012,8.479,5.782,15.169,14.338,15.156,8.64-.012,14.475-6.889,14.463-15.2-.012-8.479-5.782-15.169-14.338-15.156m.033,22.638c-3.388,0-5.6-3.468-5.6-7.453-.006-4.07,1.853-7.464,5.411-7.469,3.388,0,5.6,3.468,5.6,7.453s-1.853,7.464-5.411,7.469" transform="translate(-2316.976 -1916.688)" fill="#8e53a9"/>
        <path id="Path_71211" data-name="Path 71211" d="M2138.822,1674.114l-43.2,59.415,10.081-.015,43.2-59.415Z" transform="translate(-1939.192 -1549.02)" fill="#8e53a9"/>
        <path id="Path_71212" data-name="Path 71212" d="M342.808,1505.507a9.722,9.722,0,0,0-1-.079,9.535,9.535,0,0,0-3.167,18.6l-.5,20.167a3.215,3.215,0,0,0,3.133,3.3,3.293,3.293,0,0,0,.629-.045,3.22,3.22,0,0,1-2.509-3.22l.505-20.456a9.375,9.375,0,0,1,2.908-18.266" transform="translate(-307.258 -1392.948)" fill="#ff5a20"/>
        <path id="Path_71213" data-name="Path 71213" d="M361.1,1506.416c-.1,0-.195.006-.291.007a9.375,9.375,0,0,0-2.908,18.266l-.505,20.456a3.21,3.21,0,0,0,4.844,2.85,1.2,1.2,0,0,0,.183.022l2.665.067a1.177,1.177,0,1,0,.058-2.353l-1.359-.034c0-.009,0-.02,0-.029l-.143,0a.706.706,0,0,1,.035-1.412l1.754.044a1.177,1.177,0,0,0-.2-2.331l-1.333-.033-.166,0a.706.706,0,0,1,.035-1.412l.166,0,1.333.032a1.177,1.177,0,0,0,.058-2.353l-1.333-.034.338-13.661a9.38,9.38,0,0,0-3.237-18.088m7.922,9.46a8.115,8.115,0,1,1-7.912-8.322,8.118,8.118,0,0,1,7.912,8.322" transform="translate(-325.26 -1393.864)" fill="#ffbd16"/>
        <path id="Path_71214" data-name="Path 71214" d="M377.195,1521.628a8.123,8.123,0,1,0,7.912,8.322,8.119,8.119,0,0,0-7.912-8.322m2.754,4.387a2.979,2.979,0,1,1-2.9-3.056,2.979,2.979,0,0,1,2.9,3.056" transform="translate(-341.344 -1407.938)" fill="#ff9a22"/>
        <path id="Path_71215" data-name="Path 71215" d="M468.193,1769.192a.738.738,0,0,0-.756.72l-.469,18.962a.737.737,0,1,0,1.474.037l.469-18.964a.738.738,0,0,0-.719-.755" transform="translate(-432.111 -1637.008)" fill="#ff9a22"/>
        <path id="Path_71216" data-name="Path 71216" d="M483.617,1517.334l-7.073-19.2a9.374,9.374,0,0,1-4.034-18.049,9.534,9.534,0,0,0,2.957,18.755l6.973,18.928a3.214,3.214,0,0,0,4.129,1.9,3.268,3.268,0,0,0,.567-.275,3.217,3.217,0,0,1-3.519-2.065" transform="translate(-430.583 -1369.502)" fill="#ff5a20"/>
        <path id="Path_71217" data-name="Path 71217" d="M507.531,1506.389l-1.276.471c0-.01-.005-.019-.007-.029l-.134.049a.706.706,0,0,1-.488-1.325l1.646-.608a1.176,1.176,0,0,0-1.043-2.094l-1.251.462-.156.057a.706.706,0,0,1-.488-1.325l.156-.058,1.25-.462a1.177,1.177,0,0,0-.814-2.209l-1.251.462-4.723-12.823a9.378,9.378,0,0,0-9.68-15.614c-.092.034-.177.078-.268.115a9.374,9.374,0,0,0,4.034,18.049l7.073,19.2a3.21,3.21,0,0,0,5.553.859,1.2,1.2,0,0,0,.179-.046l2.5-.923a1.177,1.177,0,0,0-.814-2.209m-12.212-18.746a8.122,8.122,0,1,1,4.806-10.431,8.114,8.114,0,0,1-4.806,10.431" transform="translate(-447.079 -1360.877)" fill="#ffbd16"/>
        <path id="Path_71218" data-name="Path 71218" d="M505.2,1486.422a8.122,8.122,0,1,0,10.422,4.811,8.125,8.125,0,0,0-10.422-4.811m2.413,6.889a2.982,2.982,0,1,1,1.765-3.83,2.98,2.98,0,0,1-1.765,3.83" transform="translate(-462.575 -1374.898)" fill="#ff9a22"/>
        <path id="Path_71219" data-name="Path 71219" d="M660.233,1721.439a.738.738,0,1,0-1.384.512l6.557,17.8a.738.738,0,0,0,1.384-.511Z" transform="translate(-609.627 -1592.376)" fill="#ff9a22"/>
        <path id="Path_71220" data-name="Path 71220" d="M438.039,1548.891a9.235,9.235,0,0,0,2.125,1.083,9.558,9.558,0,0,1,.564-2.17,7.126,7.126,0,0,1-1.5-.808,2.977,2.977,0,0,0-1.193,1.894" transform="translate(-405.341 -1431.414)" fill="#ff5a20"/>
        <path id="Path_71221" data-name="Path 71221" d="M393.688,1343.828a9.345,9.345,0,0,0-9.251,13.334,9.466,9.466,0,0,1,2.049-.893,7.112,7.112,0,1,1,13.5-2.978c0,.159,0,.318-.018.479-.019.223-.052.44-.09.655a7.138,7.138,0,0,1-2.655,4.358,7.261,7.261,0,0,1-.978.64c-.087.047-.176.087-.263.13a2.911,2.911,0,0,0,.13.484,2.959,2.959,0,0,0,1.084,1.408q.211-.11.417-.231a9.333,9.333,0,0,0,4.492-6.6c.034-.214.071-.428.09-.648.015-.164.012-.323.018-.486a9.349,9.349,0,0,0-8.52-9.652" transform="translate(-354.896 -1243.391)" fill="#ff5a20"/>
        <path id="Path_71222" data-name="Path 71222" d="M141.377,318.915l-.984.408L127.416,324.7l-21.96,9.1h0l-.984.408c16.547,14.049,5.075,39.709,21.622,53.759q17.961-7.444,35.921-14.887l.984-.408c-16.547-14.049-5.075-39.71-21.622-53.759" transform="translate(-96.674 -295.087)" fill="#00789d"/>
        <path id="Path_71223" data-name="Path 71223" d="M184.937,295c15.887,16.388,1.8,42.239,17.687,58.627L241.051,341.5c-15.886-16.389-1.8-42.239-17.687-58.627L184.937,295" transform="translate(-171.132 -261.737)" fill="#c8e0f6"/>
        <path id="Path_71224" data-name="Path 71224" d="M184.937,295c15.887,16.388,1.8,42.239,17.687,58.627L241.051,341.5c-15.886-16.389-1.8-42.239-17.687-58.627L184.937,295" transform="translate(-171.132 -261.737)" fill="#d3e9f8"/>
        <path id="Path_71225" data-name="Path 71225" d="M170.833,445.574c15.887,16.388,1.8,42.238,17.687,58.626l1.052-.332c-15.886-16.388-1.8-42.238-17.686-58.626Z" transform="translate(-158.081 -411.976)" fill="#76c9e2"/>
        <path id="Path_71226" data-name="Path 71226" d="M297.009,430.632l-14.433,4.556a.464.464,0,0,0-.24.735.85.85,0,0,0,.926.367l14.433-4.556a.473.473,0,0,0,.256-.74.87.87,0,0,0-.942-.362" transform="translate(-261.174 -398.428)" fill="#76c9e2"/>
        <path id="Path_71227" data-name="Path 71227" d="M327.114,488.966l-14.433,4.556a.571.571,0,0,0-.355.771.672.672,0,0,0,.814.4l14.433-4.556a.581.581,0,0,0,.367-.775.684.684,0,0,0-.827-.4" transform="translate(-288.972 -452.406)" fill="#76c9e2"/>
        <path id="Path_71228" data-name="Path 71228" d="M346.518,550.673l-14.433,4.556a.682.682,0,0,0-.444.8.565.565,0,0,0,.728.43L346.8,551.9a.693.693,0,0,0,.454-.8.572.572,0,0,0-.738-.426" transform="translate(-306.87 -509.504)" fill="#76c9e2"/>
        <path id="Path_71229" data-name="Path 71229" d="M357.9,614.942,343.466,619.5a.782.782,0,0,0-.509.82.5.5,0,0,0,.666.448l14.433-4.557a.788.788,0,0,0,.515-.822.507.507,0,0,0-.673-.447" transform="translate(-317.352 -568.972)" fill="#76c9e2"/>
        <path id="Path_71230" data-name="Path 71230" d="M478.942,621.488l-22.619,7.141a.855.855,0,0,0-.552.833.469.469,0,0,0,.627.461l22.619-7.141a.858.858,0,0,0,.555-.834.471.471,0,0,0-.63-.46" transform="translate(-421.749 -575.029)" fill="#76c9e2"/>
        <path id="Path_71231" data-name="Path 71231" d="M384.1,695.961l-30.553,9.645a.875.875,0,0,0-.563.837.463.463,0,0,0,.62.464l30.553-9.646a.873.873,0,0,0,.562-.836.463.463,0,0,0-.619-.464" transform="translate(-326.635 -643.938)" fill="#76c9e2"/>
        <path id="Path_71232" data-name="Path 71232" d="M388.261,770.337l-30.553,9.646a.838.838,0,0,0-.543.831.481.481,0,0,0,.643.456l30.553-9.645a.831.831,0,0,0,.539-.829.479.479,0,0,0-.638-.458" transform="translate(-330.503 -712.757)" fill="#76c9e2"/>
        <path id="Path_71233" data-name="Path 71233" d="M396.586,843.5l-30.553,9.645a.751.751,0,0,0-.492.815.529.529,0,0,0,.7.439l30.553-9.645a.743.743,0,0,0,.484-.812.524.524,0,0,0-.689-.442" transform="translate(-338.247 -780.453)" fill="#76c9e2"/>
        <g id="Group_21211" data-name="Group 21211" transform="translate(13.805 28.53)" opacity="0.5">
          <g id="Group_21210" data-name="Group 21210">
            <g id="Group_21209" data-name="Group 21209" clip-path="url(#clip-path-8)">
              <path id="Path_71234" data-name="Path 71234" d="M184.937,386.589c4.824,4.977,6.885,10.826,7.86,17.018,3.958-7.288,7.257-16.867,7.142-21.754l-15,4.736" transform="translate(-184.937 -381.853)" fill="#fff"/>
            </g>
          </g>
        </g>
        <g id="Group_21214" data-name="Group 21214" transform="translate(53.062 55.376)" opacity="0.4" style="mix-blend-mode: multiply;isolation: isolate">
          <g id="Group_21213" data-name="Group 21213">
            <g id="Group_21212" data-name="Group 21212" clip-path="url(#clip-path-9)">
              <path id="Path_71235" data-name="Path 71235" d="M712.529,757.643c-1.632,5.527-1.939,10.356-1.476,13.173l16.66-5.259c-6.705-6.916-8.071-15.519-8.6-24.385-2.2,4.783-5.052,10.977-6.58,16.471" transform="translate(-710.857 -741.172)" fill="#76c9e2"/>
            </g>
          </g>
        </g>
        <path id="Path_71236" data-name="Path 71236" d="M601.008,511.818l3.045-1.113,2.3,2.589,2.095-7.83-5.35-1.475Z" transform="translate(-556.145 -466.332)" fill="#e03c20"/>
        <path id="Path_71237" data-name="Path 71237" d="M642.036,488.706l5.91,5.416.4-3.271,3.31-.937-5.91-5.416Z" transform="translate(-594.111 -448.299)" fill="#ff5a20"/>
        <path id="Path_71238" data-name="Path 71238" d="M569.116,371.3a6.429,6.429,0,0,0-4.151,8,6.234,6.234,0,0,0,7.834,4.212,6.429,6.429,0,0,0,4.151-8,6.233,6.233,0,0,0-7.834-4.212" transform="translate(-522.536 -343.296)" fill="#ffbd16"/>
        <path id="Path_71239" data-name="Path 71239" d="M578.3,381.142a5.687,5.687,0,0,0-3.672,7.073,5.515,5.515,0,0,0,6.931,3.726,5.687,5.687,0,0,0,3.671-7.073,5.514,5.514,0,0,0-6.93-3.726m3.124,10.353a5.058,5.058,0,0,1-6.357-3.418,5.217,5.217,0,0,1,3.368-6.489,5.059,5.059,0,0,1,6.358,3.419,5.217,5.217,0,0,1-3.369,6.489" transform="translate(-531.506 -352.429)" fill="#ff5a20"/>
        <path id="Path_71240" data-name="Path 71240" d="M622.718,430.011,619.7,428.6a.144.144,0,0,0-.182.052l-1.844,2.87.55,1.844a.586.586,0,0,0,.73.394l3.921-1.172a.587.587,0,0,0,.394-.73Zm-3.363,1.281-.145-.487a.139.139,0,0,1,.093-.172l.487-.145a.138.138,0,0,1,.172.093l.145.487a.138.138,0,0,1-.093.172l-.487.146a.138.138,0,0,1-.172-.093m.976,1.011-.487.146a.138.138,0,0,1-.172-.093l-.145-.487a.138.138,0,0,1,.093-.172l.487-.145a.138.138,0,0,1,.172.093l.145.487a.139.139,0,0,1-.093.172m.1-1.334-.145-.487a.138.138,0,0,1,.093-.172l.487-.145a.138.138,0,0,1,.172.093l.145.487a.139.139,0,0,1-.093.172l-.487.146a.138.138,0,0,1-.172-.093m.976,1.011-.487.146a.138.138,0,0,1-.172-.093l-.145-.487a.139.139,0,0,1,.093-.172l.487-.145a.138.138,0,0,1,.172.093l.145.487a.139.139,0,0,1-.093.172" transform="translate(-571.566 -396.562)" fill="#fff"/>
        <path id="Path_71241" data-name="Path 71241" d="M611.571,415.357l-3.285-1.471a.913.913,0,0,0-1.115.333l-1.941,3.033c-.151.235.08.5.362.415l.158-.047s1.392-2.149,1.845-2.872c.19-.3.355-.379.727-.21.758.344,3.014,1.412,3.014,1.412l.158-.047a.289.289,0,0,0,.075-.546" transform="translate(-560.008 -382.895)" fill="#fff"/>
        <path id="Path_71242" data-name="Path 71242" d="M660.927,406.132l-.616.184a.189.189,0,0,0-.127.235l.069.23,1.229.55-.32-1.073a.189.189,0,0,0-.235-.127" transform="translate(-610.897 -375.78)" fill="#fff"/>
        <path id="Path_71243" data-name="Path 71243" d="M1135.254,1955.472a4.931,4.931,0,1,0,6.472,2.583,4.933,4.933,0,0,0-6.472-2.583" transform="translate(-1047.752 -1808.998)" fill="#8e53a9"/>
        <path id="Path_71244" data-name="Path 71244" d="M1156.184,1983.958a1.631,1.631,0,0,0-1.379.8,2.622,2.622,0,0,0-.324,1.349,3.184,3.184,0,0,0-1.495-1.036,1.219,1.219,0,0,0-1.623.6,1.8,1.8,0,0,0,.51,1.725,5,5,0,0,0,1.783,1.138,18.834,18.834,0,0,0,2.266.75,4.858,4.858,0,0,0,.807-1.254q.3-.617.556-1.257a2.805,2.805,0,0,0,.208-2,1.338,1.338,0,0,0-1.311-.814" transform="translate(-1065.357 -1835.727)" fill="#fff"/>
        <path id="Path_71245" data-name="Path 71245" d="M846.239,1731.016a6.922,6.922,0,1,0,9.086,3.626,6.925,6.925,0,0,0-9.086-3.626" transform="translate(-779.197 -1601.162)" fill="#8e53a9"/>
        <path id="Path_71246" data-name="Path 71246" d="M875.622,1771.005a2.29,2.29,0,0,0-1.936,1.127,3.681,3.681,0,0,0-.455,1.893,4.469,4.469,0,0,0-2.1-1.454,1.711,1.711,0,0,0-2.278.84,2.52,2.52,0,0,0,.716,2.422,7.019,7.019,0,0,0,2.5,1.6,26.459,26.459,0,0,0,3.182,1.052,6.825,6.825,0,0,0,1.133-1.76q.426-.866.78-1.765a3.938,3.938,0,0,0,.293-2.81,1.879,1.879,0,0,0-1.84-1.143" transform="translate(-803.91 -1638.685)" fill="#fff"/>
        <path id="Path_71247" data-name="Path 71247" d="M1047.005,1483.912a7.111,7.111,0,1,0,7.1,7.111,7.107,7.107,0,0,0-7.1-7.111" transform="translate(-962.277 -1373.042)" fill="#8e53a9"/>
        <path id="Path_71248" data-name="Path 71248" d="M1081.848,1527.877c-.844,0-.32,1.107-.117,1.835s.117.845.117.845a9.1,9.1,0,0,0-2.8.155c-.409.173-.427.311-.4.548.04.3.765.568.765.568a.78.78,0,0,0-.747.447c-.2.534.8.757.8.757s-.67.048-.641.67c.019.407,1.019.466,1.019.466s-.587.179-.495.641c.039.194.708.486,1.552.4a24.1,24.1,0,0,1,3.25-.282c.06,0,.2.007.383.011V1530.5a1.733,1.733,0,0,1-.529-.087c-.233-.233-1.309-2.534-2.154-2.534" transform="translate(-998.123 -1413.722)" fill="#fff"/>
        <path id="Path_71249" data-name="Path 71249" d="M1165,1562.495h-1.09a.346.346,0,0,0-.345.346v3.872a.346.346,0,0,0,.345.346H1165a.346.346,0,0,0,.345-.346v-3.872a.346.346,0,0,0-.345-.346" transform="translate(-1076.711 -1445.754)" fill="#fff"/>
        <path id="Path_71250" data-name="Path 71250" d="M1071.776,348.282h-24.834a3.372,3.372,0,0,0-3.361,3.364v3.364a3.372,3.372,0,0,0,3.361,3.364h24.834a3.373,3.373,0,0,0,3.361-3.364v-3.364a3.373,3.373,0,0,0-3.361-3.364" transform="translate(-965.682 -322.26)" fill="#8e53a9"/>
        <path id="Path_71251" data-name="Path 71251" d="M1198.613,389.474h-.979v4.233h3.1v-.8h-2.12Z" transform="translate(-1108.236 -360.375)" fill="#fff"/>
        <rect id="Rectangle_11545" data-name="Rectangle 11545" width="0.979" height="4.233" transform="translate(93.047 29.099)" fill="#fff"/>
        <path id="Path_71252" data-name="Path 71252" d="M1267.637,392.5l-1.287-3.023h-1.057l1.824,4.233h.967l1.83-4.233h-.973Z" transform="translate(-1170.844 -360.374)" fill="#fff"/>
        <path id="Path_71253" data-name="Path 71253" d="M1332.871,391.941h1.963v-.762h-1.963v-.919h2.223v-.786h-3.2v4.233h3.274v-.786h-2.3Z" transform="translate(-1232.478 -360.375)" fill="#fff"/>
        <path id="Path_71254" data-name="Path 71254" d="M1125.614,395.226a1.539,1.539,0,1,0,1.537,1.539,1.538,1.538,0,0,0-1.537-1.539" transform="translate(-1040.17 -365.697)" fill="#fff"/>
        <path id="Path_71255" data-name="Path 71255" d="M1362.643,476.89l2.431-4.867-4.255.111Z" transform="translate(-1259.24 -436.756)" fill="#8e53a9"/>
        <path id="Path_71256" data-name="Path 71256" d="M2615.139,1142.434a12.549,12.549,0,1,0,12.538,12.549,12.544,12.544,0,0,0-12.538-12.549" transform="translate(-2408.329 -1057.078)" fill="#f68b00"/>
        <path id="Path_71257" data-name="Path 71257" d="M2710.194,1349.188a1.971,1.971,0,1,0,.924,2.63,1.969,1.969,0,0,0-.924-2.63" transform="translate(-2505.279 -1248.204)" fill="#fff"/>
        <path id="Path_71258" data-name="Path 71258" d="M2672.07,1217.891a1.629,1.629,0,0,0-2.916-1.455,4.735,4.735,0,0,0-4.817,2.65l-1.284,2.692a2.653,2.653,0,0,1-1.6,1.389l-.981.307c-.513.279-.317.831.123,1.278a21.484,21.484,0,0,0,10.383,4.964c.644.061,1.206-.159,1.061-.749l-.4-.859a2.8,2.8,0,0,1,.007-2.393l1.219-2.555a4.743,4.743,0,0,0-.8-5.246l.013-.024" transform="translate(-2461.596 -1124.735)" fill="#fff"/>
        <path id="Path_71259" data-name="Path 71259" d="M2802.645,1262.939a3,3,0,1,0,3,3,3,3,0,0,0-3-3" transform="translate(-2590.666 -1168.579)" fill="#f9394a"/>
        <path id="Path_71260" data-name="Path 71260" d="M528.5,1086.392l-.285.024h0q0-.225-.008-.449a1.583,1.583,0,0,0,.01.475l.285-.024v0q0-.253.009-.507a1.225,1.225,0,0,0-.011.484" transform="translate(-488.761 -1004.775)" fill="#d3374a"/>
        <path id="Path_71261" data-name="Path 71261" d="M528.558,1078.331a1.039,1.039,0,0,0-.153.313,1.273,1.273,0,0,0-.039.186q0,.225.008.449h0l.285-.024a1.224,1.224,0,0,1,.011-.484q0-.288.01-.576a.839.839,0,0,0-.122.135" transform="translate(-488.926 -997.639)" fill="#d3374a"/>
        <path id="Path_71262" data-name="Path 71262" d="M524.98,1046.425a.839.839,0,0,1,.122-.135q.008-.461.013-.922l.006-.5,0-.253a1.8,1.8,0,0,0-.019-.279.828.828,0,0,0-.1-.3.645.645,0,0,0-.259-.241.745.745,0,0,0-.243-.076l0,.1c0,.1.007.2.009.306a.331.331,0,0,1,.053.018.249.249,0,0,1,.106.092.448.448,0,0,1,.059.166,1.424,1.424,0,0,1,.02.22l0,.248.007.5c.006.519.016,1.037.026,1.555a1.282,1.282,0,0,1,.039-.186,1.037,1.037,0,0,1,.153-.313" transform="translate(-485.348 -965.733)" fill="#d3374a"/>
        <path id="Path_71263" data-name="Path 71263" d="M484.124,1046.164a.454.454,0,0,0-.143.1l-.015.016-.019.022-.04.046-.08.092-.039.046c0,.125,0,.249,0,.374a23.327,23.327,0,0,1-.341,3.937l-.09.486c-.034.161-.066.323-.1.484l-.055.241-.027.121-.028.113a2.848,2.848,0,0,1-.15.428,1.538,1.538,0,0,1-.217.359.63.63,0,0,1-.274.2.431.431,0,0,1-.152.024.418.418,0,0,1-.155-.026.624.624,0,0,1-.275-.2,1.344,1.344,0,0,1-.243-.782,4.364,4.364,0,0,1,.005-.476l.012-.242.023-.242a8.536,8.536,0,0,1,.414-1.9,8.652,8.652,0,0,1,.826-1.764l.063-.1.067-.1.134-.2c.046-.067.1-.132.143-.2s.094-.133.146-.2c.089-.111.177-.223.272-.33,0-.194-.008-.387-.017-.581a.933.933,0,0,0-.073.06l-.029.028-.023.025-.044.047-.087.094c-.119.124-.227.256-.337.387-.057.065-.107.134-.159.2s-.1.135-.155.2l-.147.211-.073.106-.068.109a9.22,9.22,0,0,0-1.371,3.847l-.028.256-.017.258a4.871,4.871,0,0,0-.013.526,2.373,2.373,0,0,0,.08.558,1.585,1.585,0,0,0,.265.542,1.182,1.182,0,0,0,.518.389.981.981,0,0,0,.335.064.95.95,0,0,0,.171-.009.827.827,0,0,0,.169-.039,1.2,1.2,0,0,0,.534-.369,2.1,2.1,0,0,0,.307-.491,3.424,3.424,0,0,0,.186-.515l.034-.13.029-.124.058-.247c.038-.165.072-.331.108-.5l.1-.5a22.881,22.881,0,0,0,.37-4.04q0-.355-.011-.709a.4.4,0,0,0-.269.017" transform="translate(-445.227 -967.757)" fill="#d3374a"/>
        <path id="Path_71264" data-name="Path 71264" d="M516.945,1043.625a.81.81,0,0,0-.406.05.84.84,0,0,0-.2.114c.009.193.014.387.017.581.013-.015.026-.031.039-.046l.08-.092.04-.046.019-.022.015-.016a.455.455,0,0,1,.143-.1.4.4,0,0,1,.269-.017c0-.1,0-.2-.009-.306,0-.034,0-.069,0-.1" transform="translate(-477.794 -965.645)" fill="#d3374a"/>
        <path id="Path_71265" data-name="Path 71265" d="M469.941,1017.12c-.006-.135-.012-.27-.022-.4l-.016-.254c-.007-.089-.016-.181-.03-.272a2.2,2.2,0,0,0-.154-.561,1.289,1.289,0,0,0-.072-.142,1.153,1.153,0,0,0-.093-.139.972.972,0,0,0-.27-.24,1.088,1.088,0,0,0-1.291.189c-.019.018-.041.04-.057.057l-.043.048-.086.1-.172.194c-.112.132-.216.27-.323.406s-.2.284-.3.425-.181.294-.271.441a8.981,8.981,0,0,0-.818,1.893,8.677,8.677,0,0,0-.25,4.061.144.144,0,0,0,.285-.04,9.261,9.261,0,0,1,1.285-5.617c.088-.136.171-.274.262-.407s.186-.264.285-.391.2-.253.3-.375l.162-.179.081-.09.04-.045.032-.032a.567.567,0,0,1,.285-.147.474.474,0,0,1,.149,0,.324.324,0,0,1,.12.044.517.517,0,0,1,.188.242,1.593,1.593,0,0,1,.109.4c.012.073.019.148.026.225l.017.247c.012.164.019.329.027.494,0,.011,0,.023,0,.034a.84.84,0,0,1,.2-.114.811.811,0,0,1,.406-.05" transform="translate(-430.789 -939.14)" fill="#d3374a"/>
        <path id="Path_71266" data-name="Path 71266" d="M599.364,1043.487a.581.581,0,0,1-.133-.314q-.073.207-.152.411a.778.778,0,0,0,.064.087.954.954,0,0,0,.153.144q.057-.141.11-.283-.022-.022-.042-.045" transform="translate(-554.36 -965.233)" fill="#d3374a"/>
        <path id="Path_71267" data-name="Path 71267" d="M537.482,1048.3a.785.785,0,0,1-.064-.087q-.17.435-.369.857-.255.537-.558,1.05l-.076.128-.035.048-.017.024-.021.02a.453.453,0,0,1-.193.124.546.546,0,0,1-.113.026.588.588,0,0,1-.117,0,.492.492,0,0,1-.218-.081.478.478,0,0,1-.154-.168.3.3,0,0,1-.024-.053.218.218,0,0,1-.019-.055l-.014-.058c0-.022-.007-.048-.01-.072q-.04-.291-.053-.585c-.008-.2-.008-.392,0-.588l.009-.147.006-.073c0-.009,0-.033,0-.051a.261.261,0,0,0,0-.058.372.372,0,0,0-.11-.213.394.394,0,0,0-.209-.1.381.381,0,0,0-.234.035.4.4,0,0,0-.167.165l-.142.265-.284.53-.284.53-.142.265-.018.033-.015.026a.447.447,0,0,1-.033.048.469.469,0,0,1-.082.081.514.514,0,0,1-.444.088l-.064-.02a.665.665,0,0,0-.093-.022.677.677,0,0,0-.188-.006.832.832,0,0,0-.342.116.976.976,0,0,0-.14.1q0,.288-.01.576c0-.015.006-.031.01-.046a.653.653,0,0,1,.288-.388.543.543,0,0,1,.223-.076.4.4,0,0,1,.111,0,.388.388,0,0,1,.053.012l.079.024a.8.8,0,0,0,.693-.14.752.752,0,0,0,.131-.13.738.738,0,0,0,.052-.076l.023-.039.018-.033.142-.265.284-.53.284-.53.142-.265a.092.092,0,0,1,.1-.052.109.109,0,0,1,.057.027.083.083,0,0,1,.025.05.037.037,0,0,1,0,.016.149.149,0,0,1,0,.024l-.006.077-.01.153c-.011.2-.011.41,0,.615s.027.409.055.612l.011.077.02.089a.428.428,0,0,0,.029.087.561.561,0,0,0,.038.084.765.765,0,0,0,.247.27.778.778,0,0,0,.339.127.865.865,0,0,0,.182,0,.835.835,0,0,0,.179-.04.74.74,0,0,0,.308-.2l.032-.033.027-.036.052-.074.077-.131q.309-.523.57-1.073.175-.37.326-.749a.954.954,0,0,1-.154-.144" transform="translate(-492.699 -969.86)" fill="#d3374a"/>
        <path id="Path_71268" data-name="Path 71268" d="M604.787,1015.344a.144.144,0,0,0-.189.075h0a7.483,7.483,0,0,1-1.264,1.98q-.1.11-.2.217c-.033.036-.069.07-.1.105l-.052.052-.048.04a.64.64,0,0,1-.212.118.617.617,0,0,1-.24.02.629.629,0,0,1-.379-.18q-.053.142-.11.283a.917.917,0,0,0,.812.152.928.928,0,0,0,.311-.17l.067-.057.054-.054c.036-.036.072-.072.107-.109.071-.074.14-.149.208-.225a7.775,7.775,0,0,0,1.312-2.057.144.144,0,0,0-.075-.189" transform="translate(-557.054 -939.472)" fill="#d3374a"/>
        <path id="Path_71269" data-name="Path 71269" d="M606.86,1023.278s0,0,0,0,0,0,0,0" transform="translate(-561.56 -946.823)" fill="#d3374a"/>
        <path id="Path_71270" data-name="Path 71270" d="M606.648,1023.317l.009-.015-.008,0a.01.01,0,0,1-.007,0s0,0-.006-.011,0,0,0,0l0,.018-.014.06.013-.025Z" transform="translate(-561.336 -946.839)" fill="#d3374a"/>
        <path id="Path_71271" data-name="Path 71271" d="M597.488,1021.243l0-.031.005-.036.011-.071c.008-.048.017-.095.027-.142q.03-.141.071-.28a3.594,3.594,0,0,1,.208-.538c.021-.043.043-.086.066-.129l.021-.039.014-.06,0-.018h0s0,0,0,0,0,0,0,0h0s0,0,0,0,.008.012.006.011a.01.01,0,0,0,.006,0l.008,0h0l-.009.015-.018.031-.013.024,0,.012-.034.145-.074.288q-.131.487-.3.962a.58.58,0,0,0,.133.314c.013.016.028.031.042.045q.231-.613.4-1.247l.075-.294.035-.148.017-.074,0-.018c0-.01,0-.024.005-.036a.27.27,0,0,0,0-.078.28.28,0,0,0-.359-.21.266.266,0,0,0-.129.092l-.021.031-.01.017-.019.034c-.013.023-.025.045-.038.068-.025.046-.048.092-.071.139a3.886,3.886,0,0,0-.225.582q-.044.15-.077.3c-.011.051-.021.1-.029.153l-.012.077-.006.039,0,.044a.916.916,0,0,0,.136.579q.08-.2.152-.411a.673.673,0,0,1,0-.141" transform="translate(-552.619 -943.443)" fill="#d3374a"/>
      </g>
    </g>
  </g>
</svg>
