<svg id="Hassle-free_properties_icon2" data-name="Hassle-free properties_icon2" xmlns="http://www.w3.org/2000/svg" xmlns:xlink="http://www.w3.org/1999/xlink" width="280" height="206.892" viewBox="0 0 280 206.892">
  <defs>
    <clipPath id="clip-path">
      <rect id="Rectangle_155250" data-name="Rectangle 155250" width="280" height="206.891" fill="none"/>
    </clipPath>
    <clipPath id="clip-path-3">
      <rect id="Rectangle_155137" data-name="Rectangle 155137" width="27.134" height="3.674" fill="none"/>
    </clipPath>
    <clipPath id="clip-path-4">
      <rect id="Rectangle_155144" data-name="Rectangle 155144" width="12.639" height="8.873" fill="none"/>
    </clipPath>
    <clipPath id="clip-path-5">
      <path id="Path_114445" data-name="Path 114445" d="M1378.859,1217.365a23.651,23.651,0,0,1-23.129-23.957,23.3,23.3,0,0,1,23.31-22.991c.166,0,.332,0,.5.005a23.65,23.65,0,0,1,23.129,23.957,23.3,23.3,0,0,1-23.311,22.991c-.166,0-.332,0-.5-.005m-16.075-40.474a23.26,23.26,0,0,0-7.141,16.515,23.737,23.737,0,0,0,23.214,24.044c.167,0,.333.005.5.005a23.384,23.384,0,0,0,23.4-23.076,23.736,23.736,0,0,0-23.214-24.045q-.25-.005-.5-.005a23.251,23.251,0,0,0-16.257,6.561" transform="translate(-1355.641 -1170.331)" fill="none"/>
    </clipPath>
    <clipPath id="clip-path-7">
      <rect id="Rectangle_155233" data-name="Rectangle 155233" width="47.029" height="47.039" fill="none"/>
    </clipPath>
    <clipPath id="clip-path-8">
      <rect id="Rectangle_155234" data-name="Rectangle 155234" width="54.49" height="8.741" fill="none"/>
    </clipPath>
    <clipPath id="clip-path-9">
      <rect id="Rectangle_155235" data-name="Rectangle 155235" width="37.865" height="20.656" fill="none"/>
    </clipPath>
    <clipPath id="clip-path-10">
      <rect id="Rectangle_155236" data-name="Rectangle 155236" width="14.444" height="5.296" fill="none"/>
    </clipPath>
    <clipPath id="clip-path-11">
      <rect id="Rectangle_155237" data-name="Rectangle 155237" width="20.054" height="27.402" fill="none"/>
    </clipPath>
    <clipPath id="clip-path-12">
      <rect id="Rectangle_155239" data-name="Rectangle 155239" width="33.31" height="17.147" fill="none"/>
    </clipPath>
    <clipPath id="clip-path-14">
      <rect id="Rectangle_155240" data-name="Rectangle 155240" width="22.754" height="89.792" fill="none"/>
    </clipPath>
    <clipPath id="clip-path-15">
      <rect id="Rectangle_155241" data-name="Rectangle 155241" width="23.544" height="32.559" fill="none"/>
    </clipPath>
    <clipPath id="clip-path-16">
      <rect id="Rectangle_155242" data-name="Rectangle 155242" width="33.749" height="5.597" fill="none"/>
    </clipPath>
    <clipPath id="clip-path-17">
      <rect id="Rectangle_155243" data-name="Rectangle 155243" width="2.182" height="1.89" fill="none"/>
    </clipPath>
    <clipPath id="clip-path-18">
      <rect id="Rectangle_155244" data-name="Rectangle 155244" width="1.403" height="1.54" fill="none"/>
    </clipPath>
    <clipPath id="clip-path-19">
      <rect id="Rectangle_155245" data-name="Rectangle 155245" width="10.379" height="6.943" fill="none"/>
    </clipPath>
    <clipPath id="clip-path-20">
      <rect id="Rectangle_155246" data-name="Rectangle 155246" width="20.777" height="38.667" fill="none"/>
    </clipPath>
    <clipPath id="clip-path-21">
      <rect id="Rectangle_155247" data-name="Rectangle 155247" width="7.195" height="2.182" fill="none"/>
    </clipPath>
    <clipPath id="clip-path-22">
      <rect id="Rectangle_155248" data-name="Rectangle 155248" width="26.123" height="34.335" fill="none"/>
    </clipPath>
  </defs>
  <g id="Group_181528" data-name="Group 181528" clip-path="url(#clip-path)">
    <g id="Group_181475" data-name="Group 181475">
      <g id="Group_181474" data-name="Group 181474" clip-path="url(#clip-path)">
        <path id="Path_114383" data-name="Path 114383" d="M193.393,314.431c-19.55,61.31-6.339,125.325,101.856,74.11,33.76-15.981,132.376,14.886,150.359-20.086,14.957-29.089-13.379-53.66-31.371-72.727-7.33-7.768-13.6-16.353-20.316-24.627a127.5,127.5,0,0,0-11.074-12.243A80.106,80.106,0,0,0,360.379,243.8c-20.01-8.944-42.8-10.156-64.4-10.156-54.545,0-83.59,21.213-102.587,80.787" transform="translate(-169.817 -213.503)" fill="#ecedff"/>
        <g id="Group_181470" data-name="Group 181470" transform="translate(9.332 142.51)" opacity="0.35">
          <g id="Group_181469" data-name="Group 181469">
            <g id="Group_181468" data-name="Group 181468" clip-path="url(#clip-path-3)">
              <path id="Path_114384" data-name="Path 114384" d="M108.25,1655c0,1.015,6.074,1.837,13.567,1.837s13.567-.822,13.567-1.837-6.074-1.837-13.567-1.837-13.567.822-13.567,1.837" transform="translate(-108.25 -1653.162)" fill="#2f4171"/>
            </g>
          </g>
        </g>
        <path id="Path_114385" data-name="Path 114385" d="M175.52,1531.584l-2.13,12.033h-17.2l-2.077-12.033Z" transform="translate(-140.83 -1399.554)" fill="#f3ce90"/>
        <rect id="Rectangle_155138" data-name="Rectangle 155138" width="14.062" height="0.431" transform="matrix(0.409, -0.913, 0.913, 0.409, 27.092, 131.942)" fill="#224c3f"/>
        <rect id="Rectangle_155139" data-name="Rectangle 155139" width="0.431" height="28.277" transform="translate(21.802 103.76) rotate(-0.971)" fill="#224c3f"/>
        <rect id="Rectangle_155140" data-name="Rectangle 155140" width="0.431" height="14.199" transform="translate(18.449 117.913) rotate(-5.379)" fill="#224c3f"/>
        <path id="Path_114386" data-name="Path 114386" d="M385.916,1351.613c1.032,8.464,10.8,7.225,10.8,7.225,8.326-2.684,7.4-9.875,7.4-9.875Z" transform="translate(-352.648 -1232.677)" fill="#2e6857"/>
        <path id="Path_114387" data-name="Path 114387" d="M279.88,1210.482s-3.167,9.8-13.331,8.385c0,0-9.559-1.87-8.806-12.064Z" transform="translate(-235.486 -1102.77)" fill="#40947e"/>
        <path id="Path_114388" data-name="Path 114388" d="M0,1369.41s1.365,9.326,9.592,8.72,9.044-8.227,9.071-8.72Z" transform="translate(0 -1251.36)" fill="#6fc183"/>
        <g id="Group_181473" data-name="Group 181473" transform="translate(37.559 116.821)" opacity="0.5">
          <g id="Group_181472" data-name="Group 181472">
            <g id="Group_181471" data-name="Group 181471" clip-path="url(#clip-path-4)">
              <rect id="Rectangle_155141" data-name="Rectangle 155141" width="0.504" height="5.371" transform="matrix(0.797, -0.603, 0.603, 0.797, 8.996, 0.304)"/>
              <path id="Path_114389" data-name="Path 114389" d="M499.31,1373.684c-.073-.233-1.8-4.334-2.946-7.034l.464-.2c2.977,7.024,2.977,7.1,2.977,7.167h-.5a.224.224,0,0,0,.009.064" transform="translate(-491.134 -1365.48)"/>
              <rect id="Rectangle_155142" data-name="Rectangle 155142" width="7.385" height="0.504" transform="translate(0 8.395) rotate(-77.856)" fill="#224c3f"/>
              <rect id="Rectangle_155143" data-name="Rectangle 155143" width="0.504" height="4.172" transform="matrix(0.948, -0.319, 0.319, 0.948, 0.785, 4.919)" fill="#224c3f"/>
            </g>
          </g>
        </g>
        <rect id="Rectangle_155145" data-name="Rectangle 155145" width="7.508" height="0.504" transform="translate(38.996 114.404) rotate(-87.167)" fill="#224c3f"/>
        <rect id="Rectangle_155146" data-name="Rectangle 155146" width="8.729" height="0.504" transform="matrix(0.623, -0.782, 0.782, 0.623, 31.564, 113.188)" fill="#224c3f"/>
        <rect id="Rectangle_155147" data-name="Rectangle 155147" width="10.248" height="0.504" transform="translate(29.276 115.572) rotate(-78.547)" fill="#224c3f"/>
        <rect id="Rectangle_155148" data-name="Rectangle 155148" width="0.504" height="5.81" transform="translate(30.497 110.741) rotate(-17.001)" fill="#224c3f"/>
        <rect id="Rectangle_155149" data-name="Rectangle 155149" width="7.566" height="0.504" transform="matrix(0.684, -0.729, 0.729, 0.684, 23.616, 110.495)" fill="#224c3f"/>
        <rect id="Rectangle_155150" data-name="Rectangle 155150" width="0.504" height="7.665" transform="matrix(0.887, -0.462, 0.462, 0.887, 10.797, 118.28)" fill="#224c3f"/>
        <rect id="Rectangle_155151" data-name="Rectangle 155151" width="5.812" height="0.504" transform="translate(11.272 126.312) rotate(-85.046)" fill="#224c3f"/>
        <rect id="Rectangle_155152" data-name="Rectangle 155152" width="0.504" height="8.376" transform="translate(7.354 118.164)" fill="#224c3f"/>
        <rect id="Rectangle_155153" data-name="Rectangle 155153" width="4.332" height="0.504" transform="translate(5.094 125.619) rotate(-60.892)" fill="#224c3f"/>
        <rect id="Rectangle_155154" data-name="Rectangle 155154" width="6.147" height="0.504" transform="translate(2.368 123.564) rotate(-63.725)" fill="#224c3f"/>
        <path id="Path_114390" data-name="Path 114390" d="M2249.994,414.185l-77.3-5.866-1.442-88.273h80.594Z" transform="translate(-1984.08 -292.457)" fill="#5681bf"/>
        <rect id="Rectangle_155155" data-name="Rectangle 155155" width="80.594" height="92.802" transform="translate(187.172 24.226)" fill="#d1d2ff"/>
        <rect id="Rectangle_155156" data-name="Rectangle 155156" width="80.594" height="15.713" transform="translate(187.172 24.226)" fill="#2e3192"/>
        <rect id="Rectangle_155157" data-name="Rectangle 155157" width="80.594" height="2.976" transform="translate(187.172 36.963)" fill="#8e53a9"/>
        <rect id="Rectangle_155158" data-name="Rectangle 155158" width="6.706" height="6.706" transform="translate(192.383 47.131)" fill="#fff"/>
        <rect id="Rectangle_155159" data-name="Rectangle 155159" width="6.706" height="6.706" transform="translate(202.961 47.131)" fill="#fff"/>
        <rect id="Rectangle_155160" data-name="Rectangle 155160" width="6.706" height="6.706" transform="translate(213.539 47.131)" fill="#fff"/>
        <rect id="Rectangle_155161" data-name="Rectangle 155161" width="6.706" height="6.706" transform="translate(224.116 47.131)" fill="#fff"/>
        <rect id="Rectangle_155162" data-name="Rectangle 155162" width="6.706" height="6.706" transform="translate(234.694 47.131)" fill="#fff"/>
        <rect id="Rectangle_155163" data-name="Rectangle 155163" width="6.706" height="6.706" transform="translate(245.272 47.131)" fill="#fff"/>
        <rect id="Rectangle_155164" data-name="Rectangle 155164" width="6.706" height="6.706" transform="translate(255.85 47.131)" fill="#fff"/>
        <rect id="Rectangle_155165" data-name="Rectangle 155165" width="6.706" height="6.706" transform="translate(192.383 58.884)" fill="#aaa"/>
        <path id="Path_114391" data-name="Path 114391" d="M2237.991,689.367H2231.2v-6.792h6.792Zm-6.706-.086h6.62v-6.62h-6.62Z" transform="translate(-2038.859 -623.734)"/>
        <rect id="Rectangle_155166" data-name="Rectangle 155166" width="6.706" height="6.706" transform="translate(202.961 58.884)" fill="#aaa"/>
        <path id="Path_114392" data-name="Path 114392" d="M2360.7,689.367h-6.792v-6.792h6.792Zm-6.706-.086h6.62v-6.62h-6.62Z" transform="translate(-2150.988 -623.734)"/>
        <rect id="Rectangle_155167" data-name="Rectangle 155167" width="6.706" height="6.706" transform="translate(213.539 58.884)" fill="#fff"/>
        <rect id="Rectangle_155168" data-name="Rectangle 155168" width="6.706" height="6.706" transform="translate(224.116 58.884)" fill="#fff"/>
        <rect id="Rectangle_155169" data-name="Rectangle 155169" width="6.706" height="6.706" transform="translate(234.694 58.884)" fill="#fff"/>
        <rect id="Rectangle_155170" data-name="Rectangle 155170" width="6.706" height="6.706" transform="translate(245.272 58.884)" fill="#fff"/>
        <rect id="Rectangle_155171" data-name="Rectangle 155171" width="6.706" height="6.706" transform="translate(255.85 58.884)" fill="#fff"/>
        <rect id="Rectangle_155172" data-name="Rectangle 155172" width="6.706" height="6.706" transform="translate(192.383 70.637)" fill="#aaa"/>
        <path id="Path_114393" data-name="Path 114393" d="M2237.991,825.705H2231.2v-6.792h6.792Zm-6.706-.086h6.62V819h-6.62Z" transform="translate(-2038.859 -748.319)"/>
        <rect id="Rectangle_155173" data-name="Rectangle 155173" width="6.706" height="6.706" transform="translate(202.961 70.637)" fill="#aaa"/>
        <path id="Path_114394" data-name="Path 114394" d="M2360.7,825.705h-6.792v-6.792h6.792Zm-6.706-.086h6.62V819h-6.62Z" transform="translate(-2150.988 -748.319)"/>
        <rect id="Rectangle_155174" data-name="Rectangle 155174" width="6.706" height="6.706" transform="translate(213.539 70.637)" fill="#fff"/>
        <rect id="Rectangle_155175" data-name="Rectangle 155175" width="6.706" height="6.706" transform="translate(224.116 70.637)" fill="#fff"/>
        <rect id="Rectangle_155176" data-name="Rectangle 155176" width="6.706" height="6.706" transform="translate(234.694 70.637)" fill="#fff"/>
        <rect id="Rectangle_155177" data-name="Rectangle 155177" width="6.706" height="6.706" transform="translate(245.272 70.637)" fill="#fff"/>
        <rect id="Rectangle_155178" data-name="Rectangle 155178" width="6.706" height="6.706" transform="translate(255.85 70.637)" fill="#fff"/>
        <path id="Path_114395" data-name="Path 114395" d="M2590.91,228.243a4.979,4.979,0,1,0-4.979,4.979,4.979,4.979,0,0,0,4.979-4.979" transform="translate(-2358.461 -204.018)" fill="#8e53a9"/>
        <rect id="Rectangle_155179" data-name="Rectangle 155179" width="6.706" height="6.706" transform="translate(192.383 82.39)" fill="#aaa"/>
        <path id="Path_114396" data-name="Path 114396" d="M2237.991,962.045H2231.2v-6.792h6.792Zm-6.706-.086h6.62v-6.62h-6.62Z" transform="translate(-2038.859 -872.906)"/>
        <rect id="Rectangle_155180" data-name="Rectangle 155180" width="6.706" height="6.706" transform="translate(202.961 82.39)" fill="#aaa"/>
        <path id="Path_114397" data-name="Path 114397" d="M2360.7,962.045h-6.792v-6.792h6.792Zm-6.706-.086h6.62v-6.62h-6.62Z" transform="translate(-2150.988 -872.906)"/>
        <rect id="Rectangle_155181" data-name="Rectangle 155181" width="6.706" height="6.706" transform="translate(213.539 82.39)" fill="#fff"/>
        <rect id="Rectangle_155182" data-name="Rectangle 155182" width="6.706" height="6.706" transform="translate(224.116 82.39)" fill="#fff"/>
        <rect id="Rectangle_155183" data-name="Rectangle 155183" width="6.706" height="6.706" transform="translate(234.694 82.39)" fill="#8e53a9"/>
        <rect id="Rectangle_155184" data-name="Rectangle 155184" width="6.706" height="6.706" transform="translate(245.272 82.39)" fill="#fff"/>
        <rect id="Rectangle_155185" data-name="Rectangle 155185" width="6.706" height="6.706" transform="translate(255.85 82.39)" fill="#fff"/>
        <path id="Path_114398" data-name="Path 114398" d="M2682.365,923.056a7.457,7.457,0,1,1,7.458-7.457,7.466,7.466,0,0,1-7.458,7.457m0-13.686a6.229,6.229,0,1,0,6.229,6.228,6.235,6.235,0,0,0-6.229-6.228" transform="translate(-2444.318 -829.855)" fill="#3d5891"/>
        <rect id="Rectangle_155186" data-name="Rectangle 155186" width="3.099" height="1.229" transform="matrix(0.027, -1, 1, 0.027, 240.157, 77.773)" fill="#3d5891"/>
        <rect id="Rectangle_155187" data-name="Rectangle 155187" width="5.615" height="1.229" transform="matrix(0.588, -0.809, 0.809, 0.588, 242.244, 78.539)" fill="#3d5891"/>
        <rect id="Rectangle_155188" data-name="Rectangle 155188" width="3.485" height="1.229" transform="matrix(0.868, -0.497, 0.497, 0.868, 244.443, 79.875)" fill="#3d5891"/>
        <rect id="Rectangle_155189" data-name="Rectangle 155189" width="138.355" height="88.764" transform="translate(72.555 65.33)" fill="#fff"/>
        <path id="Path_114399" data-name="Path 114399" d="M790.448,657.329v5.036a4.41,4.41,0,0,0,3.626,1.9H933.218v-8.829H794.074a4.41,4.41,0,0,0-3.626,1.9" transform="translate(-722.308 -598.931)" fill="#2e3192"/>
        <path id="Path_114400" data-name="Path 114400" d="M781.35,659.226a4.415,4.415,0,1,1,5.159,4.965v71.28h-5.2V659.226Z" transform="translate(-713.954 -598.931)" fill="#b8b8b8"/>
        <path id="Path_114401" data-name="Path 114401" d="M786.106,735.067h-5.287V658.739h.049a4.457,4.457,0,1,1,5.237,5.041Zm-5.2-.084h5.119V663.71l.034-.006a4.373,4.373,0,1,0-5.11-4.918l-.005.036H780.9Z" transform="translate(-713.509 -598.486)"/>
        <path id="Path_114402" data-name="Path 114402" d="M2199.33,874.722H2185v-14.33h14.33Zm-13.778-.552h13.226V860.944h-13.226Z" transform="translate(-1996.643 -786.222)" fill="#2f4171"/>
        <path id="Path_114403" data-name="Path 114403" d="M2199.33,1106.956H2185v-14.329h14.33Zm-13.778-.552h13.226v-13.226h-13.226Z" transform="translate(-1996.643 -998.437)" fill="#2f4171"/>
        <path id="Path_114404" data-name="Path 114404" d="M2199.33,1339.192H2185v-14.329h14.33Zm-13.778-.552h13.226v-13.226h-13.226Z" transform="translate(-1996.643 -1210.653)" fill="#2f4171"/>
        <path id="Path_114405" data-name="Path 114405" d="M2199.33,1571.426H2185V1557.1h14.33Zm-13.778-.552h13.226v-13.226h-13.226Z" transform="translate(-1996.643 -1422.867)" fill="#2f4171"/>
        <path id="Path_114406" data-name="Path 114406" d="M2199.1,828.941c.54.447,1.049.918,1.553,1.392.249.24.5.477.744.721l.368.364.362.368c.243.244.48.494.718.742s.472.5.706.752c.47.5.927,1.013,1.382,1.527l-1.656.184c.613-1.52,1.271-3.018,1.958-4.5q.519-1.112,1.06-2.213t1.113-2.188q1.139-2.176,2.412-4.288.635-1.057,1.318-2.091c.456-.689.924-1.372,1.435-2.035-.19.815-.423,1.61-.667,2.4s-.507,1.57-.785,2.343q-.83,2.322-1.794,4.581-.481,1.13-.99,2.246t-1.043,2.221c-.714,1.472-1.459,2.929-2.248,4.365l-.79,1.439-.866-1.255c-.39-.565-.776-1.131-1.15-1.708-.189-.287-.377-.574-.56-.866s-.369-.58-.548-.875l-.27-.44-.265-.445c-.178-.3-.348-.6-.521-.9-.339-.6-.674-1.211-.978-1.843" transform="translate(-2009.527 -747.188)" fill="#3d5891"/>
        <path id="Path_114407" data-name="Path 114407" d="M2199.1,1285.672c.54.447,1.049.918,1.553,1.392.249.24.5.477.744.721l.368.364.362.369c.243.244.48.494.718.742s.472.5.706.752c.47.5.927,1.013,1.382,1.527l-1.656.184c.613-1.52,1.271-3.018,1.958-4.5q.519-1.112,1.06-2.213t1.113-2.188q1.139-2.176,2.412-4.288.635-1.057,1.318-2.091c.456-.689.924-1.372,1.435-2.035-.19.815-.423,1.61-.667,2.4s-.507,1.57-.785,2.343q-.83,2.322-1.794,4.581-.481,1.13-.99,2.246t-1.043,2.221c-.714,1.472-1.459,2.929-2.248,4.365l-.79,1.439-.866-1.255c-.39-.565-.776-1.131-1.15-1.708-.189-.287-.377-.574-.56-.866s-.369-.58-.548-.875l-.27-.44-.265-.445c-.178-.3-.348-.6-.521-.9-.339-.6-.674-1.211-.978-1.843" transform="translate(-2009.527 -1164.546)" fill="#3d5891"/>
        <rect id="Rectangle_155190" data-name="Rectangle 155190" width="75.468" height="1.194" transform="translate(107.857 74.446)" fill="#99b1da"/>
        <rect id="Rectangle_155191" data-name="Rectangle 155191" width="88.12" height="1.194" transform="translate(95.204 77.592)" fill="#99b1da"/>
        <rect id="Rectangle_155192" data-name="Rectangle 155192" width="80.733" height="1.194" transform="translate(102.592 80.737)" fill="#99b1da"/>
        <rect id="Rectangle_155193" data-name="Rectangle 155193" width="75.468" height="1.194" transform="translate(107.857 83.883)" fill="#99b1da"/>
        <rect id="Rectangle_155194" data-name="Rectangle 155194" width="95.253" height="1.194" transform="translate(88.072 87.029)" fill="#99b1da"/>
        <rect id="Rectangle_155195" data-name="Rectangle 155195" width="75.468" height="1.194" transform="translate(107.857 94.466)" fill="#d1dbed"/>
        <rect id="Rectangle_155196" data-name="Rectangle 155196" width="50.891" height="1.194" transform="translate(132.434 97.611)" fill="#d1dbed"/>
        <rect id="Rectangle_155197" data-name="Rectangle 155197" width="80.733" height="1.194" transform="translate(102.592 100.757)" fill="#d1dbed"/>
        <rect id="Rectangle_155198" data-name="Rectangle 155198" width="75.468" height="1.194" transform="translate(107.857 103.903)" fill="#d1dbed"/>
        <rect id="Rectangle_155199" data-name="Rectangle 155199" width="32.24" height="1.194" transform="translate(151.085 107.049)" fill="#d1dbed"/>
        <rect id="Rectangle_155200" data-name="Rectangle 155200" width="75.468" height="1.194" transform="translate(107.857 114.485)" fill="#99b1da"/>
        <rect id="Rectangle_155201" data-name="Rectangle 155201" width="88.12" height="1.194" transform="translate(95.204 117.631)" fill="#99b1da"/>
        <rect id="Rectangle_155202" data-name="Rectangle 155202" width="43.101" height="1.194" transform="translate(140.224 120.777)" fill="#99b1da"/>
        <rect id="Rectangle_155203" data-name="Rectangle 155203" width="75.468" height="1.194" transform="translate(107.857 123.923)" fill="#99b1da"/>
        <rect id="Rectangle_155204" data-name="Rectangle 155204" width="95.253" height="1.194" transform="translate(88.072 127.069)" fill="#99b1da"/>
        <rect id="Rectangle_155205" data-name="Rectangle 155205" width="75.468" height="1.194" transform="translate(107.857 134.505)" fill="#d1dbed"/>
        <rect id="Rectangle_155206" data-name="Rectangle 155206" width="88.12" height="1.194" transform="translate(95.204 137.651)" fill="#d1dbed"/>
        <rect id="Rectangle_155207" data-name="Rectangle 155207" width="46.168" height="1.194" transform="translate(137.157 140.797)" fill="#d1dbed"/>
        <rect id="Rectangle_155208" data-name="Rectangle 155208" width="75.468" height="1.194" transform="translate(107.857 143.943)" fill="#d1dbed"/>
        <rect id="Rectangle_155209" data-name="Rectangle 155209" width="95.253" height="1.194" transform="translate(88.072 147.088)" fill="#d1dbed"/>
        <rect id="Rectangle_155210" data-name="Rectangle 155210" width="82.028" height="14.786" transform="translate(100.719 37.247)" fill="#8e53a9"/>
        <path id="Path_114408" data-name="Path 114408" d="M1447.919,488.4a4.15,4.15,0,0,0,.748.378,1.8,1.8,0,0,0,.6.108.791.791,0,0,0,.475-.13.4.4,0,0,0,.179-.334q0-.293-.638-.657l-.158-.092-.322-.181a2.021,2.021,0,0,1-.7-.6,1.323,1.323,0,0,1-.227-.759,1.182,1.182,0,0,1,.434-.943,1.672,1.672,0,0,1,1.121-.368,2.813,2.813,0,0,1,.549.059,5.108,5.108,0,0,1,.657.184v1.118a3.8,3.8,0,0,0-.654-.335,1.52,1.52,0,0,0-.526-.118.617.617,0,0,0-.378.1.333.333,0,0,0-.138.281.38.38,0,0,0,.082.233.75.75,0,0,0,.247.2l.559.309a2.98,2.98,0,0,1,.942.717,1.28,1.28,0,0,1,.242.779,1.445,1.445,0,0,1-.475,1.126,1.81,1.81,0,0,1-1.261.429,3.308,3.308,0,0,1-.578-.056,5.571,5.571,0,0,1-.687-.174Z" transform="translate(-1323.066 -443.024)" fill="#fff"/>
        <path id="Path_114409" data-name="Path 114409" d="M1494.25,486.488a2.275,2.275,0,0,0-.626-.473,1.5,1.5,0,0,0-.666-.154,1.285,1.285,0,0,0-.99.417,1.52,1.52,0,0,0-.385,1.072,1.486,1.486,0,0,0,.381,1.06,1.3,1.3,0,0,0,.993.406,1.85,1.85,0,0,0,.721-.151,2.812,2.812,0,0,0,.718-.454l-.072,1.266a2.419,2.419,0,0,1-.669.315,2.621,2.621,0,0,1-.754.108,2.488,2.488,0,0,1-.807-.131,2.383,2.383,0,0,1-.712-.388,2.415,2.415,0,0,1-.705-.883,2.637,2.637,0,0,1-.245-1.136,2.705,2.705,0,0,1,.181-.993,2.414,2.414,0,0,1,1.331-1.362,2.5,2.5,0,0,1,.963-.189,2.6,2.6,0,0,1,.766.112,2.561,2.561,0,0,1,.7.339Z" transform="translate(-1361.951 -443.024)" fill="#fff"/>
        <path id="Path_114410" data-name="Path 114410" d="M1545,491.453v-4.766h1.124v1.749h1.837v-1.749h1.118v4.766h-1.118v-2h-1.837v2Z" transform="translate(-1411.813 -444.732)" fill="#fff"/>
        <path id="Path_114411" data-name="Path 114411" d="M1605.056,491.453v-4.766h2.935v.983h-1.831v.861h1.568v.976h-1.568v.943h1.857v1Z" transform="translate(-1466.692 -444.732)" fill="#fff"/>
        <path id="Path_114412" data-name="Path 114412" d="M1649.478,491.453v-4.766h1.266a3.145,3.145,0,0,1,2.091.638,2.163,2.163,0,0,1,.756,1.745,2.223,2.223,0,0,1-1.177,2.025,2.455,2.455,0,0,1-.715.274,4.6,4.6,0,0,1-.955.084Zm1.124-1.022h.25a1.734,1.734,0,0,0,1.167-.362,1.4,1.4,0,0,0,0-2,1.723,1.723,0,0,0-1.167-.365h-.25Z" transform="translate(-1507.285 -444.732)" fill="#fff"/>
        <path id="Path_114413" data-name="Path 114413" d="M1707,486.687v2.62a1.586,1.586,0,0,0,.232.945.816.816,0,0,0,.7.314.841.841,0,0,0,.692-.293,1.321,1.321,0,0,0,.238-.851v-2.735h1.016v2.735a2.292,2.292,0,0,1-.529,1.609,2.177,2.177,0,0,1-2.947,0,2.282,2.282,0,0,1-.528-1.607v-2.741Z" transform="translate(-1558.82 -444.732)" fill="#fff"/>
        <path id="Path_114414" data-name="Path 114414" d="M1764.443,491.453v-4.766h1.137v3.744h1.857v1.022Z" transform="translate(-1612.34 -444.732)" fill="#fff"/>
        <path id="Path_114415" data-name="Path 114415" d="M1805.663,491.453v-4.766h2.935v.983h-1.831v.861h1.568v.976h-1.568v.943h1.857v1Z" transform="translate(-1650.006 -444.732)" fill="#fff"/>
        <path id="Path_114416" data-name="Path 114416" d="M1379.358,1217.457q-.25,0-.5-.005a23.737,23.737,0,0,1-23.214-24.045,23.385,23.385,0,0,1,23.9-23.071,23.737,23.737,0,0,1,23.214,24.044,23.384,23.384,0,0,1-23.4,23.076m-.317-47.039a23.3,23.3,0,0,0-23.311,22.991,23.651,23.651,0,0,0,23.129,23.957c.166,0,.333.005.5.005a23.3,23.3,0,0,0,23.31-22.991,23.65,23.65,0,0,0-23.129-23.957c-.166,0-.333-.005-.5-.005" transform="translate(-1238.779 -1069.443)"/>
      </g>
    </g>
    <g id="Group_181477" data-name="Group 181477" transform="translate(116.863 100.888)">
      <g id="Group_181476" data-name="Group 181476" clip-path="url(#clip-path-5)">
        <rect id="Rectangle_155212" data-name="Rectangle 155212" width="195.958" height="125.719" transform="translate(-65.518 -56.686)" fill="#fff"/>
        <path id="Path_114417" data-name="Path 114417" d="M791.082,637.984H595.021V512.161H791.082Zm-195.958-.1H790.979V512.264H595.124Z" transform="translate(-660.59 -568.898)"/>
        <path id="Path_114418" data-name="Path 114418" d="M523.088,370.384v7.132a6.246,6.246,0,0,0,5.136,2.686H725.3V367.7H528.224a6.246,6.246,0,0,0-5.136,2.686" transform="translate(-594.858 -436.889)" fill="#616161"/>
        <path id="Path_114419" data-name="Path 114419" d="M724.885,379.788H527.767a6.3,6.3,0,0,1-5.172-2.7l-.008-.011v-7.159l.008-.011a6.3,6.3,0,0,1,5.172-2.7H724.885Zm-202.211-2.743a6.218,6.218,0,0,0,5.093,2.657H724.8V367.283H527.767a6.218,6.218,0,0,0-5.093,2.657Z" transform="translate(-594.401 -436.431)"/>
        <path id="Path_114420" data-name="Path 114420" d="M510.2,373.071a6.253,6.253,0,1,1,7.307,7.031V481.059h-7.369V373.071Z" transform="translate(-583.025 -436.889)" fill="#b8b8b8"/>
        <path id="Path_114421" data-name="Path 114421" d="M516.939,480.488h-7.488V372.381h.07a6.312,6.312,0,1,1,7.418,7.14Zm-7.369-.119h7.25V379.423l.049-.009a6.194,6.194,0,1,0-7.237-6.965l-.007.051h-.054Z" transform="translate(-582.397 -436.258)"/>
        <path id="Path_114422" data-name="Path 114422" d="M2518.539,678.285h-20.3v-20.3h20.3Zm-19.514-.781h18.733V658.771h-18.733Z" transform="translate(-2399.745 -702.156)"/>
        <path id="Path_114423" data-name="Path 114423" d="M2518.539,1007.207h-20.3v-20.3h20.3Zm-19.514-.781h18.733V987.693h-18.733Z" transform="translate(-2399.745 -1002.724)"/>
        <path id="Path_114424" data-name="Path 114424" d="M2518.539,1336.129h-20.3v-20.3h20.3Zm-19.514-.781h18.733v-18.733h-18.733Z" transform="translate(-2399.745 -1303.291)"/>
        <path id="Path_114425" data-name="Path 114425" d="M2518.539,1665.052h-20.3v-20.3h20.3Zm-19.514-.781h18.733v-18.733h-18.733Z" transform="translate(-2399.745 -1603.859)"/>
        <path id="Path_114426" data-name="Path 114426" d="M2496.845,613.444c-.765.633-1.485,1.3-2.2,1.972-.353.34-.709.676-1.054,1.022l-.521.515-.513.522c-.344.346-.68.7-1.016,1.052s-.669.707-1,1.065c-.666.71-1.313,1.435-1.957,2.162l2.345.26c-.869-2.152-1.8-4.275-2.773-6.377q-.735-1.575-1.5-3.134t-1.577-3.1q-1.612-3.082-3.416-6.073-.9-1.5-1.867-2.961c-.646-.975-1.309-1.943-2.033-2.882.269,1.155.6,2.28.945,3.4s.719,2.223,1.112,3.319q1.175,3.289,2.541,6.488.682,1.6,1.4,3.182t1.478,3.146c1.011,2.085,2.066,4.148,3.183,6.183l1.119,2.038,1.226-1.778c.552-.8,1.1-1.6,1.628-2.42.267-.407.534-.813.793-1.226s.523-.822.776-1.239l.383-.624.375-.63c.252-.418.493-.845.738-1.269.48-.856.955-1.715,1.385-2.61" transform="translate(-2381.03 -646.87)" fill="#767676"/>
        <path id="Path_114427" data-name="Path 114427" d="M2488.615,623.379l-1.153-2.1c-1.061-1.933-2.1-3.956-3.184-6.185-.535-1.109-1.018-2.139-1.478-3.146-.493-1.084-.964-2.155-1.4-3.183-.907-2.124-1.762-4.307-2.542-6.49-.384-1.07-.758-2.187-1.112-3.321-.307-.99-.659-2.169-.946-3.4l-.045-.193.121.157c.772,1,1.462,2.02,2.035,2.885.654.992,1.282,1.988,1.867,2.963,1.2,1.984,2.346,4.028,3.417,6.075.518.987,1.048,2.03,1.577,3.1.49,1,.981,2.021,1.5,3.135.7,1.511,1.34,2.95,1.935,4.351q.188-.2.379-.408c.3-.33.651-.7,1-1.065l.059-.062c.311-.326.633-.664.958-.99l.513-.522.522-.516c.253-.253.516-.505.771-.749l.284-.273c.688-.646,1.425-1.331,2.2-1.974l.152-.125-.085.177c-.438.911-.925,1.79-1.386,2.612l-.2.341c-.176.306-.357.623-.542.929l-.375.63-.383.624c-.241.4-.494.8-.739,1.18l-.038.06c-.266.425-.546.851-.793,1.227-.547.845-1.106,1.663-1.629,2.42Zm-11.687-27.649c.277,1.158.608,2.263.9,3.2.354,1.132.728,2.248,1.111,3.317.779,2.181,1.634,4.363,2.54,6.485.437,1.027.909,2.1,1.4,3.181.46,1.007.943,2.036,1.477,3.145,1.081,2.227,2.121,4.249,3.182,6.181l1.085,1.977,1.187-1.721c.522-.757,1.081-1.574,1.627-2.419.247-.376.526-.8.792-1.226l.038-.06c.244-.384.5-.782.738-1.179l.383-.624.375-.63c.185-.306.366-.622.542-.928l.2-.341c.43-.766.882-1.583,1.3-2.427-.72.6-1.4,1.24-2.045,1.842l-.284.273c-.254.244-.517.5-.77.748l-.521.516-.513.521c-.324.326-.646.663-.957.989l-.059.062c-.349.361-.695.735-1,1.064q-.2.218-.406.437.415.98.8,1.941l.027.067-2.5-.277.055-.062c.477-.54.985-1.11,1.514-1.686-.6-1.412-1.243-2.862-1.949-4.385-.52-1.114-1.01-2.139-1.5-3.134-.529-1.069-1.059-2.111-1.577-3.1-1.07-2.045-2.219-4.088-3.414-6.07-.585-.973-1.212-1.969-1.866-2.96-.542-.817-1.187-1.773-1.909-2.72m10.82,24.046,2.191.243q-.368-.911-.76-1.836c-.5.543-.979,1.081-1.431,1.593" transform="translate(-2380.108 -644.926)"/>
        <path id="Path_114428" data-name="Path 114428" d="M2496.845,1260.328c-.765.633-1.485,1.3-2.2,1.972-.353.34-.709.676-1.054,1.022l-.521.516-.513.522c-.344.346-.68.7-1.016,1.052s-.669.708-1,1.065c-.666.71-1.313,1.435-1.957,2.162l2.345.26c-.869-2.152-1.8-4.275-2.773-6.377q-.735-1.575-1.5-3.135t-1.577-3.1q-1.612-3.082-3.416-6.073-.9-1.5-1.867-2.961c-.646-.975-1.309-1.943-2.033-2.882.269,1.155.6,2.28.945,3.4s.719,2.223,1.112,3.319q1.175,3.289,2.541,6.488.682,1.6,1.4,3.182t1.478,3.146c1.011,2.084,2.066,4.148,3.183,6.183l1.119,2.038,1.226-1.778c.552-.8,1.1-1.6,1.628-2.42.267-.406.534-.813.793-1.226s.523-.822.776-1.24l.383-.624.375-.63c.252-.418.493-.845.738-1.269.48-.856.955-1.715,1.385-2.61" transform="translate(-2381.03 -1237.989)" fill="#767676"/>
        <path id="Path_114429" data-name="Path 114429" d="M2488.615,1270.263l-1.153-2.1c-1.061-1.933-2.1-3.956-3.184-6.185-.534-1.108-1.017-2.137-1.478-3.146-.493-1.084-.964-2.155-1.4-3.183-.907-2.123-1.762-4.307-2.542-6.49-.384-1.07-.759-2.187-1.112-3.321-.307-.99-.659-2.169-.946-3.4l-.045-.193.121.157c.772,1,1.462,2.02,2.035,2.885.654.992,1.282,1.988,1.867,2.963,1.2,1.984,2.346,4.028,3.417,6.075.518.988,1.049,2.031,1.577,3.1.49.995.981,2.02,1.5,3.135.7,1.511,1.34,2.95,1.935,4.351q.188-.2.379-.408c.3-.33.651-.7,1-1.065l.059-.062c.311-.326.633-.664.958-.99l.513-.522.522-.516c.252-.252.515-.5.769-.747l.286-.275c.688-.646,1.424-1.33,2.2-1.974l.152-.125-.085.177c-.438.911-.925,1.79-1.386,2.613l-.2.341c-.176.306-.357.622-.542.929l-.375.63-.383.624c-.241.4-.495.8-.74,1.183l-.036.057c-.267.426-.546.852-.793,1.227-.547.845-1.106,1.663-1.629,2.42Zm-11.687-27.649c.278,1.158.608,2.263.9,3.2.354,1.132.728,2.248,1.111,3.317.779,2.181,1.634,4.363,2.54,6.485.437,1.027.909,2.1,1.4,3.181.46,1.009.944,2.037,1.477,3.145,1.081,2.227,2.121,4.249,3.182,6.181l1.085,1.977,1.187-1.721c.522-.757,1.081-1.575,1.627-2.419.247-.375.526-.8.792-1.226l.037-.057c.245-.385.5-.784.739-1.182l.383-.624.375-.63c.185-.306.366-.622.542-.928l.2-.341c.43-.766.882-1.583,1.3-2.427-.72.6-1.4,1.24-2.045,1.842l-.286.275c-.253.243-.516.494-.767.746l-.521.516-.513.521c-.324.326-.646.663-.957.989l-.059.062c-.349.361-.695.735-1,1.064q-.2.218-.406.437.415.98.8,1.941l.027.067-2.5-.277.055-.062c.477-.54.985-1.11,1.514-1.686-.6-1.412-1.243-2.861-1.949-4.385-.52-1.115-1.011-2.14-1.5-3.134-.528-1.068-1.059-2.11-1.577-3.1-1.07-2.045-2.219-4.087-3.414-6.07-.585-.973-1.212-1.969-1.866-2.96-.541-.817-1.187-1.772-1.909-2.72m10.82,24.046,2.191.243q-.368-.911-.76-1.836c-.5.543-.979,1.081-1.431,1.593" transform="translate(-2380.108 -1236.046)"/>
        <rect id="Rectangle_155213" data-name="Rectangle 155213" width="106.888" height="1.692" transform="translate(-15.518 -43.776)" fill="#7c7c7c"/>
        <path id="Path_114430" data-name="Path 114430" d="M1282.1,663.8H1175.124v-1.778H1282.1Zm-106.888-.086h106.8v-1.605h-106.8Z" transform="translate(-1190.686 -705.84)"/>
        <rect id="Rectangle_155214" data-name="Rectangle 155214" width="124.808" height="1.692" transform="translate(-33.438 -39.32)" fill="#7c7c7c"/>
        <path id="Path_114431" data-name="Path 114431" d="M1092.142,715.485H967.248v-1.778h124.894ZM967.334,715.4h124.722v-1.605H967.334Z" transform="translate(-1000.729 -753.07)"/>
        <rect id="Rectangle_155215" data-name="Rectangle 155215" width="114.345" height="1.692" transform="translate(-22.975 -34.864)" fill="#7c7c7c"/>
        <path id="Path_114432" data-name="Path 114432" d="M1203.056,767.172H1088.625v-1.778h114.431Zm-114.345-.086H1202.97V765.48H1088.711Z" transform="translate(-1111.643 -800.302)"/>
        <rect id="Rectangle_155216" data-name="Rectangle 155216" width="106.888" height="1.692" transform="translate(-15.518 -30.409)" fill="#7c7c7c"/>
        <path id="Path_114433" data-name="Path 114433" d="M1282.1,818.859H1175.124v-1.778H1282.1Zm-106.888-.086h106.8v-1.605h-106.8Z" transform="translate(-1190.686 -847.533)"/>
        <rect id="Rectangle_155217" data-name="Rectangle 155217" width="134.911" height="1.692" transform="translate(-43.541 -25.953)" fill="#7c7c7c"/>
        <path id="Path_114434" data-name="Path 114434" d="M985.053,870.544h-135v-1.778h135Zm-134.911-.086H984.967v-1.605H850.142Z" transform="translate(-893.64 -894.762)"/>
        <rect id="Rectangle_155218" data-name="Rectangle 155218" width="106.888" height="1.692" transform="translate(-15.518 -15.421)" fill="#ddd"/>
        <path id="Path_114435" data-name="Path 114435" d="M1282.1,992.722H1175.124v-1.778H1282.1Zm-106.888-.086h106.8V991.03h-106.8Z" transform="translate(-1190.686 -1006.408)"/>
        <rect id="Rectangle_155219" data-name="Rectangle 155219" width="72.079" height="1.692" transform="translate(19.291 -10.965)" fill="#ddd"/>
        <path id="Path_114436" data-name="Path 114436" d="M1651.09,1044.409h-72.165v-1.778h72.165Zm-72.079-.086H1651v-1.605h-71.992Z" transform="translate(-1559.677 -1053.639)"/>
        <rect id="Rectangle_155220" data-name="Rectangle 155220" width="114.345" height="1.692" transform="translate(-22.975 -6.51)" fill="#ddd"/>
        <path id="Path_114437" data-name="Path 114437" d="M1203.056,1096.094H1088.625v-1.778h114.431Zm-114.345-.086H1202.97V1094.4H1088.711Z" transform="translate(-1111.643 -1100.869)"/>
        <rect id="Rectangle_155221" data-name="Rectangle 155221" width="106.888" height="1.692" transform="translate(-15.518 -2.054)" fill="#ddd"/>
        <path id="Path_114438" data-name="Path 114438" d="M1282.1,1147.78H1175.124V1146H1282.1Zm-106.888-.086h106.8v-1.605h-106.8Z" transform="translate(-1190.686 -1148.099)"/>
        <rect id="Rectangle_155222" data-name="Rectangle 155222" width="45.663" height="1.692" transform="translate(45.707 2.402)" fill="#ddd"/>
        <path id="Path_114439" data-name="Path 114439" d="M1931.1,1199.468h-45.749v-1.778H1931.1Zm-45.663-.086h45.577v-1.605H1885.44Z" transform="translate(-1839.69 -1195.331)"/>
        <rect id="Rectangle_155223" data-name="Rectangle 155223" width="106.888" height="1.692" transform="translate(-15.518 12.934)" fill="#3d5891"/>
        <rect id="Rectangle_155224" data-name="Rectangle 155224" width="124.808" height="1.692" transform="translate(-33.438 17.389)" fill="#3d5891"/>
        <rect id="Rectangle_155225" data-name="Rectangle 155225" width="61.046" height="1.692" transform="translate(30.324 21.845)" fill="#3d5891"/>
        <rect id="Rectangle_155226" data-name="Rectangle 155226" width="106.888" height="1.692" transform="translate(-15.518 26.301)" fill="#3d5891"/>
        <rect id="Rectangle_155227" data-name="Rectangle 155227" width="134.911" height="1.692" transform="translate(-43.541 30.756)" fill="#3d5891"/>
        <rect id="Rectangle_155228" data-name="Rectangle 155228" width="106.888" height="1.692" transform="translate(-15.518 41.288)" fill="#ddd"/>
        <path id="Path_114440" data-name="Path 114440" d="M1282.1,1650.566H1175.124v-1.778H1282.1Zm-106.888-.086h106.8v-1.605h-106.8Z" transform="translate(-1190.686 -1607.543)"/>
        <rect id="Rectangle_155229" data-name="Rectangle 155229" width="124.808" height="1.692" transform="translate(-33.438 45.744)" fill="#ddd"/>
        <path id="Path_114441" data-name="Path 114441" d="M1092.142,1702.253H967.248v-1.778h124.894Zm-124.808-.086h124.722v-1.605H967.334Z" transform="translate(-1000.729 -1654.774)"/>
        <rect id="Rectangle_155230" data-name="Rectangle 155230" width="65.389" height="1.692" transform="translate(25.981 50.2)" fill="#ddd"/>
        <path id="Path_114442" data-name="Path 114442" d="M1722,1753.939h-65.475v-1.778H1722Zm-65.389-.086h65.3v-1.605h-65.3Z" transform="translate(-1630.587 -1702.005)"/>
        <rect id="Rectangle_155231" data-name="Rectangle 155231" width="106.888" height="1.692" transform="translate(-15.518 54.655)" fill="#ddd"/>
        <path id="Path_114443" data-name="Path 114443" d="M1282.1,1805.625H1175.124v-1.778H1282.1Zm-106.888-.086h106.8v-1.605h-106.8Z" transform="translate(-1190.686 -1749.235)"/>
        <rect id="Rectangle_155232" data-name="Rectangle 155232" width="134.911" height="1.692" transform="translate(-43.541 59.111)" fill="#ddd"/>
        <path id="Path_114444" data-name="Path 114444" d="M985.053,1857.312h-135v-1.778h135Zm-134.911-.086H984.967v-1.605H850.142Z" transform="translate(-893.64 -1796.466)"/>
      </g>
    </g>
    <g id="Group_181527" data-name="Group 181527">
      <g id="Group_181526" data-name="Group 181526" clip-path="url(#clip-path)">
        <path id="Path_114446" data-name="Path 114446" d="M1793.953,1615.682q.728-.7,1.363-1.448l8.5,8.8c.522.541.306,1.6-.483,2.359s-1.852.941-2.375.4l-8.5-8.8c.51-.406,1.01-.842,1.5-1.311" transform="translate(-1637.94 -1475.079)" fill="#8e53a9"/>
        <path id="Path_114447" data-name="Path 114447" d="M1345.6,1195.58a24.959,24.959,0,1,0,.513-35.4,25.037,25.037,0,0,0-.513,35.4m2.073-2a22.078,22.078,0,1,1,31.312.647,22.146,22.146,0,0,1-31.312-.647" transform="translate(-1223.132 -1053.793)" fill="#8e53a9"/>
        <g id="Group_181480" data-name="Group 181480" transform="translate(116.906 100.931)" opacity="0.47">
          <g id="Group_181479" data-name="Group 181479">
            <g id="Group_181478" data-name="Group 181478" clip-path="url(#clip-path-7)">
              <path id="Path_114448" data-name="Path 114448" d="M1362.791,1210.635a23.445,23.445,0,1,0,.482-33.255,23.517,23.517,0,0,0-.482,33.255m.983-.949a22.078,22.078,0,1,1,31.312.647,22.146,22.146,0,0,1-31.312-.647" transform="translate(-1356.142 -1170.832)" fill="#8e53a9"/>
            </g>
          </g>
        </g>
        <path id="Path_114449" data-name="Path 114449" d="M1906.708,1734.212l1.4-1.37a3.547,3.547,0,0,0,.056-5.015l-26.229-27.209a3.546,3.546,0,0,0-5.015-.056l-1.4,1.37a3.546,3.546,0,0,0-.056,5.015l26.229,27.209a3.546,3.546,0,0,0,5.015.056" transform="translate(-1712.867 -1553.041)" fill="#2e3192"/>
        <path id="Path_114450" data-name="Path 114450" d="M255.412,2213.138c0,3.221,19,5.832,42.437,5.832s42.437-2.611,42.437-5.832-19-5.832-42.437-5.832-42.437,2.611-42.437,5.832" transform="translate(-233.394 -2017.026)" fill="#f2d4ff"/>
        <g id="Group_181483" data-name="Group 181483" transform="translate(68.235 159.525)" opacity="0.47">
          <g id="Group_181482" data-name="Group 181482">
            <g id="Group_181481" data-name="Group 181481" clip-path="url(#clip-path-8)">
              <path id="Path_114451" data-name="Path 114451" d="M791.547,1854.9c0,2.414,12.2,4.37,27.245,4.37s27.245-1.957,27.245-4.37-12.2-4.37-27.245-4.37-27.245,1.957-27.245,4.37" transform="translate(-791.547 -1850.53)" fill="#243354"/>
            </g>
          </g>
        </g>
        <path id="Path_114452" data-name="Path 114452" d="M840.339,1578.245l.358,22.284a3.21,3.21,0,0,0,3.261,3.158l37.035-.594a3.064,3.064,0,0,0,2.989-3.463l-2.843-21.648a4.637,4.637,0,0,0-4.672-4.033l-32.471.521a3.716,3.716,0,0,0-3.656,3.776" transform="translate(-767.897 -1438.266)" fill="#2f4171"/>
        <path id="Path_114453" data-name="Path 114453" d="M840.7,1605.806l-.358-22.284a3.716,3.716,0,0,1,3-3.706c.647.233,2.107,1.428,2.556,7.424.583,7.782,2.536,15.236,3.038,17.978s-2.919,3.713-4.98,3.746a3.21,3.21,0,0,1-3.261-3.158" transform="translate(-767.898 -1443.629)" fill="#686868"/>
        <path id="Path_114454" data-name="Path 114454" d="M843.448,1608.536a3.256,3.256,0,0,1-3.251-3.2l-.358-22.284a3.752,3.752,0,0,1,3.038-3.749l.012,0,.011,0a2.724,2.724,0,0,1,1.377,1.573,17.839,17.839,0,0,1,1.208,5.888,112.9,112.9,0,0,0,2.505,15.432c.234,1.072.419,1.919.533,2.542a2.461,2.461,0,0,1-.51,2.093c-.937,1.142-2.94,1.679-4.511,1.7h-.053m-3.165-3.2a3.168,3.168,0,0,0,3.217,3.115c1.55-.025,3.526-.552,4.445-1.673a2.378,2.378,0,0,0,.492-2.023c-.114-.621-.3-1.467-.532-2.539a112.969,112.969,0,0,1-2.507-15.444c-.448-5.971-1.9-7.153-2.517-7.382a3.666,3.666,0,0,0-2.956,3.661Z" transform="translate(-767.44 -1443.157)"/>
        <g id="Group_181486" data-name="Group 181486" transform="translate(77.422 135.6)" opacity="0.29">
          <g id="Group_181485" data-name="Group 181485">
            <g id="Group_181484" data-name="Group 181484" clip-path="url(#clip-path-9)">
              <path id="Path_114455" data-name="Path 114455" d="M933.878,1577.169l2.1,16.016c-8.317.208-25.35.6-29.488.428-5.53-.227-5.78-5.908-6.133-10.955a29.4,29.4,0,0,0-2.243-9.161l30.931-.5a4.794,4.794,0,0,1,4.83,4.169" transform="translate(-898.117 -1573)" fill="#243354"/>
            </g>
          </g>
        </g>
        <path id="Path_114456" data-name="Path 114456" d="M946.888,1576.995l2.035,15.495c-8.046.2-24.525.579-28.528.415-5.35-.22-5.591-5.715-5.934-10.6a28.442,28.442,0,0,0-2.17-8.863l29.925-.48a4.637,4.637,0,0,1,4.672,4.033" transform="translate(-833.647 -1437.364)" fill="#2f4171"/>
        <path id="Path_114457" data-name="Path 114457" d="M1018,1521.38s-.811-5.1-3.726-5.052l-9.382.151s-2.181.327-2.1,5.145l2.1-.034s.044-2.926,1.039-3.4,8.379-.226,8.379-.226a3.786,3.786,0,0,1,1.512,3.389c1.64-.026,2.187.023,2.187.023" transform="translate(-916.338 -1385.613)" fill="#243354"/>
        <g id="Group_181489" data-name="Group 181489" transform="translate(86.444 130.715)" opacity="0.38">
          <g id="Group_181488" data-name="Group 181488">
            <g id="Group_181487" data-name="Group 181487" clip-path="url(#clip-path-10)">
              <path id="Path_114458" data-name="Path 114458" d="M1004.88,1521.59l-2.1.034c-.077-4.818,2.1-5.146,2.1-5.146l9.382-.151c1.457-.023,2.389,1.24,2.956,2.508-2.282-3.072-9.5-1.172-11.023-.729a1.347,1.347,0,0,0-.285.086c-.995.472-1.039,3.4-1.039,3.4" transform="translate(-1002.782 -1516.327)" fill="#5681bf"/>
            </g>
          </g>
        </g>
        <path id="Path_114459" data-name="Path 114459" d="M1051.422,1753.948h-.02a.976.976,0,0,1-.982-.84l-.848-6.045a.975.975,0,0,1,.95-1.111h.02a.976.976,0,0,1,.982.84l.848,6.045a.976.976,0,0,1-.95,1.111" transform="translate(-959.085 -1595.443)" fill="#d1dbed"/>
        <g id="Group_181492" data-name="Group 181492" transform="translate(96.056 135.597)" opacity="0.38">
          <g id="Group_181491" data-name="Group 181491">
            <g id="Group_181490" data-name="Group 181490" clip-path="url(#clip-path-11)">
              <path id="Path_114460" data-name="Path 114460" d="M1123.656,1586.493c-1.195-10.98-9.379-13.272-9.379-13.272l.329-.064,12.183-.2a4.637,4.637,0,0,1,4.672,4.033l2.843,21.648a3.045,3.045,0,0,1-.273,1.72c-3.823-2.179-9.586-6.618-10.375-13.87" transform="translate(-1114.277 -1572.961)" fill="#5681bf"/>
            </g>
          </g>
        </g>
        <path id="Path_114461" data-name="Path 114461" d="M1256.939,1750.649h-.02a.976.976,0,0,1-.982-.84l-.848-6.045a.975.975,0,0,1,.95-1.111h.02a.976.976,0,0,1,.982.84l.848,6.045a.975.975,0,0,1-.95,1.111" transform="translate(-1146.885 -1592.428)" fill="#d1dbed"/>
        <path id="Path_114462" data-name="Path 114462" d="M1261.9,1788.847l-1.986.032.141,1,2-.032Z" transform="translate(-1151.305 -1634.64)" fill="#5681bf"/>
        <path id="Path_114463" data-name="Path 114463" d="M1056.339,1792.148l-1.985.032.141,1,2-.032Z" transform="translate(-963.463 -1637.656)" fill="#5681bf"/>
        <path id="Path_114464" data-name="Path 114464" d="M600.991,2168.932v6.23l-5.036.923v-6.9Z" transform="translate(-544.581 -1981.96)" fill="#2f4171"/>
        <path id="Path_114465" data-name="Path 114465" d="M774.583,2067.012s2.5,4.668,10.5,5.333,6.835,7.836.5,8.67c-10.99,1.448-19.506-1.666-23.341-4.667l-2.326,2.692s-3.844.14-4.177-.36.333-13.5.333-13.5,10.852-3.056,18.507,1.834" transform="translate(-690.51 -1886.287)" fill="#2f4171"/>
        <g id="Group_181498" data-name="Group 181498" transform="translate(65.141 177.947)" opacity="0.31">
          <g id="Group_181497" data-name="Group 181497">
            <g id="Group_181496" data-name="Group 181496" clip-path="url(#clip-path-12)">
              <g id="Group_181495" data-name="Group 181495" opacity="0.3" style="mix-blend-mode: multiply;isolation: isolate">
                <g id="Group_181494" data-name="Group 181494">
                  <g id="Group_181493" data-name="Group 181493" clip-path="url(#clip-path-12)">
                    <path id="Path_114466" data-name="Path 114466" d="M774.583,2067.012s.023.043.073.122c-4.263,2.623-10.909,2.045-12.909,1.88s.165,2.332,7.668,8,19.545,2.679,19.545,2.679a6.965,6.965,0,0,1-3.373,1.322c-10.99,1.448-19.506-1.666-23.341-4.667l-2.326,2.692s-3.844.14-4.177-.36.333-13.5.333-13.5,10.852-3.056,18.507,1.834" transform="translate(-755.65 -2064.234)" fill="#243354"/>
                  </g>
                </g>
              </g>
            </g>
          </g>
        </g>
        <path id="Path_114467" data-name="Path 114467" d="M405.484,2034.36a.03.03,0,0,1,0,.005,16.09,16.09,0,0,1-3.731,8.812c-5.806,6.346-17.6,15.207-19.563,10.24a5.788,5.788,0,0,1-.239-2.623,33.124,33.124,0,0,1,.96-5.288,60.772,60.772,0,0,1,6.5-14.994v-6.022l15.384-2.179a35.676,35.676,0,0,1,.686,12.05" transform="translate(-348.986 -1847.977)" fill="#2f4171"/>
        <path id="Path_114468" data-name="Path 114468" d="M680.374,998.224l.3,4.957,2.981,49.468,2.43,40.324h30.1s-14.545-86.814-14.852-91.716h0c-.124-1.995-.184-3.032-.184-3.032Z" transform="translate(-621.723 -912.172)" fill="#2c4da2"/>
        <g id="Group_181501" data-name="Group 181501" transform="translate(58.95 91.009)" opacity="0.3">
          <g id="Group_181500" data-name="Group 181500">
            <g id="Group_181499" data-name="Group 181499" clip-path="url(#clip-path-14)">
              <path id="Path_114469" data-name="Path 114469" d="M683.839,1055.731l2.981,49.468,2.43,40.324h17.343c-3.467-.452-7.995-1.339-10.7-3.034-4.844-3.034-6.855-19.292-6.682-32.8.139-10.917,2.644-41.87,3.6-53.332q-.788.018-1.632.007a53.489,53.489,0,0,1-7.336-.635" transform="translate(-683.839 -1055.731)" fill="#254384"/>
            </g>
          </g>
        </g>
        <g id="Group_181504" data-name="Group 181504" transform="translate(33.203 174.333)" opacity="0.31">
          <g id="Group_181503" data-name="Group 181503">
            <g id="Group_181502" data-name="Group 181502" clip-path="url(#clip-path-15)">
              <path id="Path_114470" data-name="Path 114470" d="M408.461,2034.36a.03.03,0,0,1,0,.005,16.09,16.09,0,0,1-3.731,8.812c-5.806,6.346-17.6,15.207-19.563,10.24,7.334,2.129,20.488-12.995,19.171-18.315-1.031-4.17-8.582-5.08-11.946-5.278v-5.334l15.384-2.179a35.676,35.676,0,0,1,.686,12.05" transform="translate(-385.166 -2022.31)" fill="#243354"/>
            </g>
          </g>
        </g>
        <path id="Path_114471" data-name="Path 114471" d="M907.467,950.474c-.007-.09-.011-.153-.013-.179v-.006l.024,0s0,.068-.011.19" transform="translate(-829.227 -868.365)" fill="#fff"/>
        <path id="Path_114472" data-name="Path 114472" d="M907.467,950.474c-.007-.09-.011-.153-.013-.179v-.006l.024,0S907.473,950.352,907.467,950.474Z" transform="translate(-829.227 -868.365)" fill="none" stroke="#000" stroke-miterlimit="10" stroke-width="1.071"/>
        <path id="Path_114473" data-name="Path 114473" d="M373.992,999.371c-.357,2.9-3.425,10.786-4.729,27.753-.048.617-.465,2.481-.514,3.132-1.631,22.091-9.665,62.516-9.665,62.516l27.341.642.355-3.983,3.281-36.783,4.355-48.832.5-5.593H374.139s-.051.366-.147,1.147" transform="translate(-328.129 -912.172)" fill="#2c4da2"/>
        <g id="Group_181507" data-name="Group 181507" transform="translate(45.863 86.051)" opacity="0.3">
          <g id="Group_181506" data-name="Group 181506">
            <g id="Group_181505" data-name="Group 181505" clip-path="url(#clip-path-16)">
              <path id="Path_114474" data-name="Path 114474" d="M532.166,998.224s-.051.366-.147,1.147a29.151,29.151,0,0,0,6.711,2.524c2.28.566,4.4.986,6.377,1.286a53.48,53.48,0,0,0,7.336.635q.844.012,1.632-.007c8.039-.182,11.693-2.553,11.693-2.553h0c-.124-1.995-.184-3.032-.184-3.032Z" transform="translate(-532.019 -998.224)" fill="#254384"/>
            </g>
          </g>
        </g>
        <path id="Path_114475" data-name="Path 114475" d="M680.112,452.745c3.5,4.348,8.84,5.351,9.135.115a21.274,21.274,0,0,0-9.135-.115" transform="translate(-621.483 -413.3)" fill="#2e6857"/>
        <path id="Path_114476" data-name="Path 114476" d="M810.248,305.516c3.121-3.287,1.059-8.377,1.059-8.377-3.018.067-2.2,2.474-1.059,8.377" transform="translate(-739.458 -271.524)" fill="#010101"/>
        <path id="Path_114477" data-name="Path 114477" d="M809.778,305.143l-.016-.082c-.114-.591-.225-1.146-.329-1.668-.648-3.246-1.04-5.206-.3-6.126a2.13,2.13,0,0,1,1.732-.635h.03l.011.028c.021.051,2.036,5.154-1.068,8.423Zm1.056-8.424a2.031,2.031,0,0,0-1.636.6c-.712.889-.324,2.833.32,6.055q.149.746.313,1.586c2.867-3.106,1.158-7.836,1-8.242" transform="translate(-739.014 -271.061)"/>
        <path id="Path_114478" data-name="Path 114478" d="M785.574,359.362l-1.537,4.19s3.838.928,4.133-1.683-2.6-2.507-2.6-2.507" transform="translate(-716.449 -328.383)" fill="#f18a8b"/>
        <path id="Path_114479" data-name="Path 114479" d="M814.913,384.98a.622.622,0,0,0-.155.138l.385.07c0-.074-.007-.142,0-.207a1,1,0,0,1,.01-.1.74.74,0,0,0-.074.022.776.776,0,0,0-.164.079" transform="translate(-744.522 -351.701)"/>
        <path id="Path_114480" data-name="Path 114480" d="M814.488,378.839a.085.085,0,0,0-.108.121c0,.065,0,.133,0,.207L814,379.1a.622.622,0,0,1,.155-.138.776.776,0,0,1,.164-.079.716.716,0,0,1,.074-.022c0-.031.01-.061.018-.093a1.323,1.323,0,0,1,.073-.216c.034-.078.075-.16.128-.256a.554.554,0,0,0-.315.068.672.672,0,0,0-.247.228.71.71,0,0,0-.117.332.742.742,0,0,0,0,.175,1.149,1.149,0,0,0,.036.165l.172.61.213-.54a.6.6,0,0,1,.053-.1c.023-.037.052-.076.081-.117a3,3,0,0,0,.184-.28.721.721,0,0,0-.182,0" transform="translate(-743.76 -345.679)"/>
        <path id="Path_114481" data-name="Path 114481" d="M709.768,440.818a2.548,2.548,0,1,0,5.092.175l.091-2.648-5.092-.175Z" transform="translate(-648.581 -400.398)" fill="#dcdcdc"/>
        <path id="Path_114482" data-name="Path 114482" d="M711.858,443.024l-.09,0a2.594,2.594,0,0,1-2.5-2.678l.093-2.691,5.178.178-.093,2.692a2.594,2.594,0,0,1-2.588,2.5m-2.414-5.282-.09,2.605a2.5,2.5,0,1,0,5.006.172l.09-2.605Z" transform="translate(-648.124 -399.925)"/>
        <path id="Path_114483" data-name="Path 114483" d="M710.483,439.066c1.4,1.733,4.209,1.783,5.038,1.757l.085-2.479-5.092-.175Z" transform="translate(-649.236 -400.397)" fill="#c1c1c1"/>
        <path id="Path_114484" data-name="Path 114484" d="M714.8,440.4c-1.055,0-3.523-.182-4.81-1.777l-.01-.012.033-.956,5.178.178-.088,2.563h-.04c-.073,0-.161,0-.263,0m-4.733-1.819c1.367,1.678,4.084,1.753,4.952,1.73l.083-2.4-5.006-.172Z" transform="translate(-648.774 -399.925)"/>
        <path id="Path_114485" data-name="Path 114485" d="M679.852,273.09c-5.834.536-5.1,6.213-5.1,6.213s-.494,4.3,1.806,7.016a6.542,6.542,0,0,0,5.276,2.182,6.085,6.085,0,0,0,1.92-.278c5.753-1.868,3.491-12.531,3.491-12.531s-1.558-3.139-7.391-2.6" transform="translate(-616.544 -249.492)" fill="#f5b0a6"/>
        <path id="Path_114486" data-name="Path 114486" d="M806.333,397.162l-.185-.021.049.171Z" transform="translate(-736.654 -362.906)"/>
        <path id="Path_114487" data-name="Path 114487" d="M790.758,357.536l-.118-.481c-.038-.161-.083-.32-.124-.48s-.084-.32-.131-.478q-.134-.477-.286-.95c-.1-.315-.209-.629-.331-.939.042.33.1.657.16.982s.131.649.205.971c.035.162.075.322.115.482s.077.321.121.481l.127.479.088.306.185.021-.136.149-.049-.171-.227-.025c-.137-.016-.275-.027-.412-.04s-.276-.022-.414-.033-.277-.016-.416-.02c.133.039.267.075.4.109s.269.067.4.1.269.062.4.089.27.057.406.083l.177.034-.041-.183Z" transform="translate(-721.09 -323.674)"/>
        <path id="Path_114488" data-name="Path 114488" d="M804.308,339.121a.994.994,0,0,0-1.166.26c-.087.236.331.4.851.594s.946.338,1.033.1-.2-.764-.717-.956" transform="translate(-733.896 -309.819)" fill="#010101"/>
        <path id="Path_114489" data-name="Path 114489" d="M804.345,339.782a.812.812,0,0,1-.137-.014,6.88,6.88,0,0,1-1.347-.5c-.071-.043-.287-.172-.216-.365a.648.648,0,0,1,.45-.317,1.255,1.255,0,0,1,1.379.51.648.648,0,0,1,.135.533.255.255,0,0,1-.264.151m-.912-1.153a1.2,1.2,0,0,0-.316.042.577.577,0,0,0-.392.264c-.02.054-.023.14.179.262a6.827,6.827,0,0,0,1.317.487c.233.04.286-.028.306-.082a.576.576,0,0,0-.126-.455,1.186,1.186,0,0,0-.565-.445,1.159,1.159,0,0,0-.4-.072" transform="translate(-733.44 -309.359)"/>
        <path id="Path_114490" data-name="Path 114490" d="M759.825,338.722c-.512.213-.775.751-.679.984s.516.07,1.028-.143.923-.4.827-.627a.994.994,0,0,0-1.176-.213" transform="translate(-693.686 -309.439)" fill="#010101"/>
        <path id="Path_114491" data-name="Path 114491" d="M758.9,339.413a.238.238,0,0,1-.247-.141.648.648,0,0,1,.114-.538,1.27,1.27,0,0,1,.588-.5,1.033,1.033,0,0,1,1.232.237c.117.282-.353.477-.85.684a2.7,2.7,0,0,1-.838.26m.939-1.189a1.162,1.162,0,0,0-1,.555.577.577,0,0,0-.108.46c.078.188.469.043.972-.166s.881-.383.8-.571a.752.752,0,0,0-.669-.278" transform="translate(-693.231 -308.989)"/>
        <path id="Path_114492" data-name="Path 114492" d="M805.532,357.892c-.339.031-.579.435-.536.9s.353.818.692.786.579-.435.536-.9-.353-.818-.692-.786" transform="translate(-735.597 -327.038)" fill="#010101"/>
        <path id="Path_114493" data-name="Path 114493" d="M805.19,359.168a.6.6,0,0,1-.447-.223,1.065,1.065,0,0,1-.246-.6.8.8,0,0,1,.575-.947c.363-.033.694.337.739.825a.8.8,0,0,1-.575.947l-.047,0m-.11-1.689c-.315.029-.538.412-.5.853a.979.979,0,0,0,.225.555.5.5,0,0,0,.421.192c.315-.029.538-.412.5-.853s-.33-.777-.645-.747" transform="translate(-735.142 -326.582)"/>
        <path id="Path_114494" data-name="Path 114494" d="M766.992,359.919c-.339.031-.579.435-.536.9s.353.818.692.786.579-.435.536-.9-.353-.818-.692-.786" transform="translate(-700.38 -328.891)" fill="#010101"/>
        <path id="Path_114495" data-name="Path 114495" d="M766.651,361.195a.6.6,0,0,1-.447-.223,1.065,1.065,0,0,1-.246-.6.8.8,0,0,1,.575-.947c.363-.033.694.337.739.825a1.066,1.066,0,0,1-.13.639.586.586,0,0,1-.444.308l-.047,0m-.11-1.689c-.315.029-.538.412-.5.854a.978.978,0,0,0,.225.555.464.464,0,0,0,.8-.074.978.978,0,0,0,.119-.587c-.041-.441-.331-.778-.645-.748" transform="translate(-699.924 -328.435)"/>
        <g id="Group_181510" data-name="Group 181510" transform="translate(63.778 32.324)" opacity="0.48">
          <g id="Group_181509" data-name="Group 181509">
            <g id="Group_181508" data-name="Group 181508" clip-path="url(#clip-path-17)">
              <path id="Path_114496" data-name="Path 114496" d="M741.249,375.052a.936.936,0,1,0,.724,1.248,1.03,1.03,0,0,0-.724-1.248" transform="translate(-739.839 -374.969)" fill="#f18a8b"/>
            </g>
          </g>
        </g>
        <g id="Group_181513" data-name="Group 181513" transform="translate(70.122 32.743)" opacity="0.48">
          <g id="Group_181512" data-name="Group 181512">
            <g id="Group_181511" data-name="Group 181511" clip-path="url(#clip-path-18)">
              <path id="Path_114497" data-name="Path 114497" d="M814.541,379.911a.817.817,0,1,0,.168,1.027.743.743,0,0,0-.168-1.027" transform="translate(-813.435 -379.834)" fill="#f18a8b"/>
            </g>
          </g>
        </g>
        <path id="Path_114498" data-name="Path 114498" d="M652.24,240.861a15.7,15.7,0,0,0-8.644.183c-4.067,1.339-3.648,11.722,1.452,14.6.018-.611-2.77-6.91-1.5-6.162s1.533,3.949,2.893,1.154c.951-1.957,1.977-5.158,2.362-4.831a5.455,5.455,0,0,0,1.066.727c7.356,3.706,9.006-2.472,8.214-4.378-.82-1.973-4.465-1.048-5.841-1.3" transform="translate(-585.604 -219.612)" fill="#010101"/>
        <path id="Path_114499" data-name="Path 114499" d="M644.639,255.257l-.062-.035a8.067,8.067,0,0,1-3.4-4.319,13.019,13.019,0,0,1-.768-5.686c.244-2.482,1.236-4.187,2.722-4.676a15.078,15.078,0,0,1,8.159-.283c.189.038.359.073.507.1a8.306,8.306,0,0,0,1.566.021c1.651-.066,3.705-.149,4.308,1.3a3.789,3.789,0,0,1,.062,2.156,4.662,4.662,0,0,1-1.319,2.381c-1.092,1.015-3.195,1.821-7.015-.1a5.482,5.482,0,0,1-1.075-.733.047.047,0,0,0-.045-.011,8.163,8.163,0,0,0-1.248,2.507c-.327.8-.666,1.632-1,2.322-.376.774-.692,1.139-.993,1.149-.353.014-.62-.451-.929-.988a3.519,3.519,0,0,0-1.031-1.3c-.068-.04-.159-.079-.207-.038-.3.251.554,2.595,1.119,4.146a12.374,12.374,0,0,1,.654,2.018Zm2.937-15.347a14.019,14.019,0,0,0-4.417.712c-1.452.478-2.423,2.156-2.664,4.6a12.93,12.93,0,0,0,.763,5.647,8.03,8.03,0,0,0,3.289,4.233,18.658,18.658,0,0,0-.641-1.909c-.817-2.239-1.416-3.973-1.094-4.242.07-.058.173-.048.306.03a3.575,3.575,0,0,1,1.062,1.328c.295.513.549.955.851.945.263-.009.563-.369.919-1.1.334-.687.672-1.515,1-2.317.629-1.542,1.029-2.49,1.308-2.558a.133.133,0,0,1,.122.029,5.4,5.4,0,0,0,1.058.721c3.776,1.9,5.846,1.114,6.918.118.928-.863,1.848-2.97,1.237-4.44-.58-1.394-2.6-1.313-4.225-1.248a8.348,8.348,0,0,1-1.584-.022c-.149-.027-.319-.061-.509-.1a17.82,17.82,0,0,0-3.7-.432" transform="translate(-585.154 -219.149)"/>
        <path id="Path_114500" data-name="Path 114500" d="M640.232,342.272a2.665,2.665,0,0,0-3.663.554,1.913,1.913,0,0,0-.216.375,2.619,2.619,0,0,0-.2,1.164,2.321,2.321,0,0,0,1.4,2.088,3.939,3.939,0,0,0,2.9-.247,4.74,4.74,0,0,0,.366-3.169,1.672,1.672,0,0,0-.582-.764" transform="translate(-581.308 -312.309)" fill="#f5b0a6"/>
        <path id="Path_114501" data-name="Path 114501" d="M674.286,369.726a1.791,1.791,0,0,0-.41-.139c-.046-.01-.091-.018-.137-.025a1.439,1.439,0,0,1,.181.426Z" transform="translate(-615.659 -337.703)"/>
        <path id="Path_114502" data-name="Path 114502" d="M659.349,358.443a1.574,1.574,0,0,0-.527-.46,1.929,1.929,0,0,0-.629-.21,1.751,1.751,0,0,0-.642.013c.2.087.378.174.55.267a3.293,3.293,0,0,1,.474.308,1.728,1.728,0,0,1,.353.376c.007.01.012.021.019.031.045.007.091.015.137.025a1.794,1.794,0,0,1,.41.139l-.366.261a1.439,1.439,0,0,0-.181-.426c-.089-.014-.177-.024-.265-.03a3.146,3.146,0,0,0-.4,0,2.436,2.436,0,0,0-.4.056c.123.054.245.1.365.15l.357.135c.117.045.233.088.341.136a2.1,2.1,0,0,1,.3.151l.452.294-.086-.555a1.5,1.5,0,0,0-.266-.662" transform="translate(-600.867 -326.911)"/>
        <path id="Path_114503" data-name="Path 114503" d="M539.7,501.059a33.592,33.592,0,0,1,.084-4.837c.358-4.3-.219-15.36-.843-22.978-.012-.151-.025-.3-.037-.448-.157-1.881-.316-3.531-.462-4.789a15.567,15.567,0,0,0-.4-2.466,3.484,3.484,0,0,0-1.439-1.18c-.222-.127-.462-.256-.719-.388-1.228-.631-2.818-1.307-4.347-1.912-1.2-.474-2.358-.9-3.278-1.239a7.339,7.339,0,0,1-1.94,2.385,61.866,61.866,0,0,0-6.57-3.069h-.3s-1.492.736-3.511,1.748h0c-4.151,2.082-10.531,5.33-10.777,5.762a21.814,21.814,0,0,0-.67,8.415,105.945,105.945,0,0,1,.546,13.623s.308,4.8.583,9.207c.223,3.579.427,6.9.427,7.187A4.929,4.929,0,0,0,508,509.136c.487.195,8.517.338,16.16.346,2.784,0,5.517-.011,7.815-.047h0a45.391,45.391,0,0,0,6.06-.3c1.556-.55,3.166-2.012,2.817-2.744a13.984,13.984,0,0,1-1.16-5.334" transform="translate(-460.872 -420.471)" fill="#dbdcff"/>
        <path id="Path_114504" data-name="Path 114504" d="M709.562,558.771s-2.267,15.73-3.16,21.706c.618,2.2,4.4,7.968,4.4,7.968s1.365.206,4.388-8.174c-.481-8.93-3.033-20.971-3.091-21.5Z" transform="translate(-645.507 -510.602)" fill="#8e53a9"/>
        <path id="Path_114505" data-name="Path 114505" d="M762.49,468.1s-.125.281-.349.684a7.34,7.34,0,0,1-1.94,2.385c.184,1.877,2.346,3.5,2.942,3.222s1.635-2.216,2.277-4.367a0,0,0,0,0,0,0,4.212,4.212,0,0,0-2.929-1.923" transform="translate(-694.668 -427.748)" fill="#292929"/>
        <path id="Path_114506" data-name="Path 114506" d="M762.5,473.972a1.516,1.516,0,0,1-.7-.239,4.43,4.43,0,0,1-2.129-3.053l0-.025.021-.014a7.394,7.394,0,0,0,1.927-2.37c.22-.4.346-.677.347-.68l.013-.029.031,0a4.3,4.3,0,0,1,2.949,1.922h.018v.051l0,.006c-.624,2.094-1.678,4.106-2.3,4.394a.422.422,0,0,1-.178.035m-2.737-3.275a4.351,4.351,0,0,0,2.083,2.961,1.025,1.025,0,0,0,.795.2c.6-.278,1.629-2.255,2.248-4.322a4.186,4.186,0,0,0-2.857-1.882c-.038.083-.156.332-.337.657a7.531,7.531,0,0,1-1.933,2.385" transform="translate(-694.187 -427.255)"/>
        <g id="Group_181516" data-name="Group 181516" transform="translate(55.153 40.238)" opacity="0.4">
          <g id="Group_181515" data-name="Group 181515">
            <g id="Group_181514" data-name="Group 181514" clip-path="url(#clip-path-19)">
              <path id="Path_114507" data-name="Path 114507" d="M643.33,466.774s-2.571.174-3.534,1.862h0c.643,2.152,5.776,5.452,7.105,5.045.627-.192,3.092-1.848,3.274-3.726a61.7,61.7,0,0,0-6.569-3.068l-.276-.114" transform="translate(-639.796 -466.774)" fill="#2e6857"/>
            </g>
          </g>
        </g>
        <path id="Path_114508" data-name="Path 114508" d="M726.515,494.492c-2.335.023-3.114,1.053-3.114,1.6s.893,4.3,1.236,4.419,3.022.687,3.48-.366,1.007-2.633,1.007-2.633c.526-1.855-.274-3.045-2.61-3.022" transform="translate(-661.04 -451.864)" fill="#a5a5a5"/>
        <path id="Path_114509" data-name="Path 114509" d="M726.058,500.354a7.663,7.663,0,0,1-1.891-.256c-.406-.135-1.266-4.046-1.266-4.46,0-.624.857-1.623,3.157-1.646a2.883,2.883,0,0,1,2.441.86,2.44,2.44,0,0,1,.211,2.217c-.006.018-.555,1.6-1.009,2.639-.218.5-.919.646-1.643.646m.067-6.276h-.066c-2.237.022-3.071.968-3.071,1.56a16.7,16.7,0,0,0,.488,2.362,5.525,5.525,0,0,0,.719,2.016,7.687,7.687,0,0,0,1.685.252c.667.022,1.511-.063,1.742-.6.452-1.04,1-2.614,1.006-2.63a2.359,2.359,0,0,0-.2-2.139,2.757,2.757,0,0,0-2.3-.826" transform="translate(-660.583 -451.407)"/>
        <path id="Path_114510" data-name="Path 114510" d="M761.811,458.9s-.125.281-.349.684a7.338,7.338,0,0,1-1.94,2.385c.184,1.877,2.346,3.5,2.942,3.222s1.635-2.216,2.277-4.367a0,0,0,0,0,0,0,4.212,4.212,0,0,0-2.929-1.923" transform="translate(-694.048 -419.343)" fill="#3e3e3e"/>
        <path id="Path_114511" data-name="Path 114511" d="M761.823,464.775a1.515,1.515,0,0,1-.7-.24A4.43,4.43,0,0,1,759,461.483l0-.025.021-.014a7.393,7.393,0,0,0,1.927-2.37c.22-.4.346-.677.347-.68l.013-.029.031,0a4.3,4.3,0,0,1,2.948,1.922h.018v.051l0,.006c-.625,2.094-1.678,4.106-2.3,4.394a.423.423,0,0,1-.178.035m-2.737-3.276a4.35,4.35,0,0,0,2.083,2.961,1.025,1.025,0,0,0,.795.2c.6-.278,1.629-2.255,2.248-4.322a4.185,4.185,0,0,0-2.857-1.882c-.038.083-.156.332-.337.657a7.529,7.529,0,0,1-1.932,2.385" transform="translate(-693.567 -418.851)"/>
        <path id="Path_114512" data-name="Path 114512" d="M642.651,457.576s-2.571.174-3.534,1.862h0c.643,2.152,5.776,5.452,7.105,5.045.627-.192,3.542-1.367,3.724-3.245a73.844,73.844,0,0,0-7.019-3.549l-.276-.115" transform="translate(-584.022 -418.131)" fill="#8e53a9"/>
        <g id="Group_181519" data-name="Group 181519" transform="translate(60.584 43.249)" opacity="0.36">
          <g id="Group_181518" data-name="Group 181518">
            <g id="Group_181517" data-name="Group 181517" clip-path="url(#clip-path-20)">
              <path id="Path_114513" data-name="Path 114513" d="M720.27,510.671c-.157-1.881-.316-3.531-.462-4.789a8.044,8.044,0,0,0-.933-.329l-.9-3.318-.146-.534-.573.146-14.455,3.67s.385,16.286,5.766,27.94c3.12,6.758,8.289,8.507,12.5,5.476a33.591,33.591,0,0,1,.083-4.837c.358-4.3-.219-15.36-.843-22.978l3.266,11.661Z" transform="translate(-702.796 -501.702)" fill="#40947e"/>
            </g>
          </g>
        </g>
        <g id="Group_181522" data-name="Group 181522" transform="translate(60.014 36.828)" opacity="0.48">
          <g id="Group_181521" data-name="Group 181521">
            <g id="Group_181520" data-name="Group 181520" clip-path="url(#clip-path-21)">
              <path id="Path_114514" data-name="Path 114514" d="M696.176,427.2a6.542,6.542,0,0,0,5.276,2.182,6.087,6.087,0,0,0,1.919-.278c-1.913-.516-3.767-1.328-4.774-1.515-.854-.158-1.754-.341-2.421-.389" transform="translate(-696.176 -427.205)" fill="#f18a8b"/>
            </g>
          </g>
        </g>
        <path id="Path_114515" data-name="Path 114515" d="M690.415,431.725c-2.448,2.149-7.964-.8-10.006-1.175s-4.865-.952-3.606.581,4.935,4.057,5.322,7.207,8.446-.858,8.446-.858a5.356,5.356,0,0,1,.951-3.263c1.063-1.314,3-2.033,3.042-3.013s-1.7-1.627-4.151.522" transform="translate(-618.175 -393.045)" fill="#f5b0a6"/>
        <path id="Path_114516" data-name="Path 114516" d="M900.351,538.852l-4.7-17.227c-.088-.024-.136-.035-.136-.035Z" transform="translate(-818.318 -476.626)" fill="#6fc183"/>
        <path id="Path_114517" data-name="Path 114517" d="M726.665,481.17l4.7,17.227-4.835-17.262s.048.011.136.035l-1.05-3.852-15.028,3.816s.385,16.286,5.765,27.94,16.855,8.412,19.024-8.549c2.027-15.846-7.456-19.009-8.711-19.356" transform="translate(-649.331 -436.171)" fill="#dbdcff"/>
        <g id="Group_181525" data-name="Group 181525" transform="translate(43.452 54.606)" opacity="0.2">
          <g id="Group_181524" data-name="Group 181524">
            <g id="Group_181523" data-name="Group 181523" clip-path="url(#clip-path-22)">
              <path id="Path_114518" data-name="Path 114518" d="M508.051,646.766a79.779,79.779,0,0,0-2.932-12.9s-.251.149-.646.386c.763,6.067,1.8,13.381,1.8,13.381s.308,4.8.583,9.207c.223,3.579.427,6.9.427,7.186,0,.641-1.649,3.389-.733,3.756.487.195,8.517.338,16.16.345,2.784,0,5.517-.011,7.815-.047-23.292-.957-21.6-14.664-22.472-21.314" transform="translate(-504.437 -633.829)"/>
              <path id="Path_114519" data-name="Path 114519" d="M523.123,667.781h-.8c-7.378-.008-15.66-.143-16.174-.348a.433.433,0,0,1-.244-.242c-.209-.491.222-1.546.567-2.393a4.709,4.709,0,0,0,.387-1.154c0-.295-.216-3.8-.427-7.184-.272-4.357-.58-9.159-.583-9.207-.01-.07-1.043-7.381-1.8-13.379a.036.036,0,0,1,.017-.035c.4-.237.647-.386.647-.386a.036.036,0,0,1,.053.02,80.51,80.51,0,0,1,2.933,12.908c.093.714.157,1.513.225,2.359.288,3.589.646,8.057,3.531,11.8a15.742,15.742,0,0,0,6.525,4.8,35.629,35.629,0,0,0,12.157,2.323.036.036,0,0,1,0,.072c-2.008.031-4.421.048-7.019.048m-18.993-33.894c.754,5.993,1.784,13.284,1.795,13.357,0,.051.311,4.853.584,9.21.211,3.388.427,6.892.427,7.189a4.665,4.665,0,0,1-.392,1.181c-.341.835-.765,1.874-.568,2.338a.359.359,0,0,0,.2.2c.49.2,8.745.335,16.147.343,2.431,0,4.723-.008,6.7-.032a34.334,34.334,0,0,1-11.07-2.272,15.812,15.812,0,0,1-6.554-4.827c-2.9-3.755-3.257-8.234-3.546-11.833-.068-.845-.132-1.643-.225-2.355a80.428,80.428,0,0,0-2.917-12.852l-.587.351" transform="translate(-504.055 -633.447)"/>
            </g>
          </g>
        </g>
        <path id="Path_114520" data-name="Path 114520" d="M397.063,962.775c-1.354-.853-3.056-1.914-4.387-2.741l-2.168-1.346s-2.751,2.107-5.216,4.1c-2.043,1.653-3.891,3.228-3.815,3.462a4.686,4.686,0,0,0,.465,1,6.689,6.689,0,0,0,2.491,2.29,12.722,12.722,0,0,0,6.059,1.439s2.086,7.024,4.2,6.7c.874-.136.839-1.557.546-3.056.683,1.964,1.621,3.965,2.582,3.857.912-.1,1.1-1.184.963-2.508.626,1.669,1.443,3.031,2.405,2.766,1.47-.4.784-3.5.1-5.67.818,2.086,2.151,4.872,3.267,4.333,1.932-.933-1.742-8.981-2.888-10.731a19,19,0,0,0-4.6-3.9" transform="translate(-348.589 -876.044)" fill="#f5b0a6"/>
        <path id="Path_114521" data-name="Path 114521" d="M593.152,1073.569c-.3-.861-.69-1.7-1.067-2.53-.009-.02-.041-.011-.033.01.3.86.559,1.735.861,2.594a33.592,33.592,0,0,1,1.565,6.072,15.588,15.588,0,0,0-.531-3.527c-.221-.885-.493-1.758-.8-2.619" transform="translate(-541.013 -978.7)" fill="#f18a8b"/>
        <path id="Path_114522" data-name="Path 114522" d="M557.146,1086.3c-.388-1.1-.861-2.159-1.3-3.24-.007-.016-.033-.009-.027.008.406,1.084.732,2.2,1.1,3.3s.78,2.1,1.135,3.2c.027.086.082.1.058.015-.31-1.119-.581-2.193-.967-3.288" transform="translate(-507.907 -989.688)" fill="#f18a8b"/>
        <path id="Path_114523" data-name="Path 114523" d="M522.512,1087.692c-.016-.034-.068-.005-.056.026.7,2,1.086,3.344,1.586,5.052.026.087.093.115.073.029a26.06,26.06,0,0,0-1.6-5.106" transform="translate(-477.416 -993.914)" fill="#f18a8b"/>
        <path id="Path_114524" data-name="Path 114524" d="M317.592,558.593c1.458-6.441.446-18.421.446-18.421s-13.148,6.764-18.462,24.708S315,592.163,315,592.163l7.312-13.484s-6.174-13.645-4.716-20.085" transform="translate(-272.955 -493.607)" fill="#dbdcff"/>
        <path id="Path_114525" data-name="Path 114525" d="M1253.043,23.531a15.323,15.323,0,1,0,9.218,19.612,15.323,15.323,0,0,0-9.218-19.612" transform="translate(-1126.27 -20.669)" fill="#d5d5e2"/>
        <path id="Path_114526" data-name="Path 114526" d="M1253.043.913a15.323,15.323,0,1,0,9.218,19.612A15.323,15.323,0,0,0,1253.043.913" transform="translate(-1126.27 0)" fill="#8e53a9"/>
        <path id="Path_114527" data-name="Path 114527" d="M1276.428,27.215a13.045,13.045,0,1,0,7.847,16.7,13.045,13.045,0,0,0-7.847-16.7" transform="translate(-1150.428 -24.159)" fill="#fff"/>
        <path id="Path_114528" data-name="Path 114528" d="M1392.757,158.048a1.711,1.711,0,1,0,1.029,2.19,1.711,1.711,0,0,0-1.029-2.19" transform="translate(-1270.6 -144.331)" fill="#8e53a9"/>
        <path id="Path_114529" data-name="Path 114529" d="M1353.938,111.427a.724.724,0,0,0-.095,1.02l3.975,4.79-.552,8.624a.724.724,0,1,0,1.446.093l.589-9.2-4.342-5.233a.724.724,0,0,0-1.02-.1" transform="translate(-1236.982 -101.669)" fill="#8e53a9"/>
        <path id="Path_114530" data-name="Path 114530" d="M1517.481,210.6a.744.744,0,1,0,.448.952.744.744,0,0,0-.448-.952" transform="translate(-1385.756 -192.402)" fill="#f19a6d"/>
        <path id="Path_114531" data-name="Path 114531" d="M1283.146,126.115a.744.744,0,1,0,.448.952.744.744,0,0,0-.448-.952" transform="translate(-1171.622 -115.203)" fill="#f19a6d"/>
        <path id="Path_114532" data-name="Path 114532" d="M1442.554,51.189a.744.744,0,1,0,.448.952.744.744,0,0,0-.448-.952" transform="translate(-1317.289 -46.736)" fill="#f19a6d"/>
        <path id="Path_114533" data-name="Path 114533" d="M1358.072,285.523a.744.744,0,1,0,.448.952.744.744,0,0,0-.448-.952" transform="translate(-1240.089 -260.869)" fill="#f19a6d"/>
        <path id="Path_114534" data-name="Path 114534" d="M1521.806,142.762a.744.744,0,1,0,.881.576.744.744,0,0,0-.881-.576" transform="translate(-1390.078 -130.441)" fill="#f19a6d"/>
        <path id="Path_114535" data-name="Path 114535" d="M1278.012,193.9a.744.744,0,1,0,.881.576.744.744,0,0,0-.881-.576" transform="translate(-1167.301 -177.166)" fill="#f19a6d"/>
        <path id="Path_114536" data-name="Path 114536" d="M1374.342,46.432a.744.744,0,1,0,.881.576.744.744,0,0,0-.881-.576" transform="translate(-1255.327 -42.415)" fill="#f19a6d"/>
        <path id="Path_114537" data-name="Path 114537" d="M1425.475,290.225a.744.744,0,1,0,.881.576.744.744,0,0,0-.881-.576" transform="translate(-1302.052 -265.192)" fill="#f19a6d"/>
        <path id="Path_114538" data-name="Path 114538" d="M1496.888,90.715a.744.744,0,1,0,1.046.117.744.744,0,0,0-1.046-.117" transform="translate(-1367.594 -82.746)" fill="#f19a6d"/>
        <path id="Path_114539" data-name="Path 114539" d="M1302.308,246.239a.744.744,0,1,0,1.046.117.744.744,0,0,0-1.046-.117" transform="translate(-1189.787 -224.863)" fill="#f19a6d"/>
        <path id="Path_114540" data-name="Path 114540" d="M1321.835,71.187a.744.744,0,1,0,1.046.117.744.744,0,0,0-1.046-.117" transform="translate(-1207.631 -64.902)" fill="#f19a6d"/>
        <path id="Path_114541" data-name="Path 114541" d="M1477.36,265.767a.744.744,0,1,0,1.046.117.744.744,0,0,0-1.046-.117" transform="translate(-1349.75 -242.708)" fill="#f19a6d"/>
        <path id="Path_114542" data-name="Path 114542" d="M774.336,399.72l-2.465-.945c-.715.452,2.366.956,2.465.945" transform="translate(-705.233 -364.399)" fill="#2e2e2e"/>
        <path id="Path_114543" data-name="Path 114543" d="M773.874,399.253c-.2,0-2.455-.373-2.6-.8-.02-.057-.016-.144.119-.229l.018-.012,2.651,1.016-.176.02h-.009m-2.456-.94c-.084.059-.071.1-.067.113.085.274,1.476.571,2.158.689Z" transform="translate(-704.776 -363.889)"/>
      </g>
    </g>
  </g>
</svg>
