<svg id="Layer_1" enable-background="new 0 0 60 60" height="512" viewBox="0 0 60 60" width="512" xmlns="http://www.w3.org/2000/svg"><path d="m37.85 52.29h14.57c.55 0 1-.45 1-1v-9.49c.17.13.38.19.58.19.26 0 .51-.09.71-.29.39-.39.39-1.02 0-1.41l-8.59-8.59c-.07-5.73-1.72-10.09-4.91-12.95-.84-.75-1.73-1.35-2.63-1.82-.63-2.69-2.2-5.17-4.6-6.92-5.36-3.9-12.89-2.72-16.8 2.64-1.89 2.6-2.66 5.77-2.16 8.94.26 1.66.86 3.22 1.74 4.59l-11.57 15.88c-.15.21-.22.48-.17.75l.77 4.7c.08.49.5.84.98.84.05 0 .1 0 .15-.01l4.72-.71c.45-.07.8-.43.85-.89l.35-3.53 3.25-1.42c.34-.14.56-.46.6-.82l.35-3.53 3.26-1.42c.16-.07.3-.18.41-.33l3.15-4.33c.98.26 1.99.39 3.01.39.63 0 1.26-.05 1.89-.15 3.18-.49 5.97-2.2 7.86-4.79 1.61-2.21 2.35-4.78 2.29-7.32.33.22.66.48.98.77 2.75 2.46 4.16 6.32 4.24 11.46l-6.94 6.94-.09.09-1.54 1.54c-.39.39-.39 1.02 0 1.41.35.35.9.39 1.29.1v9.49c0 .55.45 1 1 1zm-3.95-34.83c-.5 1.52-1.94 2.62-3.63 2.62-2.12 0-3.84-1.72-3.84-3.83 0-2.12 1.72-3.84 3.84-3.84 1.83 0 3.36 1.29 3.74 3.02.06.26.09.54.09.82 0 .42-.07.83-.2 1.21z"/></svg>